<svg width="351" height="278" viewBox="0 0 351 278" fill="none" xmlns="http://www.w3.org/2000/svg">
<g filter="url(#filter0_d)">
<g clip-path="url(#clip0)">
<rect x="5" y="4" width="341" height="268" rx="10" fill="#EDEDED"/>
<path d="M38.76 220H36.568V215.024H32.328V220H30.136V208.16H32.328V212.976H36.568V208.16H38.76V220ZM49.715 215.536C49.715 216.88 49.267 218.011 48.371 218.928C47.475 219.835 46.355 220.288 45.011 220.288C43.7097 220.288 42.595 219.824 41.667 218.896C40.739 217.968 40.275 216.859 40.275 215.568C40.275 214.256 40.7337 213.136 41.651 212.208C42.579 211.28 43.699 210.816 45.011 210.816C46.323 210.816 47.4323 211.275 48.339 212.192C49.2563 213.109 49.715 214.224 49.715 215.536ZM47.587 215.584C47.587 214.848 47.3363 214.197 46.835 213.632C46.3443 213.056 45.7363 212.768 45.011 212.768C44.275 212.768 43.6563 213.051 43.155 213.616C42.6537 214.181 42.403 214.832 42.403 215.568C42.403 216.325 42.6483 216.976 43.139 217.52C43.6297 218.064 44.2537 218.336 45.011 218.336C45.747 218.336 46.3603 218.064 46.851 217.52C47.3417 216.976 47.587 216.331 47.587 215.584ZM62.7334 211.12L59.4854 220H58.1734L56.5094 214.24H56.4774L54.7974 220H53.4854L50.2854 211.12H52.5574L54.1734 216.544H54.2054L55.6614 211.12H57.3574L58.7974 216.544H58.8294L60.4614 211.12H62.7334ZM74.0786 210.208H71.8706V220H69.6786V210.208H67.4866V208.16H74.0786V210.208ZM83.3088 215.536C83.3088 216.88 82.8608 218.011 81.9648 218.928C81.0688 219.835 79.9488 220.288 78.6048 220.288C77.3034 220.288 76.1888 219.824 75.2608 218.896C74.3328 217.968 73.8688 216.859 73.8688 215.568C73.8688 214.256 74.3274 213.136 75.2448 212.208C76.1728 211.28 77.2928 210.816 78.6048 210.816C79.9168 210.816 81.0261 211.275 81.9328 212.192C82.8501 213.109 83.3088 214.224 83.3088 215.536ZM81.1808 215.584C81.1808 214.848 80.9301 214.197 80.4288 213.632C79.9381 213.056 79.3301 212.768 78.6048 212.768C77.8688 212.768 77.2501 213.051 76.7488 213.616C76.2474 214.181 75.9968 214.832 75.9968 215.568C75.9968 216.325 76.2421 216.976 76.7328 217.52C77.2234 218.064 77.8474 218.336 78.6048 218.336C79.3408 218.336 79.9541 218.064 80.4448 217.52C80.9354 216.976 81.1808 216.331 81.1808 215.584ZM100.444 211.536H97.9475C97.0515 210.491 95.9955 209.968 94.7795 209.968C93.7128 209.968 92.8008 210.384 92.0435 211.216C91.2968 212.037 90.9235 212.987 90.9235 214.064C90.9235 215.152 91.3075 216.112 92.0755 216.944C92.8542 217.776 93.7822 218.192 94.8595 218.192C95.9368 218.192 96.9288 217.696 97.8355 216.704H100.38C99.9315 217.771 99.1955 218.629 98.1715 219.28C97.1582 219.92 96.0702 220.24 94.9075 220.24C93.2115 220.24 91.7555 219.632 90.5395 218.416C89.3342 217.189 88.7315 215.728 88.7315 214.032C88.7315 212.357 89.3342 210.923 90.5395 209.728C91.7448 208.523 93.1848 207.92 94.8595 207.92C96.0755 207.92 97.1848 208.245 98.1875 208.896C99.2008 209.547 99.9528 210.427 100.444 211.536ZM109.408 220H107.28V215.456C107.28 215.083 107.259 214.757 107.216 214.48C107.173 214.203 107.093 213.925 106.976 213.648C106.859 213.36 106.672 213.141 106.416 212.992C106.16 212.843 105.84 212.768 105.456 212.768C105.083 212.768 104.768 212.848 104.512 213.008C104.256 213.168 104.069 213.392 103.952 213.68C103.845 213.968 103.771 214.251 103.728 214.528C103.685 214.805 103.664 215.125 103.664 215.488V220H101.536V208.16H103.664V211.744C104.315 211.125 105.083 210.816 105.968 210.816C106.469 210.816 106.971 210.944 107.472 211.2C107.984 211.445 108.395 211.771 108.704 212.176C109.173 212.784 109.408 213.675 109.408 214.848V220ZM120.106 215.536C120.106 216.88 119.658 218.011 118.762 218.928C117.866 219.835 116.746 220.288 115.402 220.288C114.1 220.288 112.986 219.824 112.058 218.896C111.13 217.968 110.666 216.859 110.666 215.568C110.666 214.256 111.124 213.136 112.042 212.208C112.97 211.28 114.09 210.816 115.402 210.816C116.714 210.816 117.823 211.275 118.73 212.192C119.647 213.109 120.106 214.224 120.106 215.536ZM117.978 215.584C117.978 214.848 117.727 214.197 117.226 213.632C116.735 213.056 116.127 212.768 115.402 212.768C114.666 212.768 114.047 213.051 113.546 213.616C113.044 214.181 112.794 214.832 112.794 215.568C112.794 216.325 113.039 216.976 113.53 217.52C114.02 218.064 114.644 218.336 115.402 218.336C116.138 218.336 116.751 218.064 117.242 217.52C117.732 216.976 117.978 216.331 117.978 215.584ZM130.34 215.536C130.34 216.88 129.892 218.011 128.996 218.928C128.1 219.835 126.98 220.288 125.636 220.288C124.335 220.288 123.22 219.824 122.292 218.896C121.364 217.968 120.9 216.859 120.9 215.568C120.9 214.256 121.359 213.136 122.276 212.208C123.204 211.28 124.324 210.816 125.636 210.816C126.948 210.816 128.057 211.275 128.964 212.192C129.881 213.109 130.34 214.224 130.34 215.536ZM128.212 215.584C128.212 214.848 127.961 214.197 127.46 213.632C126.969 213.056 126.361 212.768 125.636 212.768C124.9 212.768 124.281 213.051 123.78 213.616C123.279 214.181 123.028 214.832 123.028 215.568C123.028 216.325 123.273 216.976 123.764 217.52C124.255 218.064 124.879 218.336 125.636 218.336C126.372 218.336 126.985 218.064 127.476 217.52C127.967 216.976 128.212 216.331 128.212 215.584ZM137.47 217.184C137.47 218.059 137.172 218.795 136.574 219.392C135.988 219.989 135.252 220.288 134.366 220.288C133.854 220.288 133.358 220.192 132.878 220C132.398 219.797 132.009 219.504 131.71 219.12C131.326 218.64 131.102 218 131.038 217.2H133.214C133.385 217.957 133.774 218.336 134.382 218.336C134.649 218.336 134.873 218.256 135.054 218.096C135.246 217.925 135.342 217.707 135.342 217.44C135.342 217.259 135.3 217.104 135.214 216.976C135.15 216.88 135.028 216.784 134.846 216.688C134.665 216.592 134.5 216.517 134.35 216.464C134.212 216.411 134.014 216.341 133.758 216.256C133.513 216.171 133.374 216.123 133.342 216.112C132.02 215.643 131.358 214.795 131.358 213.568C131.358 212.779 131.652 212.123 132.238 211.6C132.836 211.077 133.534 210.816 134.334 210.816C135.113 210.816 135.78 211.077 136.334 211.6C136.9 212.123 137.198 212.768 137.23 213.536H135.15C135.044 213.024 134.761 212.768 134.302 212.768C134.078 212.768 133.886 212.843 133.726 212.992C133.566 213.131 133.486 213.312 133.486 213.536C133.486 213.685 133.529 213.813 133.614 213.92C133.7 214.016 133.78 214.085 133.854 214.128C133.929 214.16 134.052 214.208 134.222 214.272C134.393 214.336 134.649 214.421 134.99 214.528C135.801 214.784 136.414 215.104 136.83 215.488C137.257 215.861 137.47 216.427 137.47 217.184ZM147.541 215.44C147.541 215.781 147.499 216.139 147.413 216.512H140.517C140.56 216.715 140.656 216.928 140.805 217.152C141.317 217.941 142.037 218.336 142.965 218.336C143.915 218.336 144.597 217.957 145.013 217.2H147.253C146.965 218.096 146.416 218.837 145.605 219.424C144.795 220 143.915 220.288 142.965 220.288C141.643 220.288 140.528 219.835 139.621 218.928C138.725 218.021 138.277 216.907 138.277 215.584C138.277 214.251 138.72 213.125 139.605 212.208C140.501 211.28 141.616 210.816 142.949 210.816C144.24 210.816 145.328 211.264 146.213 212.16C147.099 213.056 147.541 214.149 147.541 215.44ZM145.365 214.8C145.259 214.16 144.992 213.664 144.565 213.312C144.149 212.949 143.616 212.768 142.965 212.768C142.325 212.768 141.781 212.949 141.333 213.312C140.896 213.664 140.603 214.16 140.453 214.8H145.365ZM161.316 216.48C161.316 217.696 160.825 218.635 159.844 219.296C159.151 219.765 158.132 220 156.788 220H153.62V208.16H156.18C156.681 208.16 157.092 208.176 157.412 208.208C157.743 208.229 158.116 208.315 158.532 208.464C158.948 208.603 159.305 208.805 159.604 209.072C159.903 209.339 160.143 209.675 160.324 210.08C160.516 210.475 160.612 210.875 160.612 211.28C160.612 212.283 160.169 213.035 159.284 213.536C160.639 214.027 161.316 215.008 161.316 216.48ZM156.644 212.768C157.828 212.768 158.42 212.341 158.42 211.488C158.42 210.635 157.855 210.208 156.724 210.208H155.812V212.768H156.644ZM159.124 216.4C159.124 215.845 158.911 215.445 158.484 215.2C158.068 214.944 157.561 214.816 156.964 214.816H155.812V217.952H156.916C158.388 217.952 159.124 217.435 159.124 216.4ZM171.541 215.44C171.541 215.781 171.499 216.139 171.413 216.512H164.517C164.56 216.715 164.656 216.928 164.805 217.152C165.317 217.941 166.037 218.336 166.965 218.336C167.915 218.336 168.597 217.957 169.013 217.2H171.253C170.965 218.096 170.416 218.837 169.605 219.424C168.795 220 167.915 220.288 166.965 220.288C165.643 220.288 164.528 219.835 163.621 218.928C162.725 218.021 162.277 216.907 162.277 215.584C162.277 214.251 162.72 213.125 163.605 212.208C164.501 211.28 165.616 210.816 166.949 210.816C168.24 210.816 169.328 211.264 170.213 212.16C171.099 213.056 171.541 214.149 171.541 215.44ZM169.365 214.8C169.259 214.16 168.992 213.664 168.565 213.312C168.149 212.949 167.616 212.768 166.965 212.768C166.325 212.768 165.781 212.949 165.333 213.312C164.896 213.664 164.603 214.16 164.453 214.8H169.365ZM176.8 213.008H175.52V220H173.392V213.008H172.352V211.12H173.392V208.16H175.52V211.12H176.8V213.008ZM189.437 211.12L186.189 220H184.877L183.213 214.24H183.181L181.501 220H180.189L176.989 211.12H179.261L180.877 216.544H180.909L182.365 211.12H184.061L185.501 216.544H185.533L187.165 211.12H189.437ZM199.369 215.44C199.369 215.781 199.327 216.139 199.241 216.512H192.345C192.388 216.715 192.484 216.928 192.633 217.152C193.145 217.941 193.865 218.336 194.793 218.336C195.743 218.336 196.425 217.957 196.841 217.2H199.081C198.793 218.096 198.244 218.837 197.433 219.424C196.623 220 195.743 220.288 194.793 220.288C193.471 220.288 192.356 219.835 191.449 218.928C190.553 218.021 190.105 216.907 190.105 215.584C190.105 214.251 190.548 213.125 191.433 212.208C192.329 211.28 193.444 210.816 194.777 210.816C196.068 210.816 197.156 211.264 198.041 212.16C198.927 213.056 199.369 214.149 199.369 215.44ZM197.193 214.8C197.087 214.16 196.82 213.664 196.393 213.312C195.977 212.949 195.444 212.768 194.793 212.768C194.153 212.768 193.609 212.949 193.161 213.312C192.724 213.664 192.431 214.16 192.281 214.8H197.193ZM209.604 215.44C209.604 215.781 209.561 216.139 209.476 216.512H202.58C202.622 216.715 202.718 216.928 202.868 217.152C203.38 217.941 204.1 218.336 205.028 218.336C205.977 218.336 206.66 217.957 207.076 217.2H209.316C209.028 218.096 208.478 218.837 207.668 219.424C206.857 220 205.977 220.288 205.028 220.288C203.705 220.288 202.59 219.835 201.684 218.928C200.788 218.021 200.34 216.907 200.34 215.584C200.34 214.251 200.782 213.125 201.668 212.208C202.564 211.28 203.678 210.816 205.012 210.816C206.302 210.816 207.39 211.264 208.276 212.16C209.161 213.056 209.604 214.149 209.604 215.44ZM207.428 214.8C207.321 214.16 207.054 213.664 206.628 213.312C206.212 212.949 205.678 212.768 205.028 212.768C204.388 212.768 203.844 212.949 203.396 213.312C202.958 213.664 202.665 214.16 202.516 214.8H207.428ZM218.83 220H216.702V215.616C216.702 213.717 216.105 212.768 214.91 212.768C214.302 212.768 213.817 213.029 213.454 213.552C213.198 213.925 213.07 214.667 213.07 215.776V220H210.942V211.12H212.91V211.888C213.646 211.173 214.457 210.816 215.342 210.816C215.833 210.816 216.323 210.928 216.814 211.152C217.305 211.376 217.705 211.675 218.014 212.048C218.558 212.709 218.83 213.717 218.83 215.072V220ZM238.54 208.16L235.1 220H233.356L231.436 212.176H231.404L229.452 220H227.724L224.268 208.16H226.508L228.556 216.432H228.588L230.62 208.16H232.22L234.204 216.432H234.236L236.3 208.16H238.54ZM241.429 210.112H239.301V208.16H241.429V210.112ZM241.429 220H239.301V211.12H241.429V220ZM247.369 212.88C246.078 212.923 245.433 213.632 245.433 215.008V220H243.305V211.12H245.257V211.904H245.289C245.588 211.477 245.876 211.189 246.153 211.04C246.43 210.891 246.836 210.816 247.369 210.816V212.88ZM256.744 215.44C256.744 215.781 256.702 216.139 256.616 216.512H249.72C249.763 216.715 249.859 216.928 250.008 217.152C250.52 217.941 251.24 218.336 252.168 218.336C253.118 218.336 253.8 217.957 254.216 217.2H256.456C256.168 218.096 255.619 218.837 254.808 219.424C253.998 220 253.118 220.288 252.168 220.288C250.846 220.288 249.731 219.835 248.824 218.928C247.928 218.021 247.48 216.907 247.48 215.584C247.48 214.251 247.923 213.125 248.808 212.208C249.704 211.28 250.819 210.816 252.152 210.816C253.443 210.816 254.531 211.264 255.416 212.16C256.302 213.056 256.744 214.149 256.744 215.44ZM254.568 214.8C254.462 214.16 254.195 213.664 253.768 213.312C253.352 212.949 252.819 212.768 252.168 212.768C251.528 212.768 250.984 212.949 250.536 213.312C250.099 213.664 249.806 214.16 249.656 214.8H254.568ZM260.211 220H258.083V208.16H260.211V220ZM270.823 215.44C270.823 215.781 270.78 216.139 270.695 216.512H263.799C263.841 216.715 263.937 216.928 264.087 217.152C264.599 217.941 265.319 218.336 266.247 218.336C267.196 218.336 267.879 217.957 268.295 217.2H270.535C270.247 218.096 269.697 218.837 268.887 219.424C268.076 220 267.196 220.288 266.247 220.288C264.924 220.288 263.809 219.835 262.903 218.928C262.007 218.021 261.559 216.907 261.559 215.584C261.559 214.251 262.001 213.125 262.887 212.208C263.783 211.28 264.897 210.816 266.231 210.816C267.521 210.816 268.609 211.264 269.495 212.16C270.38 213.056 270.823 214.149 270.823 215.44ZM268.647 214.8C268.54 214.16 268.273 213.664 267.847 213.312C267.431 212.949 266.897 212.768 266.247 212.768C265.606 212.768 265.063 212.949 264.615 213.312C264.177 213.664 263.884 214.16 263.735 214.8H268.647ZM278.033 217.184C278.033 218.059 277.734 218.795 277.137 219.392C276.55 219.989 275.814 220.288 274.929 220.288C274.417 220.288 273.921 220.192 273.441 220C272.961 219.797 272.572 219.504 272.273 219.12C271.889 218.64 271.665 218 271.601 217.2H273.777C273.948 217.957 274.337 218.336 274.945 218.336C275.212 218.336 275.436 218.256 275.617 218.096C275.809 217.925 275.905 217.707 275.905 217.44C275.905 217.259 275.862 217.104 275.777 216.976C275.713 216.88 275.59 216.784 275.409 216.688C275.228 216.592 275.062 216.517 274.913 216.464C274.774 216.411 274.577 216.341 274.321 216.256C274.076 216.171 273.937 216.123 273.905 216.112C272.582 215.643 271.921 214.795 271.921 213.568C271.921 212.779 272.214 212.123 272.801 211.6C273.398 211.077 274.097 210.816 274.897 210.816C275.676 210.816 276.342 211.077 276.897 211.6C277.462 212.123 277.761 212.768 277.793 213.536H275.713C275.606 213.024 275.324 212.768 274.865 212.768C274.641 212.768 274.449 212.843 274.289 212.992C274.129 213.131 274.049 213.312 274.049 213.536C274.049 213.685 274.092 213.813 274.177 213.92C274.262 214.016 274.342 214.085 274.417 214.128C274.492 214.16 274.614 214.208 274.785 214.272C274.956 214.336 275.212 214.421 275.553 214.528C276.364 214.784 276.977 215.104 277.393 215.488C277.82 215.861 278.033 216.427 278.033 217.184ZM285.08 217.184C285.08 218.059 284.781 218.795 284.184 219.392C283.597 219.989 282.861 220.288 281.976 220.288C281.464 220.288 280.968 220.192 280.488 220C280.008 219.797 279.618 219.504 279.32 219.12C278.936 218.64 278.712 218 278.648 217.2H280.824C280.994 217.957 281.384 218.336 281.992 218.336C282.258 218.336 282.482 218.256 282.664 218.096C282.856 217.925 282.952 217.707 282.952 217.44C282.952 217.259 282.909 217.104 282.824 216.976C282.76 216.88 282.637 216.784 282.456 216.688C282.274 216.592 282.109 216.517 281.96 216.464C281.821 216.411 281.624 216.341 281.368 216.256C281.122 216.171 280.984 216.123 280.952 216.112C279.629 215.643 278.968 214.795 278.968 213.568C278.968 212.779 279.261 212.123 279.848 211.6C280.445 211.077 281.144 210.816 281.944 210.816C282.722 210.816 283.389 211.077 283.944 211.6C284.509 212.123 284.808 212.768 284.84 213.536H282.76C282.653 213.024 282.37 212.768 281.912 212.768C281.688 212.768 281.496 212.843 281.336 212.992C281.176 213.131 281.096 213.312 281.096 213.536C281.096 213.685 281.138 213.813 281.224 213.92C281.309 214.016 281.389 214.085 281.464 214.128C281.538 214.16 281.661 214.208 281.832 214.272C282.002 214.336 282.258 214.421 282.6 214.528C283.41 214.784 284.024 215.104 284.44 215.488C284.866 215.861 285.08 216.427 285.08 217.184ZM299.683 220H297.731V218.896C297.379 219.312 296.91 219.648 296.323 219.904C295.747 220.16 295.182 220.288 294.627 220.288C293.336 220.288 292.291 219.819 291.491 218.88C290.702 217.941 290.307 216.816 290.307 215.504C290.307 214.203 290.723 213.099 291.555 212.192C292.398 211.275 293.464 210.816 294.755 210.816C295.736 210.816 296.611 211.168 297.379 211.872C297.539 212.032 297.646 212.155 297.699 212.24H297.731V211.12H299.683V220ZM296.947 217.52C297.427 216.976 297.667 216.315 297.667 215.536C297.667 214.757 297.427 214.101 296.947 213.568C296.467 213.035 295.843 212.768 295.075 212.768C294.307 212.768 293.672 213.045 293.171 213.6C292.68 214.155 292.435 214.821 292.435 215.6C292.435 216.357 292.686 217.003 293.187 217.536C293.699 218.069 294.328 218.336 295.075 218.336C295.843 218.336 296.467 218.064 296.947 217.52ZM309.19 220H307.062V215.616C307.062 213.717 306.464 212.768 305.27 212.768C304.662 212.768 304.176 213.029 303.814 213.552C303.558 213.925 303.43 214.667 303.43 215.776V220H301.302V211.12H303.27V211.888C304.006 211.173 304.816 210.816 305.702 210.816C306.192 210.816 306.683 210.928 307.174 211.152C307.664 211.376 308.064 211.675 308.374 212.048C308.918 212.709 309.19 213.717 309.19 215.072V220ZM319.919 220H317.967V218.912H317.935C317.647 219.36 317.247 219.701 316.735 219.936C316.223 220.171 315.679 220.288 315.103 220.288C313.823 220.288 312.746 219.824 311.871 218.896C311.007 217.957 310.575 216.848 310.575 215.568C310.575 214.608 310.821 213.739 311.311 212.96C311.802 212.171 312.485 211.584 313.359 211.2C313.935 210.944 314.517 210.816 315.103 210.816C316.213 210.816 317.109 211.179 317.791 211.904V208.16H319.919V220ZM317.183 217.504C317.695 216.949 317.951 216.299 317.951 215.552C317.951 214.805 317.695 214.155 317.183 213.6C316.682 213.045 316.063 212.768 315.327 212.768C314.613 212.768 313.994 213.045 313.471 213.6C312.959 214.144 312.703 214.773 312.703 215.488C312.703 216.245 312.949 216.912 313.439 217.488C313.941 218.053 314.57 218.336 315.327 218.336C316.063 218.336 316.682 218.059 317.183 217.504ZM43.384 230.16L39.944 242H38.2L36.28 234.176H36.248L34.296 242H32.568L29.112 230.16H31.352L33.4 238.432H33.432L35.464 230.16H37.064L39.048 238.432H39.08L41.144 230.16H43.384ZM46.2729 232.112H44.1449V230.16H46.2729V232.112ZM46.2729 242H44.1449V233.12H46.2729V242ZM52.2126 234.88C50.922 234.923 50.2766 235.632 50.2766 237.008V242H48.1486V233.12H50.1006V233.904H50.1326C50.4313 233.477 50.7193 233.189 50.9966 233.04C51.274 232.891 51.6793 232.816 52.2126 232.816V234.88ZM61.5881 237.44C61.5881 237.781 61.5455 238.139 61.4601 238.512H54.5641C54.6068 238.715 54.7028 238.928 54.8521 239.152C55.3641 239.941 56.0841 240.336 57.0121 240.336C57.9615 240.336 58.6441 239.957 59.0601 239.2H61.3001C61.0121 240.096 60.4628 240.837 59.6521 241.424C58.8415 242 57.9615 242.288 57.0121 242.288C55.6895 242.288 54.5748 241.835 53.6681 240.928C52.7721 240.021 52.3241 238.907 52.3241 237.584C52.3241 236.251 52.7668 235.125 53.6521 234.208C54.5481 233.28 55.6628 232.816 56.9961 232.816C58.2868 232.816 59.3748 233.264 60.2601 234.16C61.1455 235.056 61.5881 236.149 61.5881 237.44ZM59.4121 236.8C59.3055 236.16 59.0388 235.664 58.6121 235.312C58.1961 234.949 57.6628 234.768 57.0121 234.768C56.3721 234.768 55.8281 234.949 55.3801 235.312C54.9428 235.664 54.6495 236.16 54.5001 236.8H59.4121ZM71.9505 242H69.9985V240.912H69.9665C69.6785 241.36 69.2785 241.701 68.7665 241.936C68.2545 242.171 67.7105 242.288 67.1345 242.288C65.8545 242.288 64.7772 241.824 63.9025 240.896C63.0385 239.957 62.6065 238.848 62.6065 237.568C62.6065 236.608 62.8518 235.739 63.3425 234.96C63.8332 234.171 64.5158 233.584 65.3905 233.2C65.9665 232.944 66.5478 232.816 67.1345 232.816C68.2438 232.816 69.1398 233.179 69.8225 233.904V230.16H71.9505V242ZM69.2145 239.504C69.7265 238.949 69.9825 238.299 69.9825 237.552C69.9825 236.805 69.7265 236.155 69.2145 235.6C68.7132 235.045 68.0945 234.768 67.3585 234.768C66.6438 234.768 66.0252 235.045 65.5025 235.6C64.9905 236.144 64.7345 236.773 64.7345 237.488C64.7345 238.245 64.9798 238.912 65.4705 239.488C65.9718 240.053 66.6012 240.336 67.3585 240.336C68.0945 240.336 68.7132 240.059 69.2145 239.504ZM89.3654 233.536H86.8694C85.9734 232.491 84.9174 231.968 83.7014 231.968C82.6347 231.968 81.7227 232.384 80.9654 233.216C80.2187 234.037 79.8454 234.987 79.8454 236.064C79.8454 237.152 80.2294 238.112 80.9974 238.944C81.776 239.776 82.704 240.192 83.7814 240.192C84.8587 240.192 85.8507 239.696 86.7574 238.704H89.3014C88.8534 239.771 88.1174 240.629 87.0934 241.28C86.08 241.92 84.992 242.24 83.8294 242.24C82.1334 242.24 80.6774 241.632 79.4614 240.416C78.256 239.189 77.6534 237.728 77.6534 236.032C77.6534 234.357 78.256 232.923 79.4614 231.728C80.6667 230.523 82.1067 229.92 83.7814 229.92C84.9974 229.92 86.1067 230.245 87.1094 230.896C88.1227 231.547 88.8747 232.427 89.3654 233.536ZM98.3298 242H96.2018V237.456C96.2018 237.083 96.1804 236.757 96.1378 236.48C96.0951 236.203 96.0151 235.925 95.8978 235.648C95.7804 235.36 95.5938 235.141 95.3378 234.992C95.0818 234.843 94.7618 234.768 94.3778 234.768C94.0044 234.768 93.6898 234.848 93.4338 235.008C93.1778 235.168 92.9911 235.392 92.8738 235.68C92.7671 235.968 92.6924 236.251 92.6498 236.528C92.6071 236.805 92.5858 237.125 92.5858 237.488V242H90.4578V230.16H92.5858V233.744C93.2364 233.125 94.0044 232.816 94.8898 232.816C95.3911 232.816 95.8924 232.944 96.3938 233.2C96.9058 233.445 97.3164 233.771 97.6258 234.176C98.0951 234.784 98.3298 235.675 98.3298 236.848V242ZM108.996 242H107.044V240.896C106.692 241.312 106.222 241.648 105.636 241.904C105.06 242.16 104.494 242.288 103.94 242.288C102.649 242.288 101.604 241.819 100.804 240.88C100.014 239.941 99.6195 238.816 99.6195 237.504C99.6195 236.203 100.036 235.099 100.868 234.192C101.71 233.275 102.777 232.816 104.068 232.816C105.049 232.816 105.924 233.168 106.692 233.872C106.852 234.032 106.958 234.155 107.012 234.24H107.044V233.12H108.996V242ZM106.26 239.52C106.74 238.976 106.98 238.315 106.98 237.536C106.98 236.757 106.74 236.101 106.26 235.568C105.78 235.035 105.156 234.768 104.388 234.768C103.62 234.768 102.985 235.045 102.484 235.6C101.993 236.155 101.748 236.821 101.748 237.6C101.748 238.357 101.998 239.003 102.5 239.536C103.012 240.069 103.641 240.336 104.388 240.336C105.156 240.336 105.78 240.064 106.26 239.52ZM114.822 234.88C113.531 234.923 112.886 235.632 112.886 237.008V242H110.758V233.12H112.71V233.904H112.742C113.041 233.477 113.329 233.189 113.606 233.04C113.883 232.891 114.289 232.816 114.822 232.816V234.88ZM124.406 240.368C124.406 241.488 124.171 242.469 123.702 243.312C123.243 244.165 122.528 244.795 121.558 245.2C120.918 245.477 120.251 245.616 119.558 245.616C118.555 245.616 117.648 245.355 116.838 244.832C116.027 244.309 115.446 243.589 115.094 242.672H117.526C118.091 243.333 118.822 243.664 119.718 243.664C120.496 243.664 121.131 243.397 121.622 242.864C122.123 242.341 122.395 241.685 122.438 240.896L122.406 240.864C121.734 241.813 120.763 242.288 119.494 242.288C118.886 242.288 118.299 242.155 117.734 241.888C116.859 241.493 116.176 240.901 115.686 240.112C115.195 239.312 114.95 238.432 114.95 237.472C114.95 236.213 115.387 235.125 116.262 234.208C117.147 233.28 118.219 232.816 119.478 232.816C120.747 232.816 121.691 233.28 122.31 234.208H122.342V233.12H124.406V240.368ZM122.278 237.472C122.278 236.757 122.022 236.128 121.51 235.584C120.998 235.04 120.384 234.768 119.67 234.768C118.934 234.768 118.315 235.035 117.814 235.568C117.323 236.101 117.078 236.741 117.078 237.488C117.078 238.267 117.328 238.939 117.83 239.504C118.331 240.059 118.966 240.336 119.734 240.336C120.48 240.336 121.088 240.053 121.558 239.488C122.038 238.912 122.278 238.24 122.278 237.472ZM127.976 232.112H125.848V230.16H127.976V232.112ZM127.976 242H125.848V233.12H127.976V242ZM137.596 242H135.468V237.616C135.468 235.717 134.87 234.768 133.676 234.768C133.068 234.768 132.582 235.029 132.22 235.552C131.964 235.925 131.836 236.667 131.836 237.776V242H129.708V233.12H131.676V233.888C132.412 233.173 133.222 232.816 134.108 232.816C134.598 232.816 135.089 232.928 135.58 233.152C136.07 233.376 136.47 233.675 136.78 234.048C137.324 234.709 137.596 235.717 137.596 237.072V242ZM148.406 240.368C148.406 241.488 148.171 242.469 147.702 243.312C147.243 244.165 146.528 244.795 145.558 245.2C144.918 245.477 144.251 245.616 143.558 245.616C142.555 245.616 141.648 245.355 140.838 244.832C140.027 244.309 139.446 243.589 139.094 242.672H141.526C142.091 243.333 142.822 243.664 143.718 243.664C144.496 243.664 145.131 243.397 145.622 242.864C146.123 242.341 146.395 241.685 146.438 240.896L146.406 240.864C145.734 241.813 144.763 242.288 143.494 242.288C142.886 242.288 142.299 242.155 141.734 241.888C140.859 241.493 140.176 240.901 139.686 240.112C139.195 239.312 138.95 238.432 138.95 237.472C138.95 236.213 139.387 235.125 140.262 234.208C141.147 233.28 142.219 232.816 143.478 232.816C144.747 232.816 145.691 233.28 146.31 234.208H146.342V233.12H148.406V240.368ZM146.278 237.472C146.278 236.757 146.022 236.128 145.51 235.584C144.998 235.04 144.384 234.768 143.67 234.768C142.934 234.768 142.315 235.035 141.814 235.568C141.323 236.101 141.078 236.741 141.078 237.488C141.078 238.267 141.328 238.939 141.83 239.504C142.331 240.059 142.966 240.336 143.734 240.336C144.48 240.336 145.088 240.053 145.558 239.488C146.038 238.912 146.278 238.24 146.278 237.472ZM156.856 233.568C156.856 234.155 156.717 234.661 156.44 235.088C156.173 235.515 155.773 235.979 155.24 236.48C154.856 236.843 154.589 237.152 154.44 237.408C154.291 237.653 154.216 238.005 154.216 238.464V239.008H152.088V238.544C152.088 237.936 152.179 237.403 152.36 236.944C152.541 236.475 152.76 236.107 153.016 235.84C153.272 235.573 153.528 235.328 153.784 235.104C154.051 234.88 154.275 234.645 154.456 234.4C154.637 234.144 154.728 233.867 154.728 233.568C154.728 233.099 154.589 232.731 154.312 232.464C154.045 232.187 153.683 232.048 153.224 232.048C152.723 232.048 152.365 232.181 152.152 232.448C151.949 232.704 151.811 233.093 151.736 233.616H149.608C149.757 231.845 150.541 230.699 151.96 230.176C152.387 230.005 152.829 229.92 153.288 229.92C154.323 229.92 155.176 230.267 155.848 230.96C156.52 231.653 156.856 232.523 156.856 233.568ZM154.216 242H152.088V239.872H154.216V242Z" fill="black"/>
<path d="M32.856 196V188.428H30.348V187.6H36.372V188.428H33.864V196H32.856ZM37.6028 196V187.6H42.7988V188.428H38.6108V191.356H42.4388V192.172H38.6108V195.172H42.7988V196H37.6028ZM48.0603 196.144C47.2363 196.144 46.5243 195.964 45.9243 195.604C45.3323 195.236 44.8723 194.728 44.5443 194.08C44.2163 193.424 44.0523 192.664 44.0523 191.8C44.0523 190.944 44.2163 190.192 44.5443 189.544C44.8723 188.888 45.3323 188.376 45.9243 188.008C46.5243 187.64 47.2363 187.456 48.0603 187.456C49.0203 187.456 49.8003 187.688 50.4003 188.152C51.0083 188.608 51.3963 189.248 51.5643 190.072H50.4483C50.3203 189.552 50.0563 189.136 49.6563 188.824C49.2643 188.504 48.7323 188.344 48.0603 188.344C47.4603 188.344 46.9363 188.484 46.4883 188.764C46.0403 189.036 45.6923 189.432 45.4443 189.952C45.2043 190.464 45.0843 191.08 45.0843 191.8C45.0843 192.52 45.2043 193.14 45.4443 193.66C45.6923 194.172 46.0403 194.568 46.4883 194.848C46.9363 195.12 47.4603 195.256 48.0603 195.256C48.7323 195.256 49.2643 195.104 49.6563 194.8C50.0563 194.488 50.3203 194.076 50.4483 193.564H51.5643C51.3963 194.372 51.0083 195.004 50.4003 195.46C49.8003 195.916 49.0203 196.144 48.0603 196.144ZM53.013 196V187.6H54.021V191.308H58.377V187.6H59.385V196H58.377V192.136H54.021V196H53.013ZM61.1575 196V187.6H62.1655L66.6415 194.332V187.6H67.6495V196H66.6415L62.1655 189.268V196H61.1575ZM73.247 196.144C72.423 196.144 71.699 195.964 71.075 195.604C70.459 195.236 69.975 194.724 69.623 194.068C69.279 193.412 69.107 192.656 69.107 191.8C69.107 190.944 69.279 190.192 69.623 189.544C69.975 188.888 70.459 188.376 71.075 188.008C71.699 187.64 72.423 187.456 73.247 187.456C74.079 187.456 74.803 187.64 75.419 188.008C76.043 188.376 76.527 188.888 76.871 189.544C77.215 190.192 77.387 190.944 77.387 191.8C77.387 192.656 77.215 193.412 76.871 194.068C76.527 194.724 76.043 195.236 75.419 195.604C74.803 195.964 74.079 196.144 73.247 196.144ZM73.247 195.256C73.863 195.256 74.403 195.12 74.867 194.848C75.339 194.568 75.703 194.172 75.959 193.66C76.223 193.14 76.355 192.52 76.355 191.8C76.355 191.08 76.223 190.464 75.959 189.952C75.703 189.44 75.339 189.048 74.867 188.776C74.403 188.496 73.863 188.356 73.247 188.356C72.631 188.356 72.087 188.496 71.615 188.776C71.151 189.048 70.787 189.44 70.523 189.952C70.267 190.464 70.139 191.08 70.139 191.8C70.139 192.52 70.267 193.14 70.523 193.66C70.787 194.172 71.151 194.568 71.615 194.848C72.087 195.12 72.631 195.256 73.247 195.256ZM78.8411 196V187.6H79.8491V195.196H83.7611V196H78.8411ZM88.1767 196.144C87.3527 196.144 86.6287 195.964 86.0047 195.604C85.3887 195.236 84.9047 194.724 84.5527 194.068C84.2087 193.412 84.0367 192.656 84.0367 191.8C84.0367 190.944 84.2087 190.192 84.5527 189.544C84.9047 188.888 85.3887 188.376 86.0047 188.008C86.6287 187.64 87.3527 187.456 88.1767 187.456C89.0087 187.456 89.7327 187.64 90.3487 188.008C90.9727 188.376 91.4567 188.888 91.8007 189.544C92.1447 190.192 92.3167 190.944 92.3167 191.8C92.3167 192.656 92.1447 193.412 91.8007 194.068C91.4567 194.724 90.9727 195.236 90.3487 195.604C89.7327 195.964 89.0087 196.144 88.1767 196.144ZM88.1767 195.256C88.7927 195.256 89.3327 195.12 89.7967 194.848C90.2687 194.568 90.6327 194.172 90.8887 193.66C91.1527 193.14 91.2847 192.52 91.2847 191.8C91.2847 191.08 91.1527 190.464 90.8887 189.952C90.6327 189.44 90.2687 189.048 89.7967 188.776C89.3327 188.496 88.7927 188.356 88.1767 188.356C87.5607 188.356 87.0167 188.496 86.5447 188.776C86.0807 189.048 85.7167 189.44 85.4527 189.952C85.1967 190.464 85.0687 191.08 85.0687 191.8C85.0687 192.52 85.1967 193.14 85.4527 193.66C85.7167 194.172 86.0807 194.568 86.5447 194.848C87.0167 195.12 87.5607 195.256 88.1767 195.256ZM97.3828 196.144C96.5988 196.144 95.9108 195.964 95.3188 195.604C94.7268 195.236 94.2668 194.728 93.9388 194.08C93.6108 193.424 93.4468 192.668 93.4468 191.812C93.4468 190.956 93.6108 190.2 93.9388 189.544C94.2748 188.888 94.7468 188.376 95.3548 188.008C95.9708 187.64 96.6948 187.456 97.5268 187.456C98.4708 187.456 99.2548 187.684 99.8788 188.14C100.511 188.596 100.919 189.224 101.103 190.024H99.9388C99.8268 189.52 99.5588 189.12 99.1348 188.824C98.7188 188.528 98.1828 188.38 97.5268 188.38C96.9108 188.38 96.3748 188.52 95.9188 188.8C95.4628 189.072 95.1068 189.464 94.8508 189.976C94.6028 190.488 94.4788 191.1 94.4788 191.812C94.4788 192.524 94.6028 193.136 94.8508 193.648C95.0988 194.16 95.4428 194.556 95.8828 194.836C96.3228 195.108 96.8348 195.244 97.4188 195.244C98.3148 195.244 98.9908 194.984 99.4468 194.464C99.9028 193.936 100.163 193.216 100.227 192.304H97.8028V191.512H101.259V196H100.335L100.251 194.62C99.9468 195.108 99.5748 195.484 99.1348 195.748C98.6948 196.012 98.1108 196.144 97.3828 196.144ZM104.46 196V192.808L101.724 187.6H102.864L104.964 191.848L107.064 187.6H108.192L105.468 192.808V196H104.46Z" fill="black"/>
<circle cx="166" cy="191" r="10" fill="#0083FB"/>
<path d="M165.771 194.963V188.003L164.415 188.315V187.379L166.275 186.563H167.091V194.963H165.771Z" fill="#F4F4F4"/>
<g opacity="0.5">
<line x1="123" y1="192.5" x2="156" y2="192.5" stroke="#0083FB"/>
<circle cx="123" cy="192" r="3" fill="#0083FB"/>
</g>
<g opacity="0.5">
<path d="M197 228L197 242.5" stroke="#0083FB"/>
<circle cx="197" cy="231" r="3" transform="rotate(90 197 231)" fill="#0083FB"/>
</g>
<circle cx="248" cy="242" r="10" fill="#0083FB"/>
<path d="M245.25 245.963V245.051C245.794 244.619 246.314 244.183 246.81 243.743C247.306 243.303 247.746 242.871 248.13 242.447C248.522 242.015 248.83 241.595 249.054 241.187C249.278 240.771 249.39 240.371 249.39 239.987C249.39 239.731 249.346 239.491 249.258 239.267C249.17 239.035 249.026 238.851 248.826 238.715C248.626 238.571 248.358 238.499 248.022 238.499C247.518 238.499 247.138 238.659 246.882 238.979C246.634 239.299 246.514 239.683 246.522 240.131H245.286C245.294 239.539 245.418 239.043 245.658 238.643C245.906 238.243 246.234 237.939 246.642 237.731C247.058 237.523 247.526 237.419 248.046 237.419C248.838 237.419 249.47 237.643 249.942 238.091C250.422 238.531 250.662 239.147 250.662 239.939C250.662 240.411 250.546 240.879 250.314 241.343C250.09 241.807 249.794 242.255 249.426 242.687C249.066 243.111 248.678 243.511 248.262 243.887C247.846 244.263 247.45 244.603 247.074 244.907H250.914V245.963H245.25Z" fill="#F4F4F4"/>
<line x1="197" y1="242.5" x2="238" y2="242.5" stroke="#0083FB" stroke-opacity="0.5"/>
<g opacity="0.5">
<path d="M247 160L247 174.5" stroke="#0083FB"/>
<circle cx="247" cy="163" r="3" transform="rotate(90 247 163)" fill="#0083FB"/>
</g>
<circle cx="298" cy="174" r="10" fill="#0083FB"/>
<path d="M297.989 178.107C297.445 178.107 296.949 178.011 296.501 177.819C296.061 177.619 295.709 177.319 295.445 176.919C295.181 176.519 295.041 176.019 295.025 175.419H296.285C296.301 175.867 296.453 176.247 296.741 176.559C297.037 176.863 297.453 177.015 297.989 177.015C298.501 177.015 298.893 176.875 299.165 176.595C299.437 176.307 299.573 175.951 299.573 175.527C299.573 175.015 299.389 174.635 299.021 174.387C298.661 174.139 298.217 174.015 297.689 174.015H297.065V172.959H297.701C298.173 172.959 298.553 172.847 298.841 172.623C299.137 172.399 299.285 172.083 299.285 171.675C299.285 171.331 299.169 171.051 298.937 170.835C298.713 170.619 298.393 170.511 297.977 170.511C297.545 170.511 297.205 170.639 296.957 170.895C296.709 171.143 296.573 171.455 296.549 171.831H295.289C295.305 171.343 295.425 170.919 295.649 170.559C295.881 170.199 296.197 169.919 296.597 169.719C296.997 169.519 297.457 169.419 297.977 169.419C298.537 169.419 299.005 169.519 299.381 169.719C299.765 169.911 300.053 170.175 300.245 170.511C300.445 170.839 300.545 171.199 300.545 171.591C300.545 172.039 300.421 172.431 300.173 172.767C299.925 173.103 299.593 173.327 299.177 173.439C299.657 173.543 300.053 173.779 300.365 174.147C300.677 174.507 300.833 174.975 300.833 175.551C300.833 176.015 300.725 176.443 300.509 176.835C300.293 177.219 299.973 177.527 299.549 177.759C299.125 177.991 298.605 178.107 297.989 178.107Z" fill="#F4F4F4"/>
<line x1="247" y1="174.5" x2="288" y2="174.5" stroke="#0083FB" stroke-opacity="0.5"/>
<rect x="31" y="26" width="289" height="132" stroke="#646464" stroke-width="4"/>
<line x1="30.8228" y1="26.1771" x2="318.823" y2="156.177" stroke="#646464" stroke-width="4"/>
<path d="M319 26.5L32.8286 157.82" stroke="#646464" stroke-width="4"/>
</g>
</g>
<defs>
<filter id="filter0_d" x="0" y="0" width="351" height="278" filterUnits="userSpaceOnUse" color-interpolation-filters="sRGB">
<feFlood flood-opacity="0" result="BackgroundImageFix"/>
<feColorMatrix in="SourceAlpha" type="matrix" values="0 0 0 0 0 0 0 0 0 0 0 0 0 0 0 0 0 0 127 0"/>
<feOffset dy="1"/>
<feGaussianBlur stdDeviation="2.5"/>
<feColorMatrix type="matrix" values="0 0 0 0 0 0 0 0 0 0 0 0 0 0 0 0 0 0 0.2 0"/>
<feBlend mode="normal" in2="BackgroundImageFix" result="effect1_dropShadow"/>
<feBlend mode="normal" in="SourceGraphic" in2="effect1_dropShadow" result="shape"/>
</filter>
<clipPath id="clip0">
<rect x="5" y="4" width="341" height="268" rx="10" fill="white"/>
</clipPath>
</defs>
</svg>
