<svg width="174" height="85" viewBox="0 0 174 85" fill="none" xmlns="http://www.w3.org/2000/svg">
<g filter="url(#filter0_d)">
<rect x="5.5" y="34.5" width="132" height="44" rx="22" fill="#F3F3F3" stroke="#F3F3F3"/>
<path d="M26.4731 62V50.8H33.2891V51.904H27.8171V55.84H32.4731V56.928H27.8171V62H26.4731ZM35.7559 52.304C35.4893 52.304 35.2653 52.2187 35.0839 52.048C34.9133 51.8667 34.8279 51.6427 34.8279 51.376C34.8279 51.12 34.9133 50.9067 35.0839 50.736C35.2653 50.5653 35.4893 50.48 35.7559 50.48C36.0119 50.48 36.2306 50.5653 36.4119 50.736C36.5933 50.9067 36.6839 51.12 36.6839 51.376C36.6839 51.6427 36.5933 51.8667 36.4119 52.048C36.2306 52.2187 36.0119 52.304 35.7559 52.304ZM35.0839 62V54.064H36.4279V62H35.0839ZM38.7681 62V50.48H40.1121V62H38.7681ZM42.3149 62V50.48H43.6589V62H42.3149ZM49.4298 62.192C48.6725 62.192 48.0005 62.0213 47.4138 61.68C46.8271 61.328 46.3631 60.8427 46.0218 60.224C45.6911 59.6053 45.5258 58.8747 45.5258 58.032C45.5258 57.2 45.6911 56.4747 46.0218 55.856C46.3525 55.2267 46.8111 54.7413 47.3978 54.4C47.9951 54.048 48.6831 53.872 49.4618 53.872C50.2298 53.872 50.8911 54.048 51.4458 54.4C52.0111 54.7413 52.4431 55.1947 52.7418 55.76C53.0405 56.3253 53.1898 56.9333 53.1898 57.584C53.1898 57.7013 53.1845 57.8187 53.1738 57.936C53.1738 58.0533 53.1738 58.1867 53.1738 58.336H46.8538C46.8858 58.944 47.0245 59.4507 47.2698 59.856C47.5258 60.2507 47.8405 60.5493 48.2138 60.752C48.5978 60.9547 49.0031 61.056 49.4298 61.056C49.9845 61.056 50.4485 60.928 50.8218 60.672C51.1951 60.416 51.4671 60.0693 51.6378 59.632H52.9658C52.7525 60.368 52.3418 60.9813 51.7338 61.472C51.1365 61.952 50.3685 62.192 49.4298 62.192ZM49.4298 55.008C48.7898 55.008 48.2191 55.2053 47.7178 55.6C47.2271 55.984 46.9445 56.5493 46.8698 57.296H51.8618C51.8298 56.5813 51.5845 56.0213 51.1258 55.616C50.6671 55.2107 50.1018 55.008 49.4298 55.008ZM58.5712 62.192C57.7819 62.192 57.0885 62.0107 56.4912 61.648C55.9045 61.2853 55.4459 60.7893 55.1152 60.16C54.7952 59.5307 54.6352 58.816 54.6352 58.016C54.6352 57.216 54.8005 56.5067 55.1312 55.888C55.4619 55.2587 55.9205 54.768 56.5072 54.416C57.0939 54.0533 57.7872 53.872 58.5872 53.872C59.2379 53.872 59.8139 54.0053 60.3152 54.272C60.8165 54.5387 61.2059 54.912 61.4832 55.392V50.48H62.8272V62H61.6112L61.4832 60.688C61.2272 61.072 60.8592 61.4187 60.3792 61.728C59.8992 62.0373 59.2965 62.192 58.5712 62.192ZM58.7152 61.024C59.2485 61.024 59.7179 60.9013 60.1232 60.656C60.5392 60.4 60.8592 60.048 61.0832 59.6C61.3179 59.152 61.4352 58.6293 61.4352 58.032C61.4352 57.4347 61.3179 56.912 61.0832 56.464C60.8592 56.016 60.5392 55.6693 60.1232 55.424C59.7179 55.168 59.2485 55.04 58.7152 55.04C58.1925 55.04 57.7232 55.168 57.3072 55.424C56.9019 55.6693 56.5819 56.016 56.3472 56.464C56.1232 56.912 56.0112 57.4347 56.0112 58.032C56.0112 58.6293 56.1232 59.152 56.3472 59.6C56.5819 60.048 56.9019 60.4 57.3072 60.656C57.7232 60.9013 58.1925 61.024 58.7152 61.024ZM69.3324 62V50.8H73.2684C74.0578 50.8 74.7084 50.928 75.2204 51.184C75.7431 51.4293 76.1324 51.7707 76.3884 52.208C76.6444 52.6347 76.7724 53.1147 76.7724 53.648C76.7724 54.3733 76.5751 54.944 76.1804 55.36C75.7964 55.776 75.3324 56.064 74.7884 56.224C75.2044 56.2987 75.5831 56.464 75.9244 56.72C76.2658 56.976 76.5324 57.296 76.7244 57.68C76.9271 58.064 77.0284 58.4853 77.0284 58.944C77.0284 59.5093 76.8898 60.0267 76.6124 60.496C76.3351 60.9547 75.9244 61.3227 75.3804 61.6C74.8364 61.8667 74.1751 62 73.3964 62H69.3324ZM70.6764 55.696H73.1724C73.8871 55.696 74.4364 55.5307 74.8204 55.2C75.2044 54.8587 75.3964 54.3893 75.3964 53.792C75.3964 53.2267 75.2044 52.7733 74.8204 52.432C74.4471 52.0907 73.8818 51.92 73.1244 51.92H70.6764V55.696ZM70.6764 60.88H73.2524C74.0204 60.88 74.6124 60.704 75.0284 60.352C75.4444 59.9893 75.6524 59.488 75.6524 58.848C75.6524 58.2187 75.4338 57.7173 74.9964 57.344C74.5591 56.96 73.9671 56.768 73.2204 56.768H70.6764V60.88ZM85.8214 54.064V62H84.6054L84.5254 60.576C84.2694 61.0773 83.9014 61.472 83.4214 61.76C82.9414 62.048 82.3974 62.192 81.7894 62.192C80.8508 62.192 80.0988 61.9093 79.5334 61.344C78.9788 60.768 78.7014 59.888 78.7014 58.704V54.064H80.0454V58.56C80.0454 60.2133 80.7281 61.04 82.0934 61.04C82.7761 61.04 83.3414 60.7947 83.7894 60.304C84.2481 59.8027 84.4774 59.0933 84.4774 58.176V54.064H85.8214ZM91.1697 62C90.4444 62 89.8737 61.824 89.4577 61.472C89.0417 61.12 88.8337 60.4853 88.8337 59.568V55.2H87.4577V54.064H88.8337L89.0097 52.16H90.1777V54.064H92.5137V55.2H90.1777V59.568C90.1777 60.0693 90.279 60.4107 90.4817 60.592C90.6844 60.7627 91.0417 60.848 91.5537 60.848H92.3857V62H91.1697ZM97.3572 62C96.6319 62 96.0612 61.824 95.6452 61.472C95.2292 61.12 95.0212 60.4853 95.0212 59.568V55.2H93.6452V54.064H95.0212L95.1972 52.16H96.3652V54.064H98.7012V55.2H96.3652V59.568C96.3652 60.0693 96.4665 60.4107 96.6692 60.592C96.8719 60.7627 97.2292 60.848 97.7412 60.848H98.5732V62H97.3572ZM103.806 62.192C103.059 62.192 102.387 62.0213 101.79 61.68C101.193 61.3387 100.718 60.8587 100.366 60.24C100.025 59.6107 99.8539 58.8747 99.8539 58.032C99.8539 57.1893 100.03 56.4587 100.382 55.84C100.734 55.2107 101.209 54.7253 101.806 54.384C102.414 54.0427 103.091 53.872 103.838 53.872C104.585 53.872 105.257 54.0427 105.854 54.384C106.451 54.7253 106.921 55.2107 107.262 55.84C107.614 56.4587 107.79 57.1893 107.79 58.032C107.79 58.8747 107.614 59.6107 107.262 60.24C106.91 60.8587 106.43 61.3387 105.822 61.68C105.225 62.0213 104.553 62.192 103.806 62.192ZM103.806 61.04C104.265 61.04 104.691 60.928 105.086 60.704C105.481 60.48 105.801 60.144 106.046 59.696C106.291 59.248 106.414 58.6933 106.414 58.032C106.414 57.3707 106.291 56.816 106.046 56.368C105.811 55.92 105.497 55.584 105.102 55.36C104.707 55.136 104.286 55.024 103.838 55.024C103.379 55.024 102.953 55.136 102.558 55.36C102.163 55.584 101.843 55.92 101.598 56.368C101.353 56.816 101.23 57.3707 101.23 58.032C101.23 58.6933 101.353 59.248 101.598 59.696C101.843 60.144 102.158 60.48 102.542 60.704C102.937 60.928 103.358 61.04 103.806 61.04ZM109.659 62V54.064H110.875L110.955 55.488C111.211 54.9867 111.579 54.592 112.059 54.304C112.539 54.016 113.083 53.872 113.691 53.872C114.629 53.872 115.376 54.16 115.931 54.736C116.496 55.3013 116.779 56.176 116.779 57.36V62H115.435V57.504C115.435 55.8507 114.752 55.024 113.387 55.024C112.704 55.024 112.133 55.2747 111.675 55.776C111.227 56.2667 111.003 56.9707 111.003 57.888V62H109.659Z" fill="#080E16"/>
</g>
<circle cx="164" cy="57" r="10" fill="#0083FB"/>
<path d="M161.25 60.963V60.051C161.794 59.619 162.314 59.183 162.81 58.743C163.306 58.303 163.746 57.871 164.13 57.447C164.522 57.015 164.83 56.595 165.054 56.187C165.278 55.771 165.39 55.371 165.39 54.987C165.39 54.731 165.346 54.491 165.258 54.267C165.17 54.035 165.026 53.851 164.826 53.715C164.626 53.571 164.358 53.499 164.022 53.499C163.518 53.499 163.138 53.659 162.882 53.979C162.634 54.299 162.514 54.683 162.522 55.131H161.286C161.294 54.539 161.418 54.043 161.658 53.643C161.906 53.243 162.234 52.939 162.642 52.731C163.058 52.523 163.526 52.419 164.046 52.419C164.838 52.419 165.47 52.643 165.942 53.091C166.422 53.531 166.662 54.147 166.662 54.939C166.662 55.411 166.546 55.879 166.314 56.343C166.09 56.807 165.794 57.255 165.426 57.687C165.066 58.111 164.678 58.511 164.262 58.887C163.846 59.263 163.45 59.603 163.074 59.907H166.914V60.963H161.25Z" fill="#F4F4F4"/>
<g opacity="0.5">
<line x1="142" y1="57" x2="164" y2="57" stroke="#0083FB" stroke-width="2"/>
<circle cx="142" cy="57" r="3" fill="#0083FB"/>
</g>
<ellipse cx="149" cy="9.76744" rx="10" ry="9.76744" fill="#0083FB"/>
<path d="M148.771 13.9173V6.95733L147.415 7.26933V6.33333L149.275 5.51733H150.091V13.9173H148.771Z" fill="#F4F4F4"/>
<g opacity="0.5">
<line x1="81" y1="31" x2="81" y2="10" stroke="#0083FB" stroke-width="2"/>
<line x1="149" y1="10.7675" x2="81" y2="10.7675" stroke="#0083FB" stroke-width="2"/>
<ellipse cx="81" cy="31.3023" rx="2.93023" ry="3" transform="rotate(-90 81 31.3023)" fill="#0083FB"/>
</g>
<defs>
<filter id="filter0_d" x="0" y="30" width="143" height="55" filterUnits="userSpaceOnUse" color-interpolation-filters="sRGB">
<feFlood flood-opacity="0" result="BackgroundImageFix"/>
<feColorMatrix in="SourceAlpha" type="matrix" values="0 0 0 0 0 0 0 0 0 0 0 0 0 0 0 0 0 0 127 0"/>
<feOffset dy="1"/>
<feGaussianBlur stdDeviation="2.5"/>
<feColorMatrix type="matrix" values="0 0 0 0 0 0 0 0 0 0 0 0 0 0 0 0 0 0 0.2 0"/>
<feBlend mode="normal" in2="BackgroundImageFix" result="effect1_dropShadow"/>
<feBlend mode="normal" in="SourceGraphic" in2="effect1_dropShadow" result="shape"/>
</filter>
</defs>
</svg>
