<svg width="154" height="120" viewBox="0 0 154 120" fill="none" xmlns="http://www.w3.org/2000/svg">
<g filter="url(#filter0_d)">
<rect width="144" height="110" transform="translate(5 4)" fill="#F2F2F2"/>
<path opacity="0.8" d="M67.0293 63V54.166H64.1033V53.2H71.1313V54.166H68.2053V63H67.0293ZM74.3614 63.168C73.6988 63.168 73.1108 63.0187 72.5974 62.72C72.0841 62.412 71.6781 61.9873 71.3794 61.446C71.0901 60.9047 70.9454 60.2653 70.9454 59.528C70.9454 58.8 71.0901 58.1653 71.3794 57.624C71.6688 57.0733 72.0701 56.6487 72.5834 56.35C73.1061 56.042 73.7081 55.888 74.3894 55.888C75.0614 55.888 75.6401 56.042 76.1254 56.35C76.6201 56.6487 76.9981 57.0453 77.2594 57.54C77.5208 58.0347 77.6514 58.5667 77.6514 59.136C77.6514 59.2387 77.6468 59.3413 77.6374 59.444C77.6374 59.5467 77.6374 59.6633 77.6374 59.794H72.1074C72.1354 60.326 72.2568 60.7693 72.4714 61.124C72.6954 61.4693 72.9708 61.7307 73.2974 61.908C73.6334 62.0853 73.9881 62.174 74.3614 62.174C74.8468 62.174 75.2528 62.062 75.5794 61.838C75.9061 61.614 76.1441 61.3107 76.2934 60.928H77.4554C77.2688 61.572 76.9094 62.1087 76.3774 62.538C75.8548 62.958 75.1828 63.168 74.3614 63.168ZM74.3614 56.882C73.8014 56.882 73.3021 57.0547 72.8634 57.4C72.4341 57.736 72.1868 58.2307 72.1214 58.884H76.4894C76.4614 58.2587 76.2468 57.7687 75.8454 57.414C75.4441 57.0593 74.9494 56.882 74.3614 56.882ZM78.182 63L80.59 59.528L78.182 56.056H79.456L81.402 58.926L83.362 56.056H84.622L82.214 59.528L84.622 63H83.362L81.402 60.13L79.456 63H78.182ZM88.5987 63C87.964 63 87.4647 62.846 87.1007 62.538C86.7367 62.23 86.5547 61.6747 86.5547 60.872V57.05H85.3507V56.056H86.5547L86.7087 54.39H87.7307V56.056H89.7747V57.05H87.7307V60.872C87.7307 61.3107 87.8193 61.6093 87.9967 61.768C88.174 61.9173 88.4867 61.992 88.9347 61.992H89.6627V63H88.5987Z" fill="black"/>
<circle cx="123" cy="59" r="10" fill="#0083FB"/>
<path d="M122.771 62.963V56.003L121.415 56.315V55.379L123.275 54.563H124.091V62.963H122.771Z" fill="#F4F4F4"/>
<g opacity="0.5">
<line x1="96" y1="59" x2="118" y2="59" stroke="#0083FB" stroke-width="2"/>
<circle cx="96" cy="59" r="3" fill="#0083FB"/>
</g>
</g>
<defs>
<filter id="filter0_d" x="0" y="0" width="154" height="120" filterUnits="userSpaceOnUse" color-interpolation-filters="sRGB">
<feFlood flood-opacity="0" result="BackgroundImageFix"/>
<feColorMatrix in="SourceAlpha" type="matrix" values="0 0 0 0 0 0 0 0 0 0 0 0 0 0 0 0 0 0 127 0"/>
<feOffset dy="1"/>
<feGaussianBlur stdDeviation="2.5"/>
<feColorMatrix type="matrix" values="0 0 0 0 0 0 0 0 0 0 0 0 0 0 0 0 0 0 0.2 0"/>
<feBlend mode="normal" in2="BackgroundImageFix" result="effect1_dropShadow"/>
<feBlend mode="normal" in="SourceGraphic" in2="effect1_dropShadow" result="shape"/>
</filter>
</defs>
</svg>
