<svg width="243" height="176" viewBox="0 0 243 176" fill="none" xmlns="http://www.w3.org/2000/svg">
<g filter="url(#filter0_d)">
<g clip-path="url(#clip0)">
<rect x="5" y="4" width="233" height="166" rx="10" fill="#F3F3F3"/>
<path d="M38.788 31.478H35.98C34.972 30.302 33.784 29.714 32.416 29.714C31.216 29.714 30.19 30.182 29.338 31.118C28.498 32.042 28.078 33.11 28.078 34.322C28.078 35.546 28.51 36.626 29.374 37.562C30.25 38.498 31.294 38.966 32.506 38.966C33.718 38.966 34.834 38.408 35.854 37.292H38.716C38.212 38.492 37.384 39.458 36.232 40.19C35.092 40.91 33.868 41.27 32.56 41.27C30.652 41.27 29.014 40.586 27.646 39.218C26.29 37.838 25.612 36.194 25.612 34.286C25.612 32.402 26.29 30.788 27.646 29.444C29.002 28.088 30.622 27.41 32.506 27.41C33.874 27.41 35.122 27.776 36.25 28.508C37.39 29.24 38.236 30.23 38.788 31.478ZM50.0789 41H47.8829V39.758C47.4869 40.226 46.9589 40.604 46.2989 40.892C45.6509 41.18 45.0149 41.324 44.3909 41.324C42.9389 41.324 41.7629 40.796 40.8629 39.74C39.9749 38.684 39.5309 37.418 39.5309 35.942C39.5309 34.478 39.9989 33.236 40.9349 32.216C41.8829 31.184 43.0829 30.668 44.5349 30.668C45.6389 30.668 46.6229 31.064 47.4869 31.856C47.6669 32.036 47.7869 32.174 47.8469 32.27H47.8829V31.01H50.0789V41ZM47.0009 38.21C47.5409 37.598 47.8109 36.854 47.8109 35.978C47.8109 35.102 47.5409 34.364 47.0009 33.764C46.4609 33.164 45.7589 32.864 44.8949 32.864C44.0309 32.864 43.3169 33.176 42.7529 33.8C42.2009 34.424 41.9249 35.174 41.9249 36.05C41.9249 36.902 42.2069 37.628 42.7709 38.228C43.3469 38.828 44.0549 39.128 44.8949 39.128C45.7589 39.128 46.4609 38.822 47.0009 38.21ZM56.6337 32.99C55.1817 33.038 54.4557 33.836 54.4557 35.384V41H52.0617V31.01H54.2577V31.892H54.2937C54.6297 31.412 54.9537 31.088 55.2657 30.92C55.5777 30.752 56.0337 30.668 56.6337 30.668V32.99ZM67.3252 41H65.1292V39.776H65.0932C64.7692 40.28 64.3192 40.664 63.7432 40.928C63.1672 41.192 62.5552 41.324 61.9072 41.324C60.4672 41.324 59.2552 40.802 58.2712 39.758C57.2992 38.702 56.8132 37.454 56.8132 36.014C56.8132 34.934 57.0892 33.956 57.6412 33.08C58.1932 32.192 58.9612 31.532 59.9452 31.1C60.5932 30.812 61.2472 30.668 61.9072 30.668C63.1552 30.668 64.1632 31.076 64.9312 31.892V27.68H67.3252V41ZM64.2472 38.192C64.8232 37.568 65.1112 36.836 65.1112 35.996C65.1112 35.156 64.8232 34.424 64.2472 33.8C63.6832 33.176 62.9872 32.864 62.1592 32.864C61.3552 32.864 60.6592 33.176 60.0712 33.8C59.4952 34.412 59.2072 35.12 59.2072 35.924C59.2072 36.776 59.4832 37.526 60.0352 38.174C60.5992 38.81 61.3072 39.128 62.1592 39.128C62.9872 39.128 63.6832 38.816 64.2472 38.192ZM80.6529 29.984H78.1689V41H75.7029V29.984H73.2369V27.68H80.6529V29.984ZM83.9476 29.876H81.5536V27.68H83.9476V29.876ZM83.9476 41H81.5536V31.01H83.9476V41ZM90.3058 33.134H88.8658V41H86.4718V33.134H85.3018V31.01H86.4718V27.68H88.8658V31.01H90.3058V33.134ZM93.6863 41H91.2923V27.68H93.6863V41ZM105.625 35.87C105.625 36.254 105.577 36.656 105.481 37.076H97.7225C97.7705 37.304 97.8785 37.544 98.0465 37.796C98.6225 38.684 99.4325 39.128 100.477 39.128C101.545 39.128 102.313 38.702 102.781 37.85H105.301C104.977 38.858 104.359 39.692 103.447 40.352C102.535 41 101.545 41.324 100.477 41.324C98.9885 41.324 97.7345 40.814 96.7145 39.794C95.7065 38.774 95.2025 37.52 95.2025 36.032C95.2025 34.532 95.7005 33.266 96.6965 32.234C97.7045 31.19 98.9585 30.668 100.459 30.668C101.911 30.668 103.135 31.172 104.131 32.18C105.127 33.188 105.625 34.418 105.625 35.87ZM103.177 35.15C103.057 34.43 102.757 33.872 102.277 33.476C101.809 33.068 101.209 32.864 100.477 32.864C99.7565 32.864 99.1445 33.068 98.6405 33.476C98.1485 33.872 97.8185 34.43 97.6505 35.15H103.177Z" fill="black"/>
<path d="M26.036 69V59.2H27.212V63.526H32.294V59.2H33.47V69H32.294V64.492H27.212V69H26.036ZM38.59 69.168C37.9273 69.168 37.3393 69.0187 36.826 68.72C36.3126 68.412 35.9066 67.9873 35.608 67.446C35.3186 66.9047 35.174 66.2653 35.174 65.528C35.174 64.8 35.3186 64.1653 35.608 63.624C35.8973 63.0733 36.2986 62.6487 36.812 62.35C37.3346 62.042 37.9366 61.888 38.618 61.888C39.29 61.888 39.8686 62.042 40.354 62.35C40.8486 62.6487 41.2266 63.0453 41.488 63.54C41.7493 64.0347 41.88 64.5667 41.88 65.136C41.88 65.2387 41.8753 65.3413 41.866 65.444C41.866 65.5467 41.866 65.6633 41.866 65.794H36.336C36.364 66.326 36.4853 66.7693 36.7 67.124C36.924 67.4693 37.1993 67.7307 37.526 67.908C37.862 68.0853 38.2166 68.174 38.59 68.174C39.0753 68.174 39.4813 68.062 39.808 67.838C40.1346 67.614 40.3726 67.3107 40.522 66.928H41.684C41.4973 67.572 41.138 68.1087 40.606 68.538C40.0833 68.958 39.4113 69.168 38.59 69.168ZM38.59 62.882C38.03 62.882 37.5306 63.0547 37.092 63.4C36.6626 63.736 36.4153 64.2307 36.35 64.884H40.718C40.69 64.2587 40.4753 63.7687 40.074 63.414C39.6726 63.0593 39.178 62.882 38.59 62.882ZM43.4387 69V58.92H44.6147V69H43.4387ZM46.5422 69V58.92H47.7182V69H46.5422ZM52.8097 69.168C52.1564 69.168 51.5684 69.0187 51.0457 68.72C50.523 68.4213 50.1077 68.0013 49.7997 67.46C49.501 66.9093 49.3517 66.2653 49.3517 65.528C49.3517 64.7907 49.5057 64.1513 49.8137 63.61C50.1217 63.0593 50.537 62.6347 51.0597 62.336C51.5917 62.0373 52.1844 61.888 52.8377 61.888C53.491 61.888 54.079 62.0373 54.6017 62.336C55.1244 62.6347 55.535 63.0593 55.8337 63.61C56.1417 64.1513 56.2957 64.7907 56.2957 65.528C56.2957 66.2653 56.1417 66.9093 55.8337 67.46C55.5257 68.0013 55.1057 68.4213 54.5737 68.72C54.051 69.0187 53.463 69.168 52.8097 69.168ZM52.8097 68.16C53.211 68.16 53.5844 68.062 53.9297 67.866C54.275 67.67 54.555 67.376 54.7697 66.984C54.9844 66.592 55.0917 66.1067 55.0917 65.528C55.0917 64.9493 54.9844 64.464 54.7697 64.072C54.5644 63.68 54.289 63.386 53.9437 63.19C53.5984 62.994 53.2297 62.896 52.8377 62.896C52.4364 62.896 52.063 62.994 51.7177 63.19C51.3724 63.386 51.0924 63.68 50.8777 64.072C50.663 64.464 50.5557 64.9493 50.5557 65.528C50.5557 66.1067 50.663 66.592 50.8777 66.984C51.0924 67.376 51.3677 67.67 51.7037 67.866C52.049 68.062 52.4177 68.16 52.8097 68.16ZM58.1828 66.284L58.0428 59.2H59.3168L59.1768 66.284H58.1828ZM58.7148 69.07C58.4815 69.07 58.2855 68.9953 58.1268 68.846C57.9775 68.6873 57.9028 68.496 57.9028 68.272C57.9028 68.048 57.9775 67.8613 58.1268 67.712C58.2855 67.5533 58.4815 67.474 58.7148 67.474C58.9388 67.474 59.1255 67.5533 59.2748 67.712C59.4335 67.8613 59.5128 68.048 59.5128 68.272C59.5128 68.496 59.4335 68.6873 59.2748 68.846C59.1255 68.9953 58.9388 69.07 58.7148 69.07ZM67.4746 69V60.166H64.5486V59.2H71.5766V60.166H68.6506V69H67.4746ZM72.9426 69V58.92H74.1186V63.246C74.3519 62.8167 74.6832 62.4853 75.1126 62.252C75.5419 62.0093 76.0086 61.888 76.5126 61.888C77.3152 61.888 77.9592 62.14 78.4446 62.644C78.9299 63.1387 79.1726 63.904 79.1726 64.94V69H78.0106V65.066C78.0106 63.6193 77.4272 62.896 76.2606 62.896C75.6539 62.896 75.1452 63.1153 74.7346 63.554C74.3239 63.9833 74.1186 64.5993 74.1186 65.402V69H72.9426ZM81.6683 60.516C81.4349 60.516 81.2389 60.4413 81.0803 60.292C80.9309 60.1333 80.8563 59.9373 80.8563 59.704C80.8563 59.48 80.9309 59.2933 81.0803 59.144C81.2389 58.9947 81.4349 58.92 81.6683 58.92C81.8923 58.92 82.0836 58.9947 82.2423 59.144C82.4009 59.2933 82.4803 59.48 82.4803 59.704C82.4803 59.9373 82.4009 60.1333 82.2423 60.292C82.0836 60.4413 81.8923 60.516 81.6683 60.516ZM81.0803 69V62.056H82.2563V69H81.0803ZM86.9639 69.168C86.1332 69.168 85.4426 68.958 84.8919 68.538C84.3412 68.118 84.0192 67.5487 83.9259 66.83H85.1299C85.2046 67.194 85.3959 67.5113 85.7039 67.782C86.0212 68.0433 86.4459 68.174 86.9779 68.174C87.4726 68.174 87.8366 68.0713 88.0699 67.866C88.3032 67.6513 88.4199 67.3993 88.4199 67.11C88.4199 66.69 88.2659 66.41 87.9579 66.27C87.6592 66.13 87.2346 66.004 86.6839 65.892C86.3106 65.8173 85.9372 65.71 85.5639 65.57C85.1906 65.43 84.8779 65.234 84.6259 64.982C84.3739 64.7207 84.2479 64.38 84.2479 63.96C84.2479 63.3533 84.4719 62.8587 84.9199 62.476C85.3772 62.084 85.9932 61.888 86.7679 61.888C87.5052 61.888 88.1072 62.0747 88.5739 62.448C89.0499 62.812 89.3252 63.3347 89.3999 64.016H88.2379C88.1912 63.6613 88.0372 63.386 87.7759 63.19C87.5239 62.9847 87.1832 62.882 86.7539 62.882C86.3339 62.882 86.0072 62.9707 85.7739 63.148C85.5499 63.3253 85.4379 63.5587 85.4379 63.848C85.4379 64.128 85.5826 64.3473 85.8719 64.506C86.1706 64.6647 86.5719 64.8 87.0759 64.912C87.5052 65.0053 87.9112 65.122 88.2939 65.262C88.6859 65.3927 89.0032 65.5933 89.2459 65.864C89.4979 66.1253 89.6239 66.508 89.6239 67.012C89.6332 67.6373 89.3952 68.1553 88.9099 68.566C88.4339 68.9673 87.7852 69.168 86.9639 69.168ZM95.723 60.516C95.4896 60.516 95.2936 60.4413 95.135 60.292C94.9856 60.1333 94.911 59.9373 94.911 59.704C94.911 59.48 94.9856 59.2933 95.135 59.144C95.2936 58.9947 95.4896 58.92 95.723 58.92C95.947 58.92 96.1383 58.9947 96.297 59.144C96.4556 59.2933 96.535 59.48 96.535 59.704C96.535 59.9373 96.4556 60.1333 96.297 60.292C96.1383 60.4413 95.947 60.516 95.723 60.516ZM95.135 69V62.056H96.311V69H95.135ZM101.019 69.168C100.188 69.168 99.4972 68.958 98.9466 68.538C98.3959 68.118 98.0739 67.5487 97.9806 66.83H99.1846C99.2592 67.194 99.4506 67.5113 99.7586 67.782C100.076 68.0433 100.501 68.174 101.033 68.174C101.527 68.174 101.891 68.0713 102.125 67.866C102.358 67.6513 102.475 67.3993 102.475 67.11C102.475 66.69 102.321 66.41 102.013 66.27C101.714 66.13 101.289 66.004 100.739 65.892C100.365 65.8173 99.9919 65.71 99.6186 65.57C99.2452 65.43 98.9326 65.234 98.6806 64.982C98.4286 64.7207 98.3026 64.38 98.3026 63.96C98.3026 63.3533 98.5266 62.8587 98.9746 62.476C99.4319 62.084 100.048 61.888 100.823 61.888C101.56 61.888 102.162 62.0747 102.629 62.448C103.105 62.812 103.38 63.3347 103.455 64.016H102.293C102.246 63.6613 102.092 63.386 101.831 63.19C101.579 62.9847 101.238 62.882 100.809 62.882C100.389 62.882 100.062 62.9707 99.8286 63.148C99.6046 63.3253 99.4926 63.5587 99.4926 63.848C99.4926 64.128 99.6372 64.3473 99.9266 64.506C100.225 64.6647 100.627 64.8 101.131 64.912C101.56 65.0053 101.966 65.122 102.349 65.262C102.741 65.3927 103.058 65.5933 103.301 65.864C103.553 66.1253 103.679 66.508 103.679 67.012C103.688 67.6373 103.45 68.1553 102.965 68.566C102.489 68.9673 101.84 69.168 101.019 69.168ZM111.374 69.168C110.795 69.168 110.314 69.07 109.932 68.874C109.549 68.678 109.264 68.4167 109.078 68.09C108.891 67.7633 108.798 67.4087 108.798 67.026C108.798 66.3167 109.068 65.7707 109.61 65.388C110.151 65.0053 110.888 64.814 111.822 64.814H113.698V64.73C113.698 64.1233 113.539 63.666 113.222 63.358C112.904 63.0407 112.48 62.882 111.948 62.882C111.49 62.882 111.094 62.9987 110.758 63.232C110.431 63.456 110.226 63.7873 110.142 64.226H108.938C108.984 63.722 109.152 63.2973 109.442 62.952C109.74 62.6067 110.109 62.3453 110.548 62.168C110.986 61.9813 111.453 61.888 111.948 61.888C112.918 61.888 113.646 62.1493 114.132 62.672C114.626 63.1853 114.874 63.8713 114.874 64.73V69H113.824L113.754 67.754C113.558 68.146 113.268 68.482 112.886 68.762C112.512 69.0327 112.008 69.168 111.374 69.168ZM111.556 68.174C112.004 68.174 112.386 68.0573 112.704 67.824C113.03 67.5907 113.278 67.2873 113.446 66.914C113.614 66.5407 113.698 66.1487 113.698 65.738V65.724H111.92C111.229 65.724 110.739 65.8453 110.45 66.088C110.17 66.3213 110.03 66.6153 110.03 66.97C110.03 67.334 110.16 67.628 110.422 67.852C110.692 68.0667 111.07 68.174 111.556 68.174ZM123.003 69.168C122.172 69.168 121.482 68.958 120.931 68.538C120.38 68.118 120.058 67.5487 119.965 66.83H121.169C121.244 67.194 121.435 67.5113 121.743 67.782C122.06 68.0433 122.485 68.174 123.017 68.174C123.512 68.174 123.876 68.0713 124.109 67.866C124.342 67.6513 124.459 67.3993 124.459 67.11C124.459 66.69 124.305 66.41 123.997 66.27C123.698 66.13 123.274 66.004 122.723 65.892C122.35 65.8173 121.976 65.71 121.603 65.57C121.23 65.43 120.917 65.234 120.665 64.982C120.413 64.7207 120.287 64.38 120.287 63.96C120.287 63.3533 120.511 62.8587 120.959 62.476C121.416 62.084 122.032 61.888 122.807 61.888C123.544 61.888 124.146 62.0747 124.613 62.448C125.089 62.812 125.364 63.3347 125.439 64.016H124.277C124.23 63.6613 124.076 63.386 123.815 63.19C123.563 62.9847 123.222 62.882 122.793 62.882C122.373 62.882 122.046 62.9707 121.813 63.148C121.589 63.3253 121.477 63.5587 121.477 63.848C121.477 64.128 121.622 64.3473 121.911 64.506C122.21 64.6647 122.611 64.8 123.115 64.912C123.544 65.0053 123.95 65.122 124.333 65.262C124.725 65.3927 125.042 65.5933 125.285 65.864C125.537 66.1253 125.663 66.508 125.663 67.012C125.672 67.6373 125.434 68.1553 124.949 68.566C124.473 68.9673 123.824 69.168 123.003 69.168ZM129.653 69.168C129.074 69.168 128.594 69.07 128.211 68.874C127.828 68.678 127.544 68.4167 127.357 68.09C127.17 67.7633 127.077 67.4087 127.077 67.026C127.077 66.3167 127.348 65.7707 127.889 65.388C128.43 65.0053 129.168 64.814 130.101 64.814H131.977V64.73C131.977 64.1233 131.818 63.666 131.501 63.358C131.184 63.0407 130.759 62.882 130.227 62.882C129.77 62.882 129.373 62.9987 129.037 63.232C128.71 63.456 128.505 63.7873 128.421 64.226H127.217C127.264 63.722 127.432 63.2973 127.721 62.952C128.02 62.6067 128.388 62.3453 128.827 62.168C129.266 61.9813 129.732 61.888 130.227 61.888C131.198 61.888 131.926 62.1493 132.411 62.672C132.906 63.1853 133.153 63.8713 133.153 64.73V69H132.103L132.033 67.754C131.837 68.146 131.548 68.482 131.165 68.762C130.792 69.0327 130.288 69.168 129.653 69.168ZM129.835 68.174C130.283 68.174 130.666 68.0573 130.983 67.824C131.31 67.5907 131.557 67.2873 131.725 66.914C131.893 66.5407 131.977 66.1487 131.977 65.738V65.724H130.199C129.508 65.724 129.018 65.8453 128.729 66.088C128.449 66.3213 128.309 66.6153 128.309 66.97C128.309 67.334 128.44 67.628 128.701 67.852C128.972 68.0667 129.35 68.174 129.835 68.174ZM134.917 69V62.056H135.981L136.065 63.064C136.289 62.6907 136.588 62.4013 136.961 62.196C137.335 61.9907 137.755 61.888 138.221 61.888C138.772 61.888 139.243 62 139.635 62.224C140.037 62.448 140.345 62.7887 140.559 63.246C140.802 62.826 141.133 62.4947 141.553 62.252C141.983 62.0093 142.445 61.888 142.939 61.888C143.77 61.888 144.433 62.14 144.927 62.644C145.422 63.1387 145.669 63.904 145.669 64.94V69H144.507V65.066C144.507 64.3473 144.363 63.806 144.073 63.442C143.784 63.078 143.369 62.896 142.827 62.896C142.267 62.896 141.801 63.1153 141.427 63.554C141.063 63.9833 140.881 64.5993 140.881 65.402V69H139.705V65.066C139.705 64.3473 139.561 63.806 139.271 63.442C138.982 63.078 138.567 62.896 138.025 62.896C137.475 62.896 137.013 63.1153 136.639 63.554C136.275 63.9833 136.093 64.5993 136.093 65.402V69H134.917ZM147.441 72.08V62.056H148.505L148.617 63.204C148.841 62.868 149.158 62.5647 149.569 62.294C149.989 62.0233 150.521 61.888 151.165 61.888C151.855 61.888 152.457 62.0467 152.971 62.364C153.484 62.6813 153.881 63.1153 154.161 63.666C154.45 64.2167 154.595 64.842 154.595 65.542C154.595 66.242 154.45 66.8673 154.161 67.418C153.881 67.9593 153.479 68.3887 152.957 68.706C152.443 69.014 151.841 69.168 151.151 69.168C150.581 69.168 150.073 69.0513 149.625 68.818C149.186 68.5847 148.85 68.258 148.617 67.838V72.08H147.441ZM151.025 68.146C151.491 68.146 151.902 68.0387 152.257 67.824C152.611 67.6 152.891 67.292 153.097 66.9C153.302 66.508 153.405 66.0507 153.405 65.528C153.405 65.0053 153.302 64.548 153.097 64.156C152.891 63.764 152.611 63.4607 152.257 63.246C151.902 63.022 151.491 62.91 151.025 62.91C150.558 62.91 150.147 63.022 149.793 63.246C149.438 63.4607 149.158 63.764 148.953 64.156C148.747 64.548 148.645 65.0053 148.645 65.528C148.645 66.0507 148.747 66.508 148.953 66.9C149.158 67.292 149.438 67.6 149.793 67.824C150.147 68.0387 150.558 68.146 151.025 68.146ZM156.232 69V58.92H157.408V69H156.232ZM162.457 69.168C161.794 69.168 161.206 69.0187 160.693 68.72C160.18 68.412 159.774 67.9873 159.475 67.446C159.186 66.9047 159.041 66.2653 159.041 65.528C159.041 64.8 159.186 64.1653 159.475 63.624C159.764 63.0733 160.166 62.6487 160.679 62.35C161.202 62.042 161.804 61.888 162.485 61.888C163.157 61.888 163.736 62.042 164.221 62.35C164.716 62.6487 165.094 63.0453 165.355 63.54C165.616 64.0347 165.747 64.5667 165.747 65.136C165.747 65.2387 165.742 65.3413 165.733 65.444C165.733 65.5467 165.733 65.6633 165.733 65.794H160.203C160.231 66.326 160.352 66.7693 160.567 67.124C160.791 67.4693 161.066 67.7307 161.393 67.908C161.729 68.0853 162.084 68.174 162.457 68.174C162.942 68.174 163.348 68.062 163.675 67.838C164.002 67.614 164.24 67.3107 164.389 66.928H165.551C165.364 67.572 165.005 68.1087 164.473 68.538C163.95 68.958 163.278 69.168 162.457 69.168ZM162.457 62.882C161.897 62.882 161.398 63.0547 160.959 63.4C160.53 63.736 160.282 64.2307 160.217 64.884H164.585C164.557 64.2587 164.342 63.7687 163.941 63.414C163.54 63.0593 163.045 62.882 162.457 62.882ZM173.755 69C173.12 69 172.621 68.846 172.257 68.538C171.893 68.23 171.711 67.6747 171.711 66.872V63.05H170.507V62.056H171.711L171.865 60.39H172.887V62.056H174.931V63.05H172.887V66.872C172.887 67.3107 172.976 67.6093 173.153 67.768C173.33 67.9173 173.643 67.992 174.091 67.992H174.819V69H173.755ZM179.356 69.168C178.693 69.168 178.105 69.0187 177.592 68.72C177.078 68.412 176.672 67.9873 176.374 67.446C176.084 66.9047 175.94 66.2653 175.94 65.528C175.94 64.8 176.084 64.1653 176.374 63.624C176.663 63.0733 177.064 62.6487 177.578 62.35C178.1 62.042 178.702 61.888 179.384 61.888C180.056 61.888 180.634 62.042 181.12 62.35C181.614 62.6487 181.992 63.0453 182.254 63.54C182.515 64.0347 182.646 64.5667 182.646 65.136C182.646 65.2387 182.641 65.3413 182.632 65.444C182.632 65.5467 182.632 65.6633 182.632 65.794H177.102C177.13 66.326 177.251 66.7693 177.466 67.124C177.69 67.4693 177.965 67.7307 178.292 67.908C178.628 68.0853 178.982 68.174 179.356 68.174C179.841 68.174 180.247 68.062 180.574 67.838C180.9 67.614 181.138 67.3107 181.288 66.928H182.45C182.263 67.572 181.904 68.1087 181.372 68.538C180.849 68.958 180.177 69.168 179.356 69.168ZM179.356 62.882C178.796 62.882 178.296 63.0547 177.858 63.4C177.428 63.736 177.181 64.2307 177.116 64.884H181.484C181.456 64.2587 181.241 63.7687 180.84 63.414C180.438 63.0593 179.944 62.882 179.356 62.882ZM183.176 69L185.584 65.528L183.176 62.056H184.45L186.396 64.926L188.356 62.056H189.616L187.208 65.528L189.616 69H188.356L186.396 66.13L184.45 69H183.176ZM193.593 69C192.958 69 192.459 68.846 192.095 68.538C191.731 68.23 191.549 67.6747 191.549 66.872V63.05H190.345V62.056H191.549L191.703 60.39H192.725V62.056H194.769V63.05H192.725V66.872C192.725 67.3107 192.813 67.6093 192.991 67.768C193.168 67.9173 193.481 67.992 193.929 67.992H194.657V69H193.593ZM25.966 89V82.056H27.03L27.114 83.064C27.338 82.6907 27.6367 82.4013 28.01 82.196C28.3833 81.9907 28.8033 81.888 29.27 81.888C29.8207 81.888 30.292 82 30.684 82.224C31.0853 82.448 31.3933 82.7887 31.608 83.246C31.8507 82.826 32.182 82.4947 32.602 82.252C33.0313 82.0093 33.4933 81.888 33.988 81.888C34.8187 81.888 35.4813 82.14 35.976 82.644C36.4707 83.1387 36.718 83.904 36.718 84.94V89H35.556V85.066C35.556 84.3473 35.4113 83.806 35.122 83.442C34.8327 83.078 34.4173 82.896 33.876 82.896C33.316 82.896 32.8493 83.1153 32.476 83.554C32.112 83.9833 31.93 84.5993 31.93 85.402V89H30.754V85.066C30.754 84.3473 30.6093 83.806 30.32 83.442C30.0307 83.078 29.6153 82.896 29.074 82.896C28.5233 82.896 28.0613 83.1153 27.688 83.554C27.324 83.9833 27.142 84.5993 27.142 85.402V89H25.966ZM41.6534 89.168C41.0001 89.168 40.4121 89.0187 39.8894 88.72C39.3668 88.4213 38.9514 88.0013 38.6434 87.46C38.3448 86.9093 38.1954 86.2653 38.1954 85.528C38.1954 84.7907 38.3494 84.1513 38.6574 83.61C38.9654 83.0593 39.3808 82.6347 39.9034 82.336C40.4354 82.0373 41.0281 81.888 41.6814 81.888C42.3348 81.888 42.9228 82.0373 43.4454 82.336C43.9681 82.6347 44.3788 83.0593 44.6774 83.61C44.9854 84.1513 45.1394 84.7907 45.1394 85.528C45.1394 86.2653 44.9854 86.9093 44.6774 87.46C44.3694 88.0013 43.9494 88.4213 43.4174 88.72C42.8948 89.0187 42.3068 89.168 41.6534 89.168ZM41.6534 88.16C42.0548 88.16 42.4281 88.062 42.7734 87.866C43.1188 87.67 43.3988 87.376 43.6134 86.984C43.8281 86.592 43.9354 86.1067 43.9354 85.528C43.9354 84.9493 43.8281 84.464 43.6134 84.072C43.4081 83.68 43.1328 83.386 42.7874 83.19C42.4421 82.994 42.0734 82.896 41.6814 82.896C41.2801 82.896 40.9068 82.994 40.5614 83.19C40.2161 83.386 39.9361 83.68 39.7214 84.072C39.5068 84.464 39.3994 84.9493 39.3994 85.528C39.3994 86.1067 39.5068 86.592 39.7214 86.984C39.9361 87.376 40.2114 87.67 40.5474 87.866C40.8928 88.062 41.2614 88.16 41.6534 88.16ZM46.7746 89V82.056H47.8386L47.9366 83.386C48.1513 82.9287 48.4779 82.5647 48.9166 82.294C49.3553 82.0233 49.8966 81.888 50.5406 81.888V83.12H50.2186C49.8079 83.12 49.4299 83.1947 49.0846 83.344C48.7393 83.484 48.4639 83.7267 48.2586 84.072C48.0533 84.4173 47.9506 84.8933 47.9506 85.5V89H46.7746ZM54.7228 89.168C54.0601 89.168 53.4721 89.0187 52.9588 88.72C52.4454 88.412 52.0394 87.9873 51.7408 87.446C51.4514 86.9047 51.3068 86.2653 51.3068 85.528C51.3068 84.8 51.4514 84.1653 51.7408 83.624C52.0301 83.0733 52.4314 82.6487 52.9448 82.35C53.4674 82.042 54.0694 81.888 54.7508 81.888C55.4228 81.888 56.0014 82.042 56.4868 82.35C56.9814 82.6487 57.3594 83.0453 57.6208 83.54C57.8821 84.0347 58.0128 84.5667 58.0128 85.136C58.0128 85.2387 58.0081 85.3413 57.9988 85.444C57.9988 85.5467 57.9988 85.6633 57.9988 85.794H52.4688C52.4968 86.326 52.6181 86.7693 52.8328 87.124C53.0568 87.4693 53.3321 87.7307 53.6588 87.908C53.9948 88.0853 54.3494 88.174 54.7228 88.174C55.2081 88.174 55.6141 88.062 55.9408 87.838C56.2674 87.614 56.5054 87.3107 56.6548 86.928H57.8168C57.6301 87.572 57.2708 88.1087 56.7388 88.538C56.2161 88.958 55.5441 89.168 54.7228 89.168ZM54.7228 82.882C54.1628 82.882 53.6634 83.0547 53.2248 83.4C52.7954 83.736 52.5481 84.2307 52.4828 84.884H56.8508C56.8228 84.2587 56.6081 83.7687 56.2068 83.414C55.8054 83.0593 55.3108 82.882 54.7228 82.882ZM66.4685 89.168C65.8059 89.168 65.2085 89.0187 64.6765 88.72C64.1539 88.412 63.7385 87.9873 63.4305 87.446C63.1319 86.8953 62.9825 86.256 62.9825 85.528C62.9825 84.8 63.1319 84.1653 63.4305 83.624C63.7385 83.0733 64.1539 82.6487 64.6765 82.35C65.2085 82.042 65.8059 81.888 66.4685 81.888C67.2899 81.888 67.9805 82.1027 68.5405 82.532C69.1099 82.9613 69.4692 83.5353 69.6185 84.254H68.4145C68.3212 83.8247 68.0925 83.4933 67.7285 83.26C67.3645 83.0173 66.9399 82.896 66.4545 82.896C66.0625 82.896 65.6939 82.994 65.3485 83.19C65.0032 83.386 64.7232 83.68 64.5085 84.072C64.2939 84.464 64.1865 84.9493 64.1865 85.528C64.1865 86.1067 64.2939 86.592 64.5085 86.984C64.7232 87.376 65.0032 87.6747 65.3485 87.88C65.6939 88.076 66.0625 88.174 66.4545 88.174C66.9399 88.174 67.3645 88.0573 67.7285 87.824C68.0925 87.5813 68.3212 87.2407 68.4145 86.802H69.6185C69.4785 87.502 69.1239 88.0713 68.5545 88.51C67.9852 88.9487 67.2899 89.168 66.4685 89.168ZM73.5709 89.168C72.9923 89.168 72.5116 89.07 72.1289 88.874C71.7463 88.678 71.4616 88.4167 71.2749 88.09C71.0883 87.7633 70.9949 87.4087 70.9949 87.026C70.9949 86.3167 71.2656 85.7707 71.8069 85.388C72.3483 85.0053 73.0856 84.814 74.0189 84.814H75.8949V84.73C75.8949 84.1233 75.7363 83.666 75.4189 83.358C75.1016 83.0407 74.6769 82.882 74.1449 82.882C73.6876 82.882 73.2909 82.9987 72.9549 83.232C72.6283 83.456 72.4229 83.7873 72.3389 84.226H71.1349C71.1816 83.722 71.3496 83.2973 71.6389 82.952C71.9376 82.6067 72.3063 82.3453 72.7449 82.168C73.1836 81.9813 73.6503 81.888 74.1449 81.888C75.1156 81.888 75.8436 82.1493 76.3289 82.672C76.8236 83.1853 77.0709 83.8713 77.0709 84.73V89H76.0209L75.9509 87.754C75.7549 88.146 75.4656 88.482 75.0829 88.762C74.7096 89.0327 74.2056 89.168 73.5709 89.168ZM73.7529 88.174C74.2009 88.174 74.5836 88.0573 74.9009 87.824C75.2276 87.5907 75.4749 87.2873 75.6429 86.914C75.8109 86.5407 75.8949 86.1487 75.8949 85.738V85.724H74.1169C73.4263 85.724 72.9363 85.8453 72.6469 86.088C72.3669 86.3213 72.2269 86.6153 72.2269 86.97C72.2269 87.334 72.3576 87.628 72.6189 87.852C72.8896 88.0667 73.2676 88.174 73.7529 88.174ZM81.3877 89C80.7531 89 80.2537 88.846 79.8897 88.538C79.5257 88.23 79.3437 87.6747 79.3437 86.872V83.05H78.1397V82.056H79.3437L79.4977 80.39H80.5197V82.056H82.5637V83.05H80.5197V86.872C80.5197 87.3107 80.6084 87.6093 80.7857 87.768C80.9631 87.9173 81.2757 87.992 81.7237 87.992H82.4517V89H81.3877ZM87.0584 89.168C86.3957 89.168 85.7984 89.0187 85.2664 88.72C84.7437 88.412 84.3284 87.9873 84.0204 87.446C83.7217 86.8953 83.5724 86.256 83.5724 85.528C83.5724 84.8 83.7217 84.1653 84.0204 83.624C84.3284 83.0733 84.7437 82.6487 85.2664 82.35C85.7984 82.042 86.3957 81.888 87.0584 81.888C87.8797 81.888 88.5704 82.1027 89.1304 82.532C89.6997 82.9613 90.0591 83.5353 90.2084 84.254H89.0044C88.9111 83.8247 88.6824 83.4933 88.3184 83.26C87.9544 83.0173 87.5297 82.896 87.0444 82.896C86.6524 82.896 86.2837 82.994 85.9384 83.19C85.5931 83.386 85.3131 83.68 85.0984 84.072C84.8837 84.464 84.7764 84.9493 84.7764 85.528C84.7764 86.1067 84.8837 86.592 85.0984 86.984C85.3131 87.376 85.5931 87.6747 85.9384 87.88C86.2837 88.076 86.6524 88.174 87.0444 88.174C87.5297 88.174 87.9544 88.0573 88.3184 87.824C88.6824 87.5813 88.9111 87.2407 89.0044 86.802H90.2084C90.0684 87.502 89.7137 88.0713 89.1444 88.51C88.5751 88.9487 87.8797 89.168 87.0584 89.168ZM91.8508 89V78.92H93.0268V83.246C93.2601 82.8167 93.5914 82.4853 94.0208 82.252C94.4501 82.0093 94.9168 81.888 95.4208 81.888C96.2234 81.888 96.8674 82.14 97.3528 82.644C97.8381 83.1387 98.0808 83.904 98.0808 84.94V89H96.9188V85.066C96.9188 83.6193 96.3354 82.896 95.1688 82.896C94.5621 82.896 94.0534 83.1153 93.6428 83.554C93.2321 83.9833 93.0268 84.5993 93.0268 85.402V89H91.8508ZM100.413 92.08L102.135 88.328H101.729L98.9714 82.056H100.245L102.541 87.46L104.977 82.056H106.195L101.645 92.08H100.413ZM113.886 89C113.251 89 112.752 88.846 112.388 88.538C112.024 88.23 111.842 87.6747 111.842 86.872V83.05H110.638V82.056H111.842L111.996 80.39H113.018V82.056H115.062V83.05H113.018V86.872C113.018 87.3107 113.106 87.6093 113.284 87.768C113.461 87.9173 113.774 87.992 114.222 87.992H114.95V89H113.886ZM116.556 89V78.92H117.732V83.246C117.965 82.8167 118.297 82.4853 118.726 82.252C119.155 82.0093 119.622 81.888 120.126 81.888C120.929 81.888 121.573 82.14 122.058 82.644C122.543 83.1387 122.786 83.904 122.786 84.94V89H121.624V85.066C121.624 83.6193 121.041 82.896 119.874 82.896C119.267 82.896 118.759 83.1153 118.348 83.554C117.937 83.9833 117.732 84.5993 117.732 85.402V89H116.556ZM126.878 89.168C126.299 89.168 125.818 89.07 125.436 88.874C125.053 88.678 124.768 88.4167 124.582 88.09C124.395 87.7633 124.302 87.4087 124.302 87.026C124.302 86.3167 124.572 85.7707 125.114 85.388C125.655 85.0053 126.392 84.814 127.326 84.814H129.202V84.73C129.202 84.1233 129.043 83.666 128.726 83.358C128.408 83.0407 127.984 82.882 127.452 82.882C126.994 82.882 126.598 82.9987 126.262 83.232C125.935 83.456 125.73 83.7873 125.646 84.226H124.442C124.488 83.722 124.656 83.2973 124.946 82.952C125.244 82.6067 125.613 82.3453 126.052 82.168C126.49 81.9813 126.957 81.888 127.452 81.888C128.422 81.888 129.15 82.1493 129.636 82.672C130.13 83.1853 130.378 83.8713 130.378 84.73V89H129.328L129.258 87.754C129.062 88.146 128.772 88.482 128.39 88.762C128.016 89.0327 127.512 89.168 126.878 89.168ZM127.06 88.174C127.508 88.174 127.89 88.0573 128.208 87.824C128.534 87.5907 128.782 87.2873 128.95 86.914C129.118 86.5407 129.202 86.1487 129.202 85.738V85.724H127.424C126.733 85.724 126.243 85.8453 125.954 86.088C125.674 86.3213 125.534 86.6153 125.534 86.97C125.534 87.334 125.664 87.628 125.926 87.852C126.196 88.0667 126.574 88.174 127.06 88.174ZM132.142 89V82.056H133.206L133.276 83.302C133.5 82.8633 133.822 82.518 134.242 82.266C134.662 82.014 135.138 81.888 135.67 81.888C136.491 81.888 137.144 82.14 137.63 82.644C138.124 83.1387 138.372 83.904 138.372 84.94V89H137.196V85.066C137.196 83.6193 136.598 82.896 135.404 82.896C134.806 82.896 134.307 83.1153 133.906 83.554C133.514 83.9833 133.318 84.5993 133.318 85.402V89H132.142ZM146.603 89C145.968 89 145.469 88.846 145.105 88.538C144.741 88.23 144.559 87.6747 144.559 86.872V83.05H143.355V82.056H144.559L144.713 80.39H145.735V82.056H147.779V83.05H145.735V86.872C145.735 87.3107 145.823 87.6093 146.001 87.768C146.178 87.9173 146.491 87.992 146.939 87.992H147.667V89H146.603ZM149.273 89V78.92H150.449V83.246C150.682 82.8167 151.013 82.4853 151.443 82.252C151.872 82.0093 152.339 81.888 152.843 81.888C153.645 81.888 154.289 82.14 154.775 82.644C155.26 83.1387 155.503 83.904 155.503 84.94V89H154.341V85.066C154.341 83.6193 153.757 82.896 152.591 82.896C151.984 82.896 151.475 83.1153 151.065 83.554C150.654 83.9833 150.449 84.5993 150.449 85.402V89H149.273ZM160.406 89.168C159.744 89.168 159.156 89.0187 158.642 88.72C158.129 88.412 157.723 87.9873 157.424 87.446C157.135 86.9047 156.99 86.2653 156.99 85.528C156.99 84.8 157.135 84.1653 157.424 83.624C157.714 83.0733 158.115 82.6487 158.628 82.35C159.151 82.042 159.753 81.888 160.434 81.888C161.106 81.888 161.685 82.042 162.17 82.35C162.665 82.6487 163.043 83.0453 163.304 83.54C163.566 84.0347 163.696 84.5667 163.696 85.136C163.696 85.2387 163.692 85.3413 163.682 85.444C163.682 85.5467 163.682 85.6633 163.682 85.794H158.152C158.18 86.326 158.302 86.7693 158.516 87.124C158.74 87.4693 159.016 87.7307 159.342 87.908C159.678 88.0853 160.033 88.174 160.406 88.174C160.892 88.174 161.298 88.062 161.624 87.838C161.951 87.614 162.189 87.3107 162.338 86.928H163.5C163.314 87.572 162.954 88.1087 162.422 88.538C161.9 88.958 161.228 89.168 160.406 89.168ZM160.406 82.882C159.846 82.882 159.347 83.0547 158.908 83.4C158.479 83.736 158.232 84.2307 158.166 84.884H162.534C162.506 84.2587 162.292 83.7687 161.89 83.414C161.489 83.0593 160.994 82.882 160.406 82.882ZM171.704 89C171.069 89 170.57 88.846 170.206 88.538C169.842 88.23 169.66 87.6747 169.66 86.872V83.05H168.456V82.056H169.66L169.814 80.39H170.836V82.056H172.88V83.05H170.836V86.872C170.836 87.3107 170.925 87.6093 171.102 87.768C171.279 87.9173 171.592 87.992 172.04 87.992H172.768V89H171.704ZM175.13 92.08L176.852 88.328H176.446L173.688 82.056H174.962L177.258 87.46L179.694 82.056H180.912L176.362 92.08H175.13ZM182.154 92.08V82.056H183.218L183.33 83.204C183.554 82.868 183.871 82.5647 184.282 82.294C184.702 82.0233 185.234 81.888 185.878 81.888C186.568 81.888 187.17 82.0467 187.684 82.364C188.197 82.6813 188.594 83.1153 188.874 83.666C189.163 84.2167 189.308 84.842 189.308 85.542C189.308 86.242 189.163 86.8673 188.874 87.418C188.594 87.9593 188.192 88.3887 187.67 88.706C187.156 89.014 186.554 89.168 185.864 89.168C185.294 89.168 184.786 89.0513 184.338 88.818C183.899 88.5847 183.563 88.258 183.33 87.838V92.08H182.154ZM185.738 88.146C186.204 88.146 186.615 88.0387 186.97 87.824C187.324 87.6 187.604 87.292 187.81 86.9C188.015 86.508 188.118 86.0507 188.118 85.528C188.118 85.0053 188.015 84.548 187.81 84.156C187.604 83.764 187.324 83.4607 186.97 83.246C186.615 83.022 186.204 82.91 185.738 82.91C185.271 82.91 184.86 83.022 184.506 83.246C184.151 83.4607 183.871 83.764 183.666 84.156C183.46 84.548 183.358 85.0053 183.358 85.528C183.358 86.0507 183.46 86.508 183.666 86.9C183.871 87.292 184.151 87.6 184.506 87.824C184.86 88.0387 185.271 88.146 185.738 88.146ZM191.659 80.516C191.425 80.516 191.229 80.4413 191.071 80.292C190.921 80.1333 190.847 79.9373 190.847 79.704C190.847 79.48 190.921 79.2933 191.071 79.144C191.229 78.9947 191.425 78.92 191.659 78.92C191.883 78.92 192.074 78.9947 192.233 79.144C192.391 79.2933 192.471 79.48 192.471 79.704C192.471 79.9373 192.391 80.1333 192.233 80.292C192.074 80.4413 191.883 80.516 191.659 80.516ZM191.071 89V82.056H192.247V89H191.071ZM197.486 89.168C196.823 89.168 196.226 89.0187 195.694 88.72C195.171 88.412 194.756 87.9873 194.448 87.446C194.149 86.8953 194 86.256 194 85.528C194 84.8 194.149 84.1653 194.448 83.624C194.756 83.0733 195.171 82.6487 195.694 82.35C196.226 82.042 196.823 81.888 197.486 81.888C198.307 81.888 198.998 82.1027 199.558 82.532C200.127 82.9613 200.487 83.5353 200.636 84.254H199.432C199.339 83.8247 199.11 83.4933 198.746 83.26C198.382 83.0173 197.957 82.896 197.472 82.896C197.08 82.896 196.711 82.994 196.366 83.19C196.021 83.386 195.741 83.68 195.526 84.072C195.311 84.464 195.204 84.9493 195.204 85.528C195.204 86.1067 195.311 86.592 195.526 86.984C195.741 87.376 196.021 87.6747 196.366 87.88C196.711 88.076 197.08 88.174 197.472 88.174C197.957 88.174 198.382 88.0573 198.746 87.824C199.11 87.5813 199.339 87.2407 199.432 86.802H200.636C200.496 87.502 200.141 88.0713 199.572 88.51C199.003 88.9487 198.307 89.168 197.486 89.168ZM204.589 89.168C204.01 89.168 203.529 89.07 203.147 88.874C202.764 88.678 202.479 88.4167 202.293 88.09C202.106 87.7633 202.013 87.4087 202.013 87.026C202.013 86.3167 202.283 85.7707 202.825 85.388C203.366 85.0053 204.103 84.814 205.037 84.814H206.913V84.73C206.913 84.1233 206.754 83.666 206.437 83.358C206.119 83.0407 205.695 82.882 205.163 82.882C204.705 82.882 204.309 82.9987 203.973 83.232C203.646 83.456 203.441 83.7873 203.357 84.226H202.153C202.199 83.722 202.367 83.2973 202.657 82.952C202.955 82.6067 203.324 82.3453 203.763 82.168C204.201 81.9813 204.668 81.888 205.163 81.888C206.133 81.888 206.861 82.1493 207.347 82.672C207.841 83.1853 208.089 83.8713 208.089 84.73V89H207.039L206.969 87.754C206.773 88.146 206.483 88.482 206.101 88.762C205.727 89.0327 205.223 89.168 204.589 89.168ZM204.771 88.174C205.219 88.174 205.601 88.0573 205.919 87.824C206.245 87.5907 206.493 87.2873 206.661 86.914C206.829 86.5407 206.913 86.1487 206.913 85.738V85.724H205.135C204.444 85.724 203.954 85.8453 203.665 86.088C203.385 86.3213 203.245 86.6153 203.245 86.97C203.245 87.334 203.375 87.628 203.637 87.852C203.907 88.0667 204.285 88.174 204.771 88.174ZM209.853 89V78.92H211.029V89H209.853ZM25.966 109V98.92H27.142V109H25.966ZM32.2335 109.168C31.5802 109.168 30.9922 109.019 30.4695 108.72C29.9468 108.421 29.5315 108.001 29.2235 107.46C28.9248 106.909 28.7755 106.265 28.7755 105.528C28.7755 104.791 28.9295 104.151 29.2375 103.61C29.5455 103.059 29.9608 102.635 30.4835 102.336C31.0155 102.037 31.6082 101.888 32.2615 101.888C32.9148 101.888 33.5028 102.037 34.0255 102.336C34.5482 102.635 34.9588 103.059 35.2575 103.61C35.5655 104.151 35.7195 104.791 35.7195 105.528C35.7195 106.265 35.5655 106.909 35.2575 107.46C34.9495 108.001 34.5295 108.421 33.9975 108.72C33.4748 109.019 32.8868 109.168 32.2335 109.168ZM32.2335 108.16C32.6348 108.16 33.0082 108.062 33.3535 107.866C33.6988 107.67 33.9788 107.376 34.1935 106.984C34.4082 106.592 34.5155 106.107 34.5155 105.528C34.5155 104.949 34.4082 104.464 34.1935 104.072C33.9882 103.68 33.7128 103.386 33.3675 103.19C33.0222 102.994 32.6535 102.896 32.2615 102.896C31.8602 102.896 31.4868 102.994 31.1415 103.19C30.7962 103.386 30.5162 103.68 30.3015 104.072C30.0868 104.464 29.9795 104.949 29.9795 105.528C29.9795 106.107 30.0868 106.592 30.3015 106.984C30.5162 107.376 30.7915 107.67 31.1275 107.866C31.4728 108.062 31.8415 108.16 32.2335 108.16ZM37.3547 109V102.056H38.4187L38.5167 103.386C38.7313 102.929 39.058 102.565 39.4967 102.294C39.9353 102.023 40.4767 101.888 41.1207 101.888V103.12H40.7987C40.388 103.12 40.01 103.195 39.6647 103.344C39.3193 103.484 39.044 103.727 38.8387 104.072C38.6333 104.417 38.5307 104.893 38.5307 105.5V109H37.3547ZM45.3028 109.168C44.6402 109.168 44.0522 109.019 43.5388 108.72C43.0255 108.412 42.6195 107.987 42.3208 107.446C42.0315 106.905 41.8868 106.265 41.8868 105.528C41.8868 104.8 42.0315 104.165 42.3208 103.624C42.6102 103.073 43.0115 102.649 43.5248 102.35C44.0475 102.042 44.6495 101.888 45.3308 101.888C46.0028 101.888 46.5815 102.042 47.0668 102.35C47.5615 102.649 47.9395 103.045 48.2008 103.54C48.4622 104.035 48.5928 104.567 48.5928 105.136C48.5928 105.239 48.5882 105.341 48.5788 105.444C48.5788 105.547 48.5788 105.663 48.5788 105.794H43.0488C43.0768 106.326 43.1982 106.769 43.4128 107.124C43.6368 107.469 43.9122 107.731 44.2388 107.908C44.5748 108.085 44.9295 108.174 45.3028 108.174C45.7882 108.174 46.1942 108.062 46.5208 107.838C46.8475 107.614 47.0855 107.311 47.2348 106.928H48.3968C48.2102 107.572 47.8508 108.109 47.3188 108.538C46.7962 108.958 46.1242 109.168 45.3028 109.168ZM45.3028 102.882C44.7428 102.882 44.2435 103.055 43.8048 103.4C43.3755 103.736 43.1282 104.231 43.0628 104.884H47.4308C47.4028 104.259 47.1882 103.769 46.7868 103.414C46.3855 103.059 45.8908 102.882 45.3028 102.882ZM50.1515 109V102.056H51.2155L51.2995 103.064C51.5235 102.691 51.8222 102.401 52.1955 102.196C52.5689 101.991 52.9889 101.888 53.4555 101.888C54.0062 101.888 54.4775 102 54.8695 102.224C55.2709 102.448 55.5789 102.789 55.7935 103.246C56.0362 102.826 56.3675 102.495 56.7875 102.252C57.2169 102.009 57.6789 101.888 58.1735 101.888C59.0042 101.888 59.6669 102.14 60.1615 102.644C60.6562 103.139 60.9035 103.904 60.9035 104.94V109H59.7415V105.066C59.7415 104.347 59.5969 103.806 59.3075 103.442C59.0182 103.078 58.6029 102.896 58.0615 102.896C57.5015 102.896 57.0349 103.115 56.6615 103.554C56.2975 103.983 56.1155 104.599 56.1155 105.402V109H54.9395V105.066C54.9395 104.347 54.7949 103.806 54.5055 103.442C54.2162 103.078 53.8009 102.896 53.2595 102.896C52.7089 102.896 52.2469 103.115 51.8735 103.554C51.5095 103.983 51.3275 104.599 51.3275 105.402V109H50.1515ZM67.0941 100.516C66.8607 100.516 66.6647 100.441 66.5061 100.292C66.3567 100.133 66.2821 99.9373 66.2821 99.704C66.2821 99.48 66.3567 99.2933 66.5061 99.144C66.6647 98.9947 66.8607 98.92 67.0941 98.92C67.3181 98.92 67.5094 98.9947 67.6681 99.144C67.8267 99.2933 67.9061 99.48 67.9061 99.704C67.9061 99.9373 67.8267 100.133 67.6681 100.292C67.5094 100.441 67.3181 100.516 67.0941 100.516ZM66.5061 109V102.056H67.6821V109H66.5061ZM69.7297 112.08V102.056H70.7937L70.9057 103.204C71.1297 102.868 71.447 102.565 71.8577 102.294C72.2777 102.023 72.8097 101.888 73.4537 101.888C74.1443 101.888 74.7463 102.047 75.2597 102.364C75.773 102.681 76.1697 103.115 76.4497 103.666C76.739 104.217 76.8837 104.842 76.8837 105.542C76.8837 106.242 76.739 106.867 76.4497 107.418C76.1697 107.959 75.7683 108.389 75.2457 108.706C74.7323 109.014 74.1303 109.168 73.4397 109.168C72.8703 109.168 72.3617 109.051 71.9137 108.818C71.475 108.585 71.139 108.258 70.9057 107.838V112.08H69.7297ZM73.3137 108.146C73.7803 108.146 74.191 108.039 74.5457 107.824C74.9003 107.6 75.1803 107.292 75.3857 106.9C75.591 106.508 75.6937 106.051 75.6937 105.528C75.6937 105.005 75.591 104.548 75.3857 104.156C75.1803 103.764 74.9003 103.461 74.5457 103.246C74.191 103.022 73.7803 102.91 73.3137 102.91C72.847 102.91 72.4363 103.022 72.0817 103.246C71.727 103.461 71.447 103.764 71.2417 104.156C71.0363 104.548 70.9337 105.005 70.9337 105.528C70.9337 106.051 71.0363 106.508 71.2417 106.9C71.447 107.292 71.727 107.6 72.0817 107.824C72.4363 108.039 72.847 108.146 73.3137 108.146ZM81.1807 109.168C80.35 109.168 79.6594 108.958 79.1087 108.538C78.558 108.118 78.236 107.549 78.1427 106.83H79.3467C79.4214 107.194 79.6127 107.511 79.9207 107.782C80.238 108.043 80.6627 108.174 81.1947 108.174C81.6894 108.174 82.0534 108.071 82.2867 107.866C82.52 107.651 82.6367 107.399 82.6367 107.11C82.6367 106.69 82.4827 106.41 82.1747 106.27C81.876 106.13 81.4514 106.004 80.9007 105.892C80.5274 105.817 80.154 105.71 79.7807 105.57C79.4074 105.43 79.0947 105.234 78.8427 104.982C78.5907 104.721 78.4647 104.38 78.4647 103.96C78.4647 103.353 78.6887 102.859 79.1367 102.476C79.594 102.084 80.21 101.888 80.9847 101.888C81.722 101.888 82.324 102.075 82.7907 102.448C83.2667 102.812 83.542 103.335 83.6167 104.016H82.4547C82.408 103.661 82.254 103.386 81.9927 103.19C81.7407 102.985 81.4 102.882 80.9707 102.882C80.5507 102.882 80.224 102.971 79.9907 103.148C79.7667 103.325 79.6547 103.559 79.6547 103.848C79.6547 104.128 79.7994 104.347 80.0887 104.506C80.3874 104.665 80.7887 104.8 81.2927 104.912C81.722 105.005 82.128 105.122 82.5107 105.262C82.9027 105.393 83.22 105.593 83.4627 105.864C83.7147 106.125 83.8407 106.508 83.8407 107.012C83.85 107.637 83.612 108.155 83.1267 108.566C82.6507 108.967 82.002 109.168 81.1807 109.168ZM88.0547 109.168C87.2334 109.168 86.58 108.921 86.0947 108.426C85.6094 107.922 85.3667 107.152 85.3667 106.116V102.056H86.5427V105.99C86.5427 107.437 87.1354 108.16 88.3207 108.16C88.9274 108.16 89.4267 107.945 89.8187 107.516C90.22 107.077 90.4207 106.457 90.4207 105.654V102.056H91.5967V109H90.5327L90.4487 107.754C90.234 108.193 89.912 108.538 89.4827 108.79C89.0627 109.042 88.5867 109.168 88.0547 109.168ZM93.5324 109V102.056H94.5964L94.6804 103.064C94.9044 102.691 95.2031 102.401 95.5764 102.196C95.9497 101.991 96.3697 101.888 96.8364 101.888C97.3871 101.888 97.8584 102 98.2504 102.224C98.6517 102.448 98.9597 102.789 99.1744 103.246C99.4171 102.826 99.7484 102.495 100.168 102.252C100.598 102.009 101.06 101.888 101.554 101.888C102.385 101.888 103.048 102.14 103.542 102.644C104.037 103.139 104.284 103.904 104.284 104.94V109H103.122V105.066C103.122 104.347 102.978 103.806 102.688 103.442C102.399 103.078 101.984 102.896 101.442 102.896C100.882 102.896 100.416 103.115 100.042 103.554C99.6784 103.983 99.4964 104.599 99.4964 105.402V109H98.3204V105.066C98.3204 104.347 98.1757 103.806 97.8864 103.442C97.5971 103.078 97.1817 102.896 96.6404 102.896C96.0897 102.896 95.6277 103.115 95.2544 103.554C94.8904 103.983 94.7084 104.599 94.7084 105.402V109H93.5324ZM112.505 109C111.87 109 111.371 108.846 111.007 108.538C110.643 108.23 110.461 107.675 110.461 106.872V103.05H109.257V102.056H110.461L110.615 100.39H111.637V102.056H113.681V103.05H111.637V106.872C111.637 107.311 111.726 107.609 111.903 107.768C112.08 107.917 112.393 107.992 112.841 107.992H113.569V109H112.505ZM118.106 109.168C117.443 109.168 116.855 109.019 116.342 108.72C115.828 108.412 115.422 107.987 115.124 107.446C114.834 106.905 114.69 106.265 114.69 105.528C114.69 104.8 114.834 104.165 115.124 103.624C115.413 103.073 115.814 102.649 116.328 102.35C116.85 102.042 117.452 101.888 118.134 101.888C118.806 101.888 119.384 102.042 119.87 102.35C120.364 102.649 120.742 103.045 121.004 103.54C121.265 104.035 121.396 104.567 121.396 105.136C121.396 105.239 121.391 105.341 121.382 105.444C121.382 105.547 121.382 105.663 121.382 105.794H115.852C115.88 106.326 116.001 106.769 116.216 107.124C116.44 107.469 116.715 107.731 117.042 107.908C117.378 108.085 117.732 108.174 118.106 108.174C118.591 108.174 118.997 108.062 119.324 107.838C119.65 107.614 119.888 107.311 120.038 106.928H121.2C121.013 107.572 120.654 108.109 120.122 108.538C119.599 108.958 118.927 109.168 118.106 109.168ZM118.106 102.882C117.546 102.882 117.046 103.055 116.608 103.4C116.178 103.736 115.931 104.231 115.866 104.884H120.234C120.206 104.259 119.991 103.769 119.59 103.414C119.188 103.059 118.694 102.882 118.106 102.882ZM121.926 109L124.334 105.528L121.926 102.056H123.2L125.146 104.926L127.106 102.056H128.366L125.958 105.528L128.366 109H127.106L125.146 106.13L123.2 109H121.926ZM132.343 109C131.708 109 131.209 108.846 130.845 108.538C130.481 108.23 130.299 107.675 130.299 106.872V103.05H129.095V102.056H130.299L130.453 100.39H131.475V102.056H133.519V103.05H131.475V106.872C131.475 107.311 131.563 107.609 131.741 107.768C131.918 107.917 132.231 107.992 132.679 107.992H133.407V109H132.343Z" fill="black"/>
<path d="M26.036 69V59.2H27.212V63.526H32.294V59.2H33.47V69H32.294V64.492H27.212V69H26.036ZM38.59 69.168C37.9273 69.168 37.3393 69.0187 36.826 68.72C36.3126 68.412 35.9066 67.9873 35.608 67.446C35.3186 66.9047 35.174 66.2653 35.174 65.528C35.174 64.8 35.3186 64.1653 35.608 63.624C35.8973 63.0733 36.2986 62.6487 36.812 62.35C37.3346 62.042 37.9366 61.888 38.618 61.888C39.29 61.888 39.8686 62.042 40.354 62.35C40.8486 62.6487 41.2266 63.0453 41.488 63.54C41.7493 64.0347 41.88 64.5667 41.88 65.136C41.88 65.2387 41.8753 65.3413 41.866 65.444C41.866 65.5467 41.866 65.6633 41.866 65.794H36.336C36.364 66.326 36.4853 66.7693 36.7 67.124C36.924 67.4693 37.1993 67.7307 37.526 67.908C37.862 68.0853 38.2166 68.174 38.59 68.174C39.0753 68.174 39.4813 68.062 39.808 67.838C40.1346 67.614 40.3726 67.3107 40.522 66.928H41.684C41.4973 67.572 41.138 68.1087 40.606 68.538C40.0833 68.958 39.4113 69.168 38.59 69.168ZM38.59 62.882C38.03 62.882 37.5306 63.0547 37.092 63.4C36.6626 63.736 36.4153 64.2307 36.35 64.884H40.718C40.69 64.2587 40.4753 63.7687 40.074 63.414C39.6726 63.0593 39.178 62.882 38.59 62.882ZM43.4387 69V58.92H44.6147V69H43.4387ZM46.5422 69V58.92H47.7182V69H46.5422ZM52.8097 69.168C52.1564 69.168 51.5684 69.0187 51.0457 68.72C50.523 68.4213 50.1077 68.0013 49.7997 67.46C49.501 66.9093 49.3517 66.2653 49.3517 65.528C49.3517 64.7907 49.5057 64.1513 49.8137 63.61C50.1217 63.0593 50.537 62.6347 51.0597 62.336C51.5917 62.0373 52.1844 61.888 52.8377 61.888C53.491 61.888 54.079 62.0373 54.6017 62.336C55.1244 62.6347 55.535 63.0593 55.8337 63.61C56.1417 64.1513 56.2957 64.7907 56.2957 65.528C56.2957 66.2653 56.1417 66.9093 55.8337 67.46C55.5257 68.0013 55.1057 68.4213 54.5737 68.72C54.051 69.0187 53.463 69.168 52.8097 69.168ZM52.8097 68.16C53.211 68.16 53.5844 68.062 53.9297 67.866C54.275 67.67 54.555 67.376 54.7697 66.984C54.9844 66.592 55.0917 66.1067 55.0917 65.528C55.0917 64.9493 54.9844 64.464 54.7697 64.072C54.5644 63.68 54.289 63.386 53.9437 63.19C53.5984 62.994 53.2297 62.896 52.8377 62.896C52.4364 62.896 52.063 62.994 51.7177 63.19C51.3724 63.386 51.0924 63.68 50.8777 64.072C50.663 64.464 50.5557 64.9493 50.5557 65.528C50.5557 66.1067 50.663 66.592 50.8777 66.984C51.0924 67.376 51.3677 67.67 51.7037 67.866C52.049 68.062 52.4177 68.16 52.8097 68.16ZM58.1828 66.284L58.0428 59.2H59.3168L59.1768 66.284H58.1828ZM58.7148 69.07C58.4815 69.07 58.2855 68.9953 58.1268 68.846C57.9775 68.6873 57.9028 68.496 57.9028 68.272C57.9028 68.048 57.9775 67.8613 58.1268 67.712C58.2855 67.5533 58.4815 67.474 58.7148 67.474C58.9388 67.474 59.1255 67.5533 59.2748 67.712C59.4335 67.8613 59.5128 68.048 59.5128 68.272C59.5128 68.496 59.4335 68.6873 59.2748 68.846C59.1255 68.9953 58.9388 69.07 58.7148 69.07ZM67.4746 69V60.166H64.5486V59.2H71.5766V60.166H68.6506V69H67.4746ZM72.9426 69V58.92H74.1186V63.246C74.3519 62.8167 74.6832 62.4853 75.1126 62.252C75.5419 62.0093 76.0086 61.888 76.5126 61.888C77.3152 61.888 77.9592 62.14 78.4446 62.644C78.9299 63.1387 79.1726 63.904 79.1726 64.94V69H78.0106V65.066C78.0106 63.6193 77.4272 62.896 76.2606 62.896C75.6539 62.896 75.1452 63.1153 74.7346 63.554C74.3239 63.9833 74.1186 64.5993 74.1186 65.402V69H72.9426ZM81.6683 60.516C81.4349 60.516 81.2389 60.4413 81.0803 60.292C80.9309 60.1333 80.8563 59.9373 80.8563 59.704C80.8563 59.48 80.9309 59.2933 81.0803 59.144C81.2389 58.9947 81.4349 58.92 81.6683 58.92C81.8923 58.92 82.0836 58.9947 82.2423 59.144C82.4009 59.2933 82.4803 59.48 82.4803 59.704C82.4803 59.9373 82.4009 60.1333 82.2423 60.292C82.0836 60.4413 81.8923 60.516 81.6683 60.516ZM81.0803 69V62.056H82.2563V69H81.0803ZM86.9639 69.168C86.1332 69.168 85.4426 68.958 84.8919 68.538C84.3412 68.118 84.0192 67.5487 83.9259 66.83H85.1299C85.2046 67.194 85.3959 67.5113 85.7039 67.782C86.0212 68.0433 86.4459 68.174 86.9779 68.174C87.4726 68.174 87.8366 68.0713 88.0699 67.866C88.3032 67.6513 88.4199 67.3993 88.4199 67.11C88.4199 66.69 88.2659 66.41 87.9579 66.27C87.6592 66.13 87.2346 66.004 86.6839 65.892C86.3106 65.8173 85.9372 65.71 85.5639 65.57C85.1906 65.43 84.8779 65.234 84.6259 64.982C84.3739 64.7207 84.2479 64.38 84.2479 63.96C84.2479 63.3533 84.4719 62.8587 84.9199 62.476C85.3772 62.084 85.9932 61.888 86.7679 61.888C87.5052 61.888 88.1072 62.0747 88.5739 62.448C89.0499 62.812 89.3252 63.3347 89.3999 64.016H88.2379C88.1912 63.6613 88.0372 63.386 87.7759 63.19C87.5239 62.9847 87.1832 62.882 86.7539 62.882C86.3339 62.882 86.0072 62.9707 85.7739 63.148C85.5499 63.3253 85.4379 63.5587 85.4379 63.848C85.4379 64.128 85.5826 64.3473 85.8719 64.506C86.1706 64.6647 86.5719 64.8 87.0759 64.912C87.5052 65.0053 87.9112 65.122 88.2939 65.262C88.6859 65.3927 89.0032 65.5933 89.2459 65.864C89.4979 66.1253 89.6239 66.508 89.6239 67.012C89.6332 67.6373 89.3952 68.1553 88.9099 68.566C88.4339 68.9673 87.7852 69.168 86.9639 69.168ZM95.723 60.516C95.4896 60.516 95.2936 60.4413 95.135 60.292C94.9856 60.1333 94.911 59.9373 94.911 59.704C94.911 59.48 94.9856 59.2933 95.135 59.144C95.2936 58.9947 95.4896 58.92 95.723 58.92C95.947 58.92 96.1383 58.9947 96.297 59.144C96.4556 59.2933 96.535 59.48 96.535 59.704C96.535 59.9373 96.4556 60.1333 96.297 60.292C96.1383 60.4413 95.947 60.516 95.723 60.516ZM95.135 69V62.056H96.311V69H95.135ZM101.019 69.168C100.188 69.168 99.4972 68.958 98.9466 68.538C98.3959 68.118 98.0739 67.5487 97.9806 66.83H99.1846C99.2592 67.194 99.4506 67.5113 99.7586 67.782C100.076 68.0433 100.501 68.174 101.033 68.174C101.527 68.174 101.891 68.0713 102.125 67.866C102.358 67.6513 102.475 67.3993 102.475 67.11C102.475 66.69 102.321 66.41 102.013 66.27C101.714 66.13 101.289 66.004 100.739 65.892C100.365 65.8173 99.9919 65.71 99.6186 65.57C99.2452 65.43 98.9326 65.234 98.6806 64.982C98.4286 64.7207 98.3026 64.38 98.3026 63.96C98.3026 63.3533 98.5266 62.8587 98.9746 62.476C99.4319 62.084 100.048 61.888 100.823 61.888C101.56 61.888 102.162 62.0747 102.629 62.448C103.105 62.812 103.38 63.3347 103.455 64.016H102.293C102.246 63.6613 102.092 63.386 101.831 63.19C101.579 62.9847 101.238 62.882 100.809 62.882C100.389 62.882 100.062 62.9707 99.8286 63.148C99.6046 63.3253 99.4926 63.5587 99.4926 63.848C99.4926 64.128 99.6372 64.3473 99.9266 64.506C100.225 64.6647 100.627 64.8 101.131 64.912C101.56 65.0053 101.966 65.122 102.349 65.262C102.741 65.3927 103.058 65.5933 103.301 65.864C103.553 66.1253 103.679 66.508 103.679 67.012C103.688 67.6373 103.45 68.1553 102.965 68.566C102.489 68.9673 101.84 69.168 101.019 69.168ZM111.374 69.168C110.795 69.168 110.314 69.07 109.932 68.874C109.549 68.678 109.264 68.4167 109.078 68.09C108.891 67.7633 108.798 67.4087 108.798 67.026C108.798 66.3167 109.068 65.7707 109.61 65.388C110.151 65.0053 110.888 64.814 111.822 64.814H113.698V64.73C113.698 64.1233 113.539 63.666 113.222 63.358C112.904 63.0407 112.48 62.882 111.948 62.882C111.49 62.882 111.094 62.9987 110.758 63.232C110.431 63.456 110.226 63.7873 110.142 64.226H108.938C108.984 63.722 109.152 63.2973 109.442 62.952C109.74 62.6067 110.109 62.3453 110.548 62.168C110.986 61.9813 111.453 61.888 111.948 61.888C112.918 61.888 113.646 62.1493 114.132 62.672C114.626 63.1853 114.874 63.8713 114.874 64.73V69H113.824L113.754 67.754C113.558 68.146 113.268 68.482 112.886 68.762C112.512 69.0327 112.008 69.168 111.374 69.168ZM111.556 68.174C112.004 68.174 112.386 68.0573 112.704 67.824C113.03 67.5907 113.278 67.2873 113.446 66.914C113.614 66.5407 113.698 66.1487 113.698 65.738V65.724H111.92C111.229 65.724 110.739 65.8453 110.45 66.088C110.17 66.3213 110.03 66.6153 110.03 66.97C110.03 67.334 110.16 67.628 110.422 67.852C110.692 68.0667 111.07 68.174 111.556 68.174ZM123.003 69.168C122.172 69.168 121.482 68.958 120.931 68.538C120.38 68.118 120.058 67.5487 119.965 66.83H121.169C121.244 67.194 121.435 67.5113 121.743 67.782C122.06 68.0433 122.485 68.174 123.017 68.174C123.512 68.174 123.876 68.0713 124.109 67.866C124.342 67.6513 124.459 67.3993 124.459 67.11C124.459 66.69 124.305 66.41 123.997 66.27C123.698 66.13 123.274 66.004 122.723 65.892C122.35 65.8173 121.976 65.71 121.603 65.57C121.23 65.43 120.917 65.234 120.665 64.982C120.413 64.7207 120.287 64.38 120.287 63.96C120.287 63.3533 120.511 62.8587 120.959 62.476C121.416 62.084 122.032 61.888 122.807 61.888C123.544 61.888 124.146 62.0747 124.613 62.448C125.089 62.812 125.364 63.3347 125.439 64.016H124.277C124.23 63.6613 124.076 63.386 123.815 63.19C123.563 62.9847 123.222 62.882 122.793 62.882C122.373 62.882 122.046 62.9707 121.813 63.148C121.589 63.3253 121.477 63.5587 121.477 63.848C121.477 64.128 121.622 64.3473 121.911 64.506C122.21 64.6647 122.611 64.8 123.115 64.912C123.544 65.0053 123.95 65.122 124.333 65.262C124.725 65.3927 125.042 65.5933 125.285 65.864C125.537 66.1253 125.663 66.508 125.663 67.012C125.672 67.6373 125.434 68.1553 124.949 68.566C124.473 68.9673 123.824 69.168 123.003 69.168ZM129.653 69.168C129.074 69.168 128.594 69.07 128.211 68.874C127.828 68.678 127.544 68.4167 127.357 68.09C127.17 67.7633 127.077 67.4087 127.077 67.026C127.077 66.3167 127.348 65.7707 127.889 65.388C128.43 65.0053 129.168 64.814 130.101 64.814H131.977V64.73C131.977 64.1233 131.818 63.666 131.501 63.358C131.184 63.0407 130.759 62.882 130.227 62.882C129.77 62.882 129.373 62.9987 129.037 63.232C128.71 63.456 128.505 63.7873 128.421 64.226H127.217C127.264 63.722 127.432 63.2973 127.721 62.952C128.02 62.6067 128.388 62.3453 128.827 62.168C129.266 61.9813 129.732 61.888 130.227 61.888C131.198 61.888 131.926 62.1493 132.411 62.672C132.906 63.1853 133.153 63.8713 133.153 64.73V69H132.103L132.033 67.754C131.837 68.146 131.548 68.482 131.165 68.762C130.792 69.0327 130.288 69.168 129.653 69.168ZM129.835 68.174C130.283 68.174 130.666 68.0573 130.983 67.824C131.31 67.5907 131.557 67.2873 131.725 66.914C131.893 66.5407 131.977 66.1487 131.977 65.738V65.724H130.199C129.508 65.724 129.018 65.8453 128.729 66.088C128.449 66.3213 128.309 66.6153 128.309 66.97C128.309 67.334 128.44 67.628 128.701 67.852C128.972 68.0667 129.35 68.174 129.835 68.174ZM134.917 69V62.056H135.981L136.065 63.064C136.289 62.6907 136.588 62.4013 136.961 62.196C137.335 61.9907 137.755 61.888 138.221 61.888C138.772 61.888 139.243 62 139.635 62.224C140.037 62.448 140.345 62.7887 140.559 63.246C140.802 62.826 141.133 62.4947 141.553 62.252C141.983 62.0093 142.445 61.888 142.939 61.888C143.77 61.888 144.433 62.14 144.927 62.644C145.422 63.1387 145.669 63.904 145.669 64.94V69H144.507V65.066C144.507 64.3473 144.363 63.806 144.073 63.442C143.784 63.078 143.369 62.896 142.827 62.896C142.267 62.896 141.801 63.1153 141.427 63.554C141.063 63.9833 140.881 64.5993 140.881 65.402V69H139.705V65.066C139.705 64.3473 139.561 63.806 139.271 63.442C138.982 63.078 138.567 62.896 138.025 62.896C137.475 62.896 137.013 63.1153 136.639 63.554C136.275 63.9833 136.093 64.5993 136.093 65.402V69H134.917ZM147.441 72.08V62.056H148.505L148.617 63.204C148.841 62.868 149.158 62.5647 149.569 62.294C149.989 62.0233 150.521 61.888 151.165 61.888C151.855 61.888 152.457 62.0467 152.971 62.364C153.484 62.6813 153.881 63.1153 154.161 63.666C154.45 64.2167 154.595 64.842 154.595 65.542C154.595 66.242 154.45 66.8673 154.161 67.418C153.881 67.9593 153.479 68.3887 152.957 68.706C152.443 69.014 151.841 69.168 151.151 69.168C150.581 69.168 150.073 69.0513 149.625 68.818C149.186 68.5847 148.85 68.258 148.617 67.838V72.08H147.441ZM151.025 68.146C151.491 68.146 151.902 68.0387 152.257 67.824C152.611 67.6 152.891 67.292 153.097 66.9C153.302 66.508 153.405 66.0507 153.405 65.528C153.405 65.0053 153.302 64.548 153.097 64.156C152.891 63.764 152.611 63.4607 152.257 63.246C151.902 63.022 151.491 62.91 151.025 62.91C150.558 62.91 150.147 63.022 149.793 63.246C149.438 63.4607 149.158 63.764 148.953 64.156C148.747 64.548 148.645 65.0053 148.645 65.528C148.645 66.0507 148.747 66.508 148.953 66.9C149.158 67.292 149.438 67.6 149.793 67.824C150.147 68.0387 150.558 68.146 151.025 68.146ZM156.232 69V58.92H157.408V69H156.232ZM162.457 69.168C161.794 69.168 161.206 69.0187 160.693 68.72C160.18 68.412 159.774 67.9873 159.475 67.446C159.186 66.9047 159.041 66.2653 159.041 65.528C159.041 64.8 159.186 64.1653 159.475 63.624C159.764 63.0733 160.166 62.6487 160.679 62.35C161.202 62.042 161.804 61.888 162.485 61.888C163.157 61.888 163.736 62.042 164.221 62.35C164.716 62.6487 165.094 63.0453 165.355 63.54C165.616 64.0347 165.747 64.5667 165.747 65.136C165.747 65.2387 165.742 65.3413 165.733 65.444C165.733 65.5467 165.733 65.6633 165.733 65.794H160.203C160.231 66.326 160.352 66.7693 160.567 67.124C160.791 67.4693 161.066 67.7307 161.393 67.908C161.729 68.0853 162.084 68.174 162.457 68.174C162.942 68.174 163.348 68.062 163.675 67.838C164.002 67.614 164.24 67.3107 164.389 66.928H165.551C165.364 67.572 165.005 68.1087 164.473 68.538C163.95 68.958 163.278 69.168 162.457 69.168ZM162.457 62.882C161.897 62.882 161.398 63.0547 160.959 63.4C160.53 63.736 160.282 64.2307 160.217 64.884H164.585C164.557 64.2587 164.342 63.7687 163.941 63.414C163.54 63.0593 163.045 62.882 162.457 62.882ZM173.755 69C173.12 69 172.621 68.846 172.257 68.538C171.893 68.23 171.711 67.6747 171.711 66.872V63.05H170.507V62.056H171.711L171.865 60.39H172.887V62.056H174.931V63.05H172.887V66.872C172.887 67.3107 172.976 67.6093 173.153 67.768C173.33 67.9173 173.643 67.992 174.091 67.992H174.819V69H173.755ZM179.356 69.168C178.693 69.168 178.105 69.0187 177.592 68.72C177.078 68.412 176.672 67.9873 176.374 67.446C176.084 66.9047 175.94 66.2653 175.94 65.528C175.94 64.8 176.084 64.1653 176.374 63.624C176.663 63.0733 177.064 62.6487 177.578 62.35C178.1 62.042 178.702 61.888 179.384 61.888C180.056 61.888 180.634 62.042 181.12 62.35C181.614 62.6487 181.992 63.0453 182.254 63.54C182.515 64.0347 182.646 64.5667 182.646 65.136C182.646 65.2387 182.641 65.3413 182.632 65.444C182.632 65.5467 182.632 65.6633 182.632 65.794H177.102C177.13 66.326 177.251 66.7693 177.466 67.124C177.69 67.4693 177.965 67.7307 178.292 67.908C178.628 68.0853 178.982 68.174 179.356 68.174C179.841 68.174 180.247 68.062 180.574 67.838C180.9 67.614 181.138 67.3107 181.288 66.928H182.45C182.263 67.572 181.904 68.1087 181.372 68.538C180.849 68.958 180.177 69.168 179.356 69.168ZM179.356 62.882C178.796 62.882 178.296 63.0547 177.858 63.4C177.428 63.736 177.181 64.2307 177.116 64.884H181.484C181.456 64.2587 181.241 63.7687 180.84 63.414C180.438 63.0593 179.944 62.882 179.356 62.882ZM183.176 69L185.584 65.528L183.176 62.056H184.45L186.396 64.926L188.356 62.056H189.616L187.208 65.528L189.616 69H188.356L186.396 66.13L184.45 69H183.176ZM193.593 69C192.958 69 192.459 68.846 192.095 68.538C191.731 68.23 191.549 67.6747 191.549 66.872V63.05H190.345V62.056H191.549L191.703 60.39H192.725V62.056H194.769V63.05H192.725V66.872C192.725 67.3107 192.813 67.6093 192.991 67.768C193.168 67.9173 193.481 67.992 193.929 67.992H194.657V69H193.593ZM25.966 89V82.056H27.03L27.114 83.064C27.338 82.6907 27.6367 82.4013 28.01 82.196C28.3833 81.9907 28.8033 81.888 29.27 81.888C29.8207 81.888 30.292 82 30.684 82.224C31.0853 82.448 31.3933 82.7887 31.608 83.246C31.8507 82.826 32.182 82.4947 32.602 82.252C33.0313 82.0093 33.4933 81.888 33.988 81.888C34.8187 81.888 35.4813 82.14 35.976 82.644C36.4707 83.1387 36.718 83.904 36.718 84.94V89H35.556V85.066C35.556 84.3473 35.4113 83.806 35.122 83.442C34.8327 83.078 34.4173 82.896 33.876 82.896C33.316 82.896 32.8493 83.1153 32.476 83.554C32.112 83.9833 31.93 84.5993 31.93 85.402V89H30.754V85.066C30.754 84.3473 30.6093 83.806 30.32 83.442C30.0307 83.078 29.6153 82.896 29.074 82.896C28.5233 82.896 28.0613 83.1153 27.688 83.554C27.324 83.9833 27.142 84.5993 27.142 85.402V89H25.966ZM41.6534 89.168C41.0001 89.168 40.4121 89.0187 39.8894 88.72C39.3668 88.4213 38.9514 88.0013 38.6434 87.46C38.3448 86.9093 38.1954 86.2653 38.1954 85.528C38.1954 84.7907 38.3494 84.1513 38.6574 83.61C38.9654 83.0593 39.3808 82.6347 39.9034 82.336C40.4354 82.0373 41.0281 81.888 41.6814 81.888C42.3348 81.888 42.9228 82.0373 43.4454 82.336C43.9681 82.6347 44.3788 83.0593 44.6774 83.61C44.9854 84.1513 45.1394 84.7907 45.1394 85.528C45.1394 86.2653 44.9854 86.9093 44.6774 87.46C44.3694 88.0013 43.9494 88.4213 43.4174 88.72C42.8948 89.0187 42.3068 89.168 41.6534 89.168ZM41.6534 88.16C42.0548 88.16 42.4281 88.062 42.7734 87.866C43.1188 87.67 43.3988 87.376 43.6134 86.984C43.8281 86.592 43.9354 86.1067 43.9354 85.528C43.9354 84.9493 43.8281 84.464 43.6134 84.072C43.4081 83.68 43.1328 83.386 42.7874 83.19C42.4421 82.994 42.0734 82.896 41.6814 82.896C41.2801 82.896 40.9068 82.994 40.5614 83.19C40.2161 83.386 39.9361 83.68 39.7214 84.072C39.5068 84.464 39.3994 84.9493 39.3994 85.528C39.3994 86.1067 39.5068 86.592 39.7214 86.984C39.9361 87.376 40.2114 87.67 40.5474 87.866C40.8928 88.062 41.2614 88.16 41.6534 88.16ZM46.7746 89V82.056H47.8386L47.9366 83.386C48.1513 82.9287 48.4779 82.5647 48.9166 82.294C49.3553 82.0233 49.8966 81.888 50.5406 81.888V83.12H50.2186C49.8079 83.12 49.4299 83.1947 49.0846 83.344C48.7393 83.484 48.4639 83.7267 48.2586 84.072C48.0533 84.4173 47.9506 84.8933 47.9506 85.5V89H46.7746ZM54.7228 89.168C54.0601 89.168 53.4721 89.0187 52.9588 88.72C52.4454 88.412 52.0394 87.9873 51.7408 87.446C51.4514 86.9047 51.3068 86.2653 51.3068 85.528C51.3068 84.8 51.4514 84.1653 51.7408 83.624C52.0301 83.0733 52.4314 82.6487 52.9448 82.35C53.4674 82.042 54.0694 81.888 54.7508 81.888C55.4228 81.888 56.0014 82.042 56.4868 82.35C56.9814 82.6487 57.3594 83.0453 57.6208 83.54C57.8821 84.0347 58.0128 84.5667 58.0128 85.136C58.0128 85.2387 58.0081 85.3413 57.9988 85.444C57.9988 85.5467 57.9988 85.6633 57.9988 85.794H52.4688C52.4968 86.326 52.6181 86.7693 52.8328 87.124C53.0568 87.4693 53.3321 87.7307 53.6588 87.908C53.9948 88.0853 54.3494 88.174 54.7228 88.174C55.2081 88.174 55.6141 88.062 55.9408 87.838C56.2674 87.614 56.5054 87.3107 56.6548 86.928H57.8168C57.6301 87.572 57.2708 88.1087 56.7388 88.538C56.2161 88.958 55.5441 89.168 54.7228 89.168ZM54.7228 82.882C54.1628 82.882 53.6634 83.0547 53.2248 83.4C52.7954 83.736 52.5481 84.2307 52.4828 84.884H56.8508C56.8228 84.2587 56.6081 83.7687 56.2068 83.414C55.8054 83.0593 55.3108 82.882 54.7228 82.882ZM66.4685 89.168C65.8059 89.168 65.2085 89.0187 64.6765 88.72C64.1539 88.412 63.7385 87.9873 63.4305 87.446C63.1319 86.8953 62.9825 86.256 62.9825 85.528C62.9825 84.8 63.1319 84.1653 63.4305 83.624C63.7385 83.0733 64.1539 82.6487 64.6765 82.35C65.2085 82.042 65.8059 81.888 66.4685 81.888C67.2899 81.888 67.9805 82.1027 68.5405 82.532C69.1099 82.9613 69.4692 83.5353 69.6185 84.254H68.4145C68.3212 83.8247 68.0925 83.4933 67.7285 83.26C67.3645 83.0173 66.9399 82.896 66.4545 82.896C66.0625 82.896 65.6939 82.994 65.3485 83.19C65.0032 83.386 64.7232 83.68 64.5085 84.072C64.2939 84.464 64.1865 84.9493 64.1865 85.528C64.1865 86.1067 64.2939 86.592 64.5085 86.984C64.7232 87.376 65.0032 87.6747 65.3485 87.88C65.6939 88.076 66.0625 88.174 66.4545 88.174C66.9399 88.174 67.3645 88.0573 67.7285 87.824C68.0925 87.5813 68.3212 87.2407 68.4145 86.802H69.6185C69.4785 87.502 69.1239 88.0713 68.5545 88.51C67.9852 88.9487 67.2899 89.168 66.4685 89.168ZM73.5709 89.168C72.9923 89.168 72.5116 89.07 72.1289 88.874C71.7463 88.678 71.4616 88.4167 71.2749 88.09C71.0883 87.7633 70.9949 87.4087 70.9949 87.026C70.9949 86.3167 71.2656 85.7707 71.8069 85.388C72.3483 85.0053 73.0856 84.814 74.0189 84.814H75.8949V84.73C75.8949 84.1233 75.7363 83.666 75.4189 83.358C75.1016 83.0407 74.6769 82.882 74.1449 82.882C73.6876 82.882 73.2909 82.9987 72.9549 83.232C72.6283 83.456 72.4229 83.7873 72.3389 84.226H71.1349C71.1816 83.722 71.3496 83.2973 71.6389 82.952C71.9376 82.6067 72.3063 82.3453 72.7449 82.168C73.1836 81.9813 73.6503 81.888 74.1449 81.888C75.1156 81.888 75.8436 82.1493 76.3289 82.672C76.8236 83.1853 77.0709 83.8713 77.0709 84.73V89H76.0209L75.9509 87.754C75.7549 88.146 75.4656 88.482 75.0829 88.762C74.7096 89.0327 74.2056 89.168 73.5709 89.168ZM73.7529 88.174C74.2009 88.174 74.5836 88.0573 74.9009 87.824C75.2276 87.5907 75.4749 87.2873 75.6429 86.914C75.8109 86.5407 75.8949 86.1487 75.8949 85.738V85.724H74.1169C73.4263 85.724 72.9363 85.8453 72.6469 86.088C72.3669 86.3213 72.2269 86.6153 72.2269 86.97C72.2269 87.334 72.3576 87.628 72.6189 87.852C72.8896 88.0667 73.2676 88.174 73.7529 88.174ZM81.3877 89C80.7531 89 80.2537 88.846 79.8897 88.538C79.5257 88.23 79.3437 87.6747 79.3437 86.872V83.05H78.1397V82.056H79.3437L79.4977 80.39H80.5197V82.056H82.5637V83.05H80.5197V86.872C80.5197 87.3107 80.6084 87.6093 80.7857 87.768C80.9631 87.9173 81.2757 87.992 81.7237 87.992H82.4517V89H81.3877ZM87.0584 89.168C86.3957 89.168 85.7984 89.0187 85.2664 88.72C84.7437 88.412 84.3284 87.9873 84.0204 87.446C83.7217 86.8953 83.5724 86.256 83.5724 85.528C83.5724 84.8 83.7217 84.1653 84.0204 83.624C84.3284 83.0733 84.7437 82.6487 85.2664 82.35C85.7984 82.042 86.3957 81.888 87.0584 81.888C87.8797 81.888 88.5704 82.1027 89.1304 82.532C89.6997 82.9613 90.0591 83.5353 90.2084 84.254H89.0044C88.9111 83.8247 88.6824 83.4933 88.3184 83.26C87.9544 83.0173 87.5297 82.896 87.0444 82.896C86.6524 82.896 86.2837 82.994 85.9384 83.19C85.5931 83.386 85.3131 83.68 85.0984 84.072C84.8837 84.464 84.7764 84.9493 84.7764 85.528C84.7764 86.1067 84.8837 86.592 85.0984 86.984C85.3131 87.376 85.5931 87.6747 85.9384 87.88C86.2837 88.076 86.6524 88.174 87.0444 88.174C87.5297 88.174 87.9544 88.0573 88.3184 87.824C88.6824 87.5813 88.9111 87.2407 89.0044 86.802H90.2084C90.0684 87.502 89.7137 88.0713 89.1444 88.51C88.5751 88.9487 87.8797 89.168 87.0584 89.168ZM91.8508 89V78.92H93.0268V83.246C93.2601 82.8167 93.5914 82.4853 94.0208 82.252C94.4501 82.0093 94.9168 81.888 95.4208 81.888C96.2234 81.888 96.8674 82.14 97.3528 82.644C97.8381 83.1387 98.0808 83.904 98.0808 84.94V89H96.9188V85.066C96.9188 83.6193 96.3354 82.896 95.1688 82.896C94.5621 82.896 94.0534 83.1153 93.6428 83.554C93.2321 83.9833 93.0268 84.5993 93.0268 85.402V89H91.8508ZM100.413 92.08L102.135 88.328H101.729L98.9714 82.056H100.245L102.541 87.46L104.977 82.056H106.195L101.645 92.08H100.413ZM113.886 89C113.251 89 112.752 88.846 112.388 88.538C112.024 88.23 111.842 87.6747 111.842 86.872V83.05H110.638V82.056H111.842L111.996 80.39H113.018V82.056H115.062V83.05H113.018V86.872C113.018 87.3107 113.106 87.6093 113.284 87.768C113.461 87.9173 113.774 87.992 114.222 87.992H114.95V89H113.886ZM116.556 89V78.92H117.732V83.246C117.965 82.8167 118.297 82.4853 118.726 82.252C119.155 82.0093 119.622 81.888 120.126 81.888C120.929 81.888 121.573 82.14 122.058 82.644C122.543 83.1387 122.786 83.904 122.786 84.94V89H121.624V85.066C121.624 83.6193 121.041 82.896 119.874 82.896C119.267 82.896 118.759 83.1153 118.348 83.554C117.937 83.9833 117.732 84.5993 117.732 85.402V89H116.556ZM126.878 89.168C126.299 89.168 125.818 89.07 125.436 88.874C125.053 88.678 124.768 88.4167 124.582 88.09C124.395 87.7633 124.302 87.4087 124.302 87.026C124.302 86.3167 124.572 85.7707 125.114 85.388C125.655 85.0053 126.392 84.814 127.326 84.814H129.202V84.73C129.202 84.1233 129.043 83.666 128.726 83.358C128.408 83.0407 127.984 82.882 127.452 82.882C126.994 82.882 126.598 82.9987 126.262 83.232C125.935 83.456 125.73 83.7873 125.646 84.226H124.442C124.488 83.722 124.656 83.2973 124.946 82.952C125.244 82.6067 125.613 82.3453 126.052 82.168C126.49 81.9813 126.957 81.888 127.452 81.888C128.422 81.888 129.15 82.1493 129.636 82.672C130.13 83.1853 130.378 83.8713 130.378 84.73V89H129.328L129.258 87.754C129.062 88.146 128.772 88.482 128.39 88.762C128.016 89.0327 127.512 89.168 126.878 89.168ZM127.06 88.174C127.508 88.174 127.89 88.0573 128.208 87.824C128.534 87.5907 128.782 87.2873 128.95 86.914C129.118 86.5407 129.202 86.1487 129.202 85.738V85.724H127.424C126.733 85.724 126.243 85.8453 125.954 86.088C125.674 86.3213 125.534 86.6153 125.534 86.97C125.534 87.334 125.664 87.628 125.926 87.852C126.196 88.0667 126.574 88.174 127.06 88.174ZM132.142 89V82.056H133.206L133.276 83.302C133.5 82.8633 133.822 82.518 134.242 82.266C134.662 82.014 135.138 81.888 135.67 81.888C136.491 81.888 137.144 82.14 137.63 82.644C138.124 83.1387 138.372 83.904 138.372 84.94V89H137.196V85.066C137.196 83.6193 136.598 82.896 135.404 82.896C134.806 82.896 134.307 83.1153 133.906 83.554C133.514 83.9833 133.318 84.5993 133.318 85.402V89H132.142ZM146.603 89C145.968 89 145.469 88.846 145.105 88.538C144.741 88.23 144.559 87.6747 144.559 86.872V83.05H143.355V82.056H144.559L144.713 80.39H145.735V82.056H147.779V83.05H145.735V86.872C145.735 87.3107 145.823 87.6093 146.001 87.768C146.178 87.9173 146.491 87.992 146.939 87.992H147.667V89H146.603ZM149.273 89V78.92H150.449V83.246C150.682 82.8167 151.013 82.4853 151.443 82.252C151.872 82.0093 152.339 81.888 152.843 81.888C153.645 81.888 154.289 82.14 154.775 82.644C155.26 83.1387 155.503 83.904 155.503 84.94V89H154.341V85.066C154.341 83.6193 153.757 82.896 152.591 82.896C151.984 82.896 151.475 83.1153 151.065 83.554C150.654 83.9833 150.449 84.5993 150.449 85.402V89H149.273ZM160.406 89.168C159.744 89.168 159.156 89.0187 158.642 88.72C158.129 88.412 157.723 87.9873 157.424 87.446C157.135 86.9047 156.99 86.2653 156.99 85.528C156.99 84.8 157.135 84.1653 157.424 83.624C157.714 83.0733 158.115 82.6487 158.628 82.35C159.151 82.042 159.753 81.888 160.434 81.888C161.106 81.888 161.685 82.042 162.17 82.35C162.665 82.6487 163.043 83.0453 163.304 83.54C163.566 84.0347 163.696 84.5667 163.696 85.136C163.696 85.2387 163.692 85.3413 163.682 85.444C163.682 85.5467 163.682 85.6633 163.682 85.794H158.152C158.18 86.326 158.302 86.7693 158.516 87.124C158.74 87.4693 159.016 87.7307 159.342 87.908C159.678 88.0853 160.033 88.174 160.406 88.174C160.892 88.174 161.298 88.062 161.624 87.838C161.951 87.614 162.189 87.3107 162.338 86.928H163.5C163.314 87.572 162.954 88.1087 162.422 88.538C161.9 88.958 161.228 89.168 160.406 89.168ZM160.406 82.882C159.846 82.882 159.347 83.0547 158.908 83.4C158.479 83.736 158.232 84.2307 158.166 84.884H162.534C162.506 84.2587 162.292 83.7687 161.89 83.414C161.489 83.0593 160.994 82.882 160.406 82.882ZM171.704 89C171.069 89 170.57 88.846 170.206 88.538C169.842 88.23 169.66 87.6747 169.66 86.872V83.05H168.456V82.056H169.66L169.814 80.39H170.836V82.056H172.88V83.05H170.836V86.872C170.836 87.3107 170.925 87.6093 171.102 87.768C171.279 87.9173 171.592 87.992 172.04 87.992H172.768V89H171.704ZM175.13 92.08L176.852 88.328H176.446L173.688 82.056H174.962L177.258 87.46L179.694 82.056H180.912L176.362 92.08H175.13ZM182.154 92.08V82.056H183.218L183.33 83.204C183.554 82.868 183.871 82.5647 184.282 82.294C184.702 82.0233 185.234 81.888 185.878 81.888C186.568 81.888 187.17 82.0467 187.684 82.364C188.197 82.6813 188.594 83.1153 188.874 83.666C189.163 84.2167 189.308 84.842 189.308 85.542C189.308 86.242 189.163 86.8673 188.874 87.418C188.594 87.9593 188.192 88.3887 187.67 88.706C187.156 89.014 186.554 89.168 185.864 89.168C185.294 89.168 184.786 89.0513 184.338 88.818C183.899 88.5847 183.563 88.258 183.33 87.838V92.08H182.154ZM185.738 88.146C186.204 88.146 186.615 88.0387 186.97 87.824C187.324 87.6 187.604 87.292 187.81 86.9C188.015 86.508 188.118 86.0507 188.118 85.528C188.118 85.0053 188.015 84.548 187.81 84.156C187.604 83.764 187.324 83.4607 186.97 83.246C186.615 83.022 186.204 82.91 185.738 82.91C185.271 82.91 184.86 83.022 184.506 83.246C184.151 83.4607 183.871 83.764 183.666 84.156C183.46 84.548 183.358 85.0053 183.358 85.528C183.358 86.0507 183.46 86.508 183.666 86.9C183.871 87.292 184.151 87.6 184.506 87.824C184.86 88.0387 185.271 88.146 185.738 88.146ZM191.659 80.516C191.425 80.516 191.229 80.4413 191.071 80.292C190.921 80.1333 190.847 79.9373 190.847 79.704C190.847 79.48 190.921 79.2933 191.071 79.144C191.229 78.9947 191.425 78.92 191.659 78.92C191.883 78.92 192.074 78.9947 192.233 79.144C192.391 79.2933 192.471 79.48 192.471 79.704C192.471 79.9373 192.391 80.1333 192.233 80.292C192.074 80.4413 191.883 80.516 191.659 80.516ZM191.071 89V82.056H192.247V89H191.071ZM197.486 89.168C196.823 89.168 196.226 89.0187 195.694 88.72C195.171 88.412 194.756 87.9873 194.448 87.446C194.149 86.8953 194 86.256 194 85.528C194 84.8 194.149 84.1653 194.448 83.624C194.756 83.0733 195.171 82.6487 195.694 82.35C196.226 82.042 196.823 81.888 197.486 81.888C198.307 81.888 198.998 82.1027 199.558 82.532C200.127 82.9613 200.487 83.5353 200.636 84.254H199.432C199.339 83.8247 199.11 83.4933 198.746 83.26C198.382 83.0173 197.957 82.896 197.472 82.896C197.08 82.896 196.711 82.994 196.366 83.19C196.021 83.386 195.741 83.68 195.526 84.072C195.311 84.464 195.204 84.9493 195.204 85.528C195.204 86.1067 195.311 86.592 195.526 86.984C195.741 87.376 196.021 87.6747 196.366 87.88C196.711 88.076 197.08 88.174 197.472 88.174C197.957 88.174 198.382 88.0573 198.746 87.824C199.11 87.5813 199.339 87.2407 199.432 86.802H200.636C200.496 87.502 200.141 88.0713 199.572 88.51C199.003 88.9487 198.307 89.168 197.486 89.168ZM204.589 89.168C204.01 89.168 203.529 89.07 203.147 88.874C202.764 88.678 202.479 88.4167 202.293 88.09C202.106 87.7633 202.013 87.4087 202.013 87.026C202.013 86.3167 202.283 85.7707 202.825 85.388C203.366 85.0053 204.103 84.814 205.037 84.814H206.913V84.73C206.913 84.1233 206.754 83.666 206.437 83.358C206.119 83.0407 205.695 82.882 205.163 82.882C204.705 82.882 204.309 82.9987 203.973 83.232C203.646 83.456 203.441 83.7873 203.357 84.226H202.153C202.199 83.722 202.367 83.2973 202.657 82.952C202.955 82.6067 203.324 82.3453 203.763 82.168C204.201 81.9813 204.668 81.888 205.163 81.888C206.133 81.888 206.861 82.1493 207.347 82.672C207.841 83.1853 208.089 83.8713 208.089 84.73V89H207.039L206.969 87.754C206.773 88.146 206.483 88.482 206.101 88.762C205.727 89.0327 205.223 89.168 204.589 89.168ZM204.771 88.174C205.219 88.174 205.601 88.0573 205.919 87.824C206.245 87.5907 206.493 87.2873 206.661 86.914C206.829 86.5407 206.913 86.1487 206.913 85.738V85.724H205.135C204.444 85.724 203.954 85.8453 203.665 86.088C203.385 86.3213 203.245 86.6153 203.245 86.97C203.245 87.334 203.375 87.628 203.637 87.852C203.907 88.0667 204.285 88.174 204.771 88.174ZM209.853 89V78.92H211.029V89H209.853ZM25.966 109V98.92H27.142V109H25.966ZM32.2335 109.168C31.5802 109.168 30.9922 109.019 30.4695 108.72C29.9468 108.421 29.5315 108.001 29.2235 107.46C28.9248 106.909 28.7755 106.265 28.7755 105.528C28.7755 104.791 28.9295 104.151 29.2375 103.61C29.5455 103.059 29.9608 102.635 30.4835 102.336C31.0155 102.037 31.6082 101.888 32.2615 101.888C32.9148 101.888 33.5028 102.037 34.0255 102.336C34.5482 102.635 34.9588 103.059 35.2575 103.61C35.5655 104.151 35.7195 104.791 35.7195 105.528C35.7195 106.265 35.5655 106.909 35.2575 107.46C34.9495 108.001 34.5295 108.421 33.9975 108.72C33.4748 109.019 32.8868 109.168 32.2335 109.168ZM32.2335 108.16C32.6348 108.16 33.0082 108.062 33.3535 107.866C33.6988 107.67 33.9788 107.376 34.1935 106.984C34.4082 106.592 34.5155 106.107 34.5155 105.528C34.5155 104.949 34.4082 104.464 34.1935 104.072C33.9882 103.68 33.7128 103.386 33.3675 103.19C33.0222 102.994 32.6535 102.896 32.2615 102.896C31.8602 102.896 31.4868 102.994 31.1415 103.19C30.7962 103.386 30.5162 103.68 30.3015 104.072C30.0868 104.464 29.9795 104.949 29.9795 105.528C29.9795 106.107 30.0868 106.592 30.3015 106.984C30.5162 107.376 30.7915 107.67 31.1275 107.866C31.4728 108.062 31.8415 108.16 32.2335 108.16ZM37.3547 109V102.056H38.4187L38.5167 103.386C38.7313 102.929 39.058 102.565 39.4967 102.294C39.9353 102.023 40.4767 101.888 41.1207 101.888V103.12H40.7987C40.388 103.12 40.01 103.195 39.6647 103.344C39.3193 103.484 39.044 103.727 38.8387 104.072C38.6333 104.417 38.5307 104.893 38.5307 105.5V109H37.3547ZM45.3028 109.168C44.6402 109.168 44.0522 109.019 43.5388 108.72C43.0255 108.412 42.6195 107.987 42.3208 107.446C42.0315 106.905 41.8868 106.265 41.8868 105.528C41.8868 104.8 42.0315 104.165 42.3208 103.624C42.6102 103.073 43.0115 102.649 43.5248 102.35C44.0475 102.042 44.6495 101.888 45.3308 101.888C46.0028 101.888 46.5815 102.042 47.0668 102.35C47.5615 102.649 47.9395 103.045 48.2008 103.54C48.4622 104.035 48.5928 104.567 48.5928 105.136C48.5928 105.239 48.5882 105.341 48.5788 105.444C48.5788 105.547 48.5788 105.663 48.5788 105.794H43.0488C43.0768 106.326 43.1982 106.769 43.4128 107.124C43.6368 107.469 43.9122 107.731 44.2388 107.908C44.5748 108.085 44.9295 108.174 45.3028 108.174C45.7882 108.174 46.1942 108.062 46.5208 107.838C46.8475 107.614 47.0855 107.311 47.2348 106.928H48.3968C48.2102 107.572 47.8508 108.109 47.3188 108.538C46.7962 108.958 46.1242 109.168 45.3028 109.168ZM45.3028 102.882C44.7428 102.882 44.2435 103.055 43.8048 103.4C43.3755 103.736 43.1282 104.231 43.0628 104.884H47.4308C47.4028 104.259 47.1882 103.769 46.7868 103.414C46.3855 103.059 45.8908 102.882 45.3028 102.882ZM50.1515 109V102.056H51.2155L51.2995 103.064C51.5235 102.691 51.8222 102.401 52.1955 102.196C52.5689 101.991 52.9889 101.888 53.4555 101.888C54.0062 101.888 54.4775 102 54.8695 102.224C55.2709 102.448 55.5789 102.789 55.7935 103.246C56.0362 102.826 56.3675 102.495 56.7875 102.252C57.2169 102.009 57.6789 101.888 58.1735 101.888C59.0042 101.888 59.6669 102.14 60.1615 102.644C60.6562 103.139 60.9035 103.904 60.9035 104.94V109H59.7415V105.066C59.7415 104.347 59.5969 103.806 59.3075 103.442C59.0182 103.078 58.6029 102.896 58.0615 102.896C57.5015 102.896 57.0349 103.115 56.6615 103.554C56.2975 103.983 56.1155 104.599 56.1155 105.402V109H54.9395V105.066C54.9395 104.347 54.7949 103.806 54.5055 103.442C54.2162 103.078 53.8009 102.896 53.2595 102.896C52.7089 102.896 52.2469 103.115 51.8735 103.554C51.5095 103.983 51.3275 104.599 51.3275 105.402V109H50.1515ZM67.0941 100.516C66.8607 100.516 66.6647 100.441 66.5061 100.292C66.3567 100.133 66.2821 99.9373 66.2821 99.704C66.2821 99.48 66.3567 99.2933 66.5061 99.144C66.6647 98.9947 66.8607 98.92 67.0941 98.92C67.3181 98.92 67.5094 98.9947 67.6681 99.144C67.8267 99.2933 67.9061 99.48 67.9061 99.704C67.9061 99.9373 67.8267 100.133 67.6681 100.292C67.5094 100.441 67.3181 100.516 67.0941 100.516ZM66.5061 109V102.056H67.6821V109H66.5061ZM69.7297 112.08V102.056H70.7937L70.9057 103.204C71.1297 102.868 71.447 102.565 71.8577 102.294C72.2777 102.023 72.8097 101.888 73.4537 101.888C74.1443 101.888 74.7463 102.047 75.2597 102.364C75.773 102.681 76.1697 103.115 76.4497 103.666C76.739 104.217 76.8837 104.842 76.8837 105.542C76.8837 106.242 76.739 106.867 76.4497 107.418C76.1697 107.959 75.7683 108.389 75.2457 108.706C74.7323 109.014 74.1303 109.168 73.4397 109.168C72.8703 109.168 72.3617 109.051 71.9137 108.818C71.475 108.585 71.139 108.258 70.9057 107.838V112.08H69.7297ZM73.3137 108.146C73.7803 108.146 74.191 108.039 74.5457 107.824C74.9003 107.6 75.1803 107.292 75.3857 106.9C75.591 106.508 75.6937 106.051 75.6937 105.528C75.6937 105.005 75.591 104.548 75.3857 104.156C75.1803 103.764 74.9003 103.461 74.5457 103.246C74.191 103.022 73.7803 102.91 73.3137 102.91C72.847 102.91 72.4363 103.022 72.0817 103.246C71.727 103.461 71.447 103.764 71.2417 104.156C71.0363 104.548 70.9337 105.005 70.9337 105.528C70.9337 106.051 71.0363 106.508 71.2417 106.9C71.447 107.292 71.727 107.6 72.0817 107.824C72.4363 108.039 72.847 108.146 73.3137 108.146ZM81.1807 109.168C80.35 109.168 79.6594 108.958 79.1087 108.538C78.558 108.118 78.236 107.549 78.1427 106.83H79.3467C79.4214 107.194 79.6127 107.511 79.9207 107.782C80.238 108.043 80.6627 108.174 81.1947 108.174C81.6894 108.174 82.0534 108.071 82.2867 107.866C82.52 107.651 82.6367 107.399 82.6367 107.11C82.6367 106.69 82.4827 106.41 82.1747 106.27C81.876 106.13 81.4514 106.004 80.9007 105.892C80.5274 105.817 80.154 105.71 79.7807 105.57C79.4074 105.43 79.0947 105.234 78.8427 104.982C78.5907 104.721 78.4647 104.38 78.4647 103.96C78.4647 103.353 78.6887 102.859 79.1367 102.476C79.594 102.084 80.21 101.888 80.9847 101.888C81.722 101.888 82.324 102.075 82.7907 102.448C83.2667 102.812 83.542 103.335 83.6167 104.016H82.4547C82.408 103.661 82.254 103.386 81.9927 103.19C81.7407 102.985 81.4 102.882 80.9707 102.882C80.5507 102.882 80.224 102.971 79.9907 103.148C79.7667 103.325 79.6547 103.559 79.6547 103.848C79.6547 104.128 79.7994 104.347 80.0887 104.506C80.3874 104.665 80.7887 104.8 81.2927 104.912C81.722 105.005 82.128 105.122 82.5107 105.262C82.9027 105.393 83.22 105.593 83.4627 105.864C83.7147 106.125 83.8407 106.508 83.8407 107.012C83.85 107.637 83.612 108.155 83.1267 108.566C82.6507 108.967 82.002 109.168 81.1807 109.168ZM88.0547 109.168C87.2334 109.168 86.58 108.921 86.0947 108.426C85.6094 107.922 85.3667 107.152 85.3667 106.116V102.056H86.5427V105.99C86.5427 107.437 87.1354 108.16 88.3207 108.16C88.9274 108.16 89.4267 107.945 89.8187 107.516C90.22 107.077 90.4207 106.457 90.4207 105.654V102.056H91.5967V109H90.5327L90.4487 107.754C90.234 108.193 89.912 108.538 89.4827 108.79C89.0627 109.042 88.5867 109.168 88.0547 109.168ZM93.5324 109V102.056H94.5964L94.6804 103.064C94.9044 102.691 95.2031 102.401 95.5764 102.196C95.9497 101.991 96.3697 101.888 96.8364 101.888C97.3871 101.888 97.8584 102 98.2504 102.224C98.6517 102.448 98.9597 102.789 99.1744 103.246C99.4171 102.826 99.7484 102.495 100.168 102.252C100.598 102.009 101.06 101.888 101.554 101.888C102.385 101.888 103.048 102.14 103.542 102.644C104.037 103.139 104.284 103.904 104.284 104.94V109H103.122V105.066C103.122 104.347 102.978 103.806 102.688 103.442C102.399 103.078 101.984 102.896 101.442 102.896C100.882 102.896 100.416 103.115 100.042 103.554C99.6784 103.983 99.4964 104.599 99.4964 105.402V109H98.3204V105.066C98.3204 104.347 98.1757 103.806 97.8864 103.442C97.5971 103.078 97.1817 102.896 96.6404 102.896C96.0897 102.896 95.6277 103.115 95.2544 103.554C94.8904 103.983 94.7084 104.599 94.7084 105.402V109H93.5324ZM112.505 109C111.87 109 111.371 108.846 111.007 108.538C110.643 108.23 110.461 107.675 110.461 106.872V103.05H109.257V102.056H110.461L110.615 100.39H111.637V102.056H113.681V103.05H111.637V106.872C111.637 107.311 111.726 107.609 111.903 107.768C112.08 107.917 112.393 107.992 112.841 107.992H113.569V109H112.505ZM118.106 109.168C117.443 109.168 116.855 109.019 116.342 108.72C115.828 108.412 115.422 107.987 115.124 107.446C114.834 106.905 114.69 106.265 114.69 105.528C114.69 104.8 114.834 104.165 115.124 103.624C115.413 103.073 115.814 102.649 116.328 102.35C116.85 102.042 117.452 101.888 118.134 101.888C118.806 101.888 119.384 102.042 119.87 102.35C120.364 102.649 120.742 103.045 121.004 103.54C121.265 104.035 121.396 104.567 121.396 105.136C121.396 105.239 121.391 105.341 121.382 105.444C121.382 105.547 121.382 105.663 121.382 105.794H115.852C115.88 106.326 116.001 106.769 116.216 107.124C116.44 107.469 116.715 107.731 117.042 107.908C117.378 108.085 117.732 108.174 118.106 108.174C118.591 108.174 118.997 108.062 119.324 107.838C119.65 107.614 119.888 107.311 120.038 106.928H121.2C121.013 107.572 120.654 108.109 120.122 108.538C119.599 108.958 118.927 109.168 118.106 109.168ZM118.106 102.882C117.546 102.882 117.046 103.055 116.608 103.4C116.178 103.736 115.931 104.231 115.866 104.884H120.234C120.206 104.259 119.991 103.769 119.59 103.414C119.188 103.059 118.694 102.882 118.106 102.882ZM121.926 109L124.334 105.528L121.926 102.056H123.2L125.146 104.926L127.106 102.056H128.366L125.958 105.528L128.366 109H127.106L125.146 106.13L123.2 109H121.926ZM132.343 109C131.708 109 131.209 108.846 130.845 108.538C130.481 108.23 130.299 107.675 130.299 106.872V103.05H129.095V102.056H130.299L130.453 100.39H131.475V102.056H133.519V103.05H131.475V106.872C131.475 107.311 131.563 107.609 131.741 107.768C131.918 107.917 132.231 107.992 132.679 107.992H133.407V109H132.343Z" fill="black"/>
<path d="M34.108 136.388H32.548C31.836 135.556 31.004 135.14 30.052 135.14C29.124 135.14 28.34 135.472 27.7 136.136C27.068 136.8 26.752 137.6 26.752 138.536C26.752 139.456 27.068 140.26 27.7 140.948C28.34 141.636 29.116 141.98 30.028 141.98C30.484 141.98 30.924 141.876 31.348 141.668C31.78 141.452 32.148 141.164 32.452 140.804H34.048C33.624 141.548 33.056 142.128 32.344 142.544C31.64 142.96 30.864 143.168 30.016 143.168C28.76 143.168 27.684 142.712 26.788 141.8C25.9 140.88 25.456 139.788 25.456 138.524C25.456 137.252 25.9 136.172 26.788 135.284C27.684 134.396 28.764 133.952 30.028 133.952C31.036 133.952 31.94 134.24 32.74 134.816C33.276 135.2 33.732 135.724 34.108 136.388ZM39.7147 143H35.3347V134.12H36.6307V141.812H39.7147V143ZM41.9148 143H40.6188V134.12H41.9148V143ZM51.9088 136.388H50.3488C49.6368 135.556 48.8048 135.14 47.8528 135.14C46.9248 135.14 46.1408 135.472 45.5008 136.136C44.8688 136.8 44.5528 137.6 44.5528 138.536C44.5528 139.456 44.8688 140.26 45.5008 140.948C46.1408 141.636 46.9168 141.98 47.8288 141.98C48.2848 141.98 48.7248 141.876 49.1488 141.668C49.5808 141.452 49.9488 141.164 50.2528 140.804H51.8488C51.4248 141.548 50.8568 142.128 50.1448 142.544C49.4408 142.96 48.6648 143.168 47.8168 143.168C46.5608 143.168 45.4848 142.712 44.5888 141.8C43.7008 140.88 43.2568 139.788 43.2568 138.524C43.2568 137.252 43.7008 136.172 44.5888 135.284C45.4848 134.396 46.5648 133.952 47.8288 133.952C48.8368 133.952 49.7408 134.24 50.5408 134.816C51.0768 135.2 51.5328 135.724 51.9088 136.388ZM54.5635 134.12V143H53.2675V134.12H54.5635ZM54.5875 138.524L57.9595 134.12H59.5555L56.0875 138.524L59.5555 143H57.9595L54.5875 138.524ZM67.6695 143H66.2895L65.3055 140.384H62.1135L61.1295 143H59.7615L63.1335 134.12H64.2975L67.6695 143ZM64.8615 139.196L63.7335 135.8H63.7095L62.5695 139.196H64.8615ZM74.3126 140.42C74.3126 140.796 74.2406 141.152 74.0966 141.488C73.6566 142.496 72.7446 143 71.3606 143H68.7086V134.12H71.0126C72.3486 134.12 73.2126 134.616 73.6046 135.608C73.7246 135.92 73.7846 136.244 73.7846 136.58C73.7846 137.244 73.5206 137.804 72.9926 138.26C73.8726 138.764 74.3126 139.484 74.3126 140.42ZM72.4886 136.568C72.4886 135.728 71.9886 135.308 70.9886 135.308H70.0046V137.816H71.0606C72.0126 137.816 72.4886 137.4 72.4886 136.568ZM73.0166 140.42C73.0166 140.092 72.9126 139.8 72.7046 139.544C72.5366 139.32 72.3366 139.176 72.1046 139.112C71.8806 139.04 71.5966 139.004 71.2526 139.004H70.0046V141.812H71.4086C71.8566 141.812 72.2366 141.688 72.5486 141.44C72.8606 141.192 73.0166 140.852 73.0166 140.42ZM80.0975 143H75.7175V134.12H77.0135V141.812H80.0975V143ZM85.6696 143H80.8816V134.12H85.6696V135.308H82.1776V137.924H85.6696V139.112H82.1776V141.812H85.6696V143ZM94.3583 135.308H92.6543V143H91.3583V135.308H89.6543V134.12H94.3583V135.308ZM100.025 143H95.237V134.12H100.025V135.308H96.533V137.924H100.025V139.112H96.533V141.812H100.025V143ZM108.323 134.12L105.359 138.548L108.299 143H106.775L104.567 139.616L102.335 143H100.823L103.763 138.548L100.823 134.12H102.371L104.567 137.48L106.787 134.12H108.323ZM113.495 135.308H111.791V143H110.495V135.308H108.791V134.12H113.495V135.308Z" fill="#747373"/>
<path d="M25 145.076H113.591V145.316H25V145.076Z" fill="#747373"/>
<circle cx="157" cy="37" r="10" fill="#0083FB"/>
<path d="M156.771 40.963V34.003L155.415 34.315V33.379L157.275 32.563H158.091V40.963H156.771Z" fill="#F4F4F4"/>
<circle cx="181" cy="139" r="10" fill="#0083FB"/>
<path d="M180.989 143.107C180.445 143.107 179.949 143.011 179.501 142.819C179.061 142.619 178.709 142.319 178.445 141.919C178.181 141.519 178.041 141.019 178.025 140.419H179.285C179.301 140.867 179.453 141.247 179.741 141.559C180.037 141.863 180.453 142.015 180.989 142.015C181.501 142.015 181.893 141.875 182.165 141.595C182.437 141.307 182.573 140.951 182.573 140.527C182.573 140.015 182.389 139.635 182.021 139.387C181.661 139.139 181.217 139.015 180.689 139.015H180.065V137.959H180.701C181.173 137.959 181.553 137.847 181.841 137.623C182.137 137.399 182.285 137.083 182.285 136.675C182.285 136.331 182.169 136.051 181.937 135.835C181.713 135.619 181.393 135.511 180.977 135.511C180.545 135.511 180.205 135.639 179.957 135.895C179.709 136.143 179.573 136.455 179.549 136.831H178.289C178.305 136.343 178.425 135.919 178.649 135.559C178.881 135.199 179.197 134.919 179.597 134.719C179.997 134.519 180.457 134.419 180.977 134.419C181.537 134.419 182.005 134.519 182.381 134.719C182.765 134.911 183.053 135.175 183.245 135.511C183.445 135.839 183.545 136.199 183.545 136.591C183.545 137.039 183.421 137.431 183.173 137.767C182.925 138.103 182.593 138.327 182.177 138.439C182.657 138.543 183.053 138.779 183.365 139.147C183.677 139.507 183.833 139.975 183.833 140.551C183.833 141.015 183.725 141.443 183.509 141.835C183.293 142.219 182.973 142.527 182.549 142.759C182.125 142.991 181.605 143.107 180.989 143.107Z" fill="#F4F4F4"/>
<g opacity="0.5">
<line x1="114" y1="37.5" x2="147" y2="37.5" stroke="#0083FB"/>
<circle cx="114" cy="37" r="3" fill="#0083FB"/>
</g>
<g opacity="0.5">
<line x1="124" y1="138.5" x2="175" y2="138.5" stroke="#0083FB"/>
<circle cx="124" cy="139" r="3" fill="#0083FB"/>
</g>
<g opacity="0.5">
<path d="M157 100L157 114.5" stroke="#0083FB"/>
<circle cx="157" cy="103" r="3" transform="rotate(90 157 103)" fill="#0083FB"/>
</g>
<line x1="157" y1="114.5" x2="198" y2="114.5" stroke="#0083FB" stroke-opacity="0.5"/>
<circle cx="208" cy="114" r="10" fill="#0083FB"/>
<path d="M205.25 117.963V117.051C205.794 116.619 206.314 116.183 206.81 115.743C207.306 115.303 207.746 114.871 208.13 114.447C208.522 114.015 208.83 113.595 209.054 113.187C209.278 112.771 209.39 112.371 209.39 111.987C209.39 111.731 209.346 111.491 209.258 111.267C209.17 111.035 209.026 110.851 208.826 110.715C208.626 110.571 208.358 110.499 208.022 110.499C207.518 110.499 207.138 110.659 206.882 110.979C206.634 111.299 206.514 111.683 206.522 112.131H205.286C205.294 111.539 205.418 111.043 205.658 110.643C205.906 110.243 206.234 109.939 206.642 109.731C207.058 109.523 207.526 109.419 208.046 109.419C208.838 109.419 209.47 109.643 209.942 110.091C210.422 110.531 210.662 111.147 210.662 111.939C210.662 112.411 210.546 112.879 210.314 113.343C210.09 113.807 209.794 114.255 209.426 114.687C209.066 115.111 208.678 115.511 208.262 115.887C207.846 116.263 207.45 116.603 207.074 116.907H210.914V117.963H205.25Z" fill="#F4F4F4"/>
</g>
</g>
<defs>
<filter id="filter0_d" x="0" y="0" width="243" height="176" filterUnits="userSpaceOnUse" color-interpolation-filters="sRGB">
<feFlood flood-opacity="0" result="BackgroundImageFix"/>
<feColorMatrix in="SourceAlpha" type="matrix" values="0 0 0 0 0 0 0 0 0 0 0 0 0 0 0 0 0 0 127 0"/>
<feOffset dy="1"/>
<feGaussianBlur stdDeviation="2.5"/>
<feColorMatrix type="matrix" values="0 0 0 0 0 0 0 0 0 0 0 0 0 0 0 0 0 0 0.2 0"/>
<feBlend mode="normal" in2="BackgroundImageFix" result="effect1_dropShadow"/>
<feBlend mode="normal" in="SourceGraphic" in2="effect1_dropShadow" result="shape"/>
</filter>
<clipPath id="clip0">
<rect x="5" y="4" width="233" height="166" rx="10" fill="white"/>
</clipPath>
</defs>
</svg>
