<svg width="896" height="455" viewBox="0 0 896 455" fill="none" xmlns="http://www.w3.org/2000/svg">
<g filter="url(#filter0_d)">
<g clip-path="url(#clip0)">
<rect x="5" y="4" width="886" height="445" rx="10" fill="#EDEDED"/>
<path d="M316.448 391.704C315.424 395.896 313.248 399.272 309.92 401.832C306.624 404.392 302.816 405.672 298.496 405.672C293.312 405.672 288.896 403.896 285.248 400.344C281.6 396.76 279.776 392.376 279.776 387.192C279.776 382.008 281.584 377.656 285.2 374.136C288.816 370.584 293.216 368.808 298.4 368.808C301.632 368.808 304.608 369.528 307.328 370.968C310.048 372.408 312.288 374.472 314.048 377.16C315.328 379.08 316.128 381.016 316.448 382.968H306.944C306.24 381.112 305.12 379.624 303.584 378.504C302.048 377.352 300.304 376.776 298.352 376.776C295.568 376.776 293.28 377.8 291.488 379.848C289.728 381.864 288.848 384.296 288.848 387.144C288.848 389.992 289.728 392.472 291.488 394.584C293.28 396.664 295.584 397.704 298.4 397.704C300.32 397.704 302.016 397.16 303.488 396.072C304.96 394.984 306.112 393.528 306.944 391.704H316.448ZM348.802 405H340.834V402.12H340.738C340.066 403.4 338.994 404.36 337.522 405C336.082 405.608 334.562 405.912 332.962 405.912C328.962 405.912 325.73 404.552 323.266 401.832C320.802 399.112 319.57 395.72 319.57 391.656C319.57 387.688 320.818 384.328 323.314 381.576C325.81 378.824 329.026 377.448 332.962 377.448C334.562 377.448 336.066 377.768 337.474 378.408C338.914 379.016 340.002 379.944 340.738 381.192H340.834V378.36H348.802V405ZM340.834 391.656C340.834 389.704 340.194 388.088 338.914 386.808C337.666 385.528 336.066 384.888 334.114 384.888C332.194 384.888 330.61 385.56 329.362 386.904C328.146 388.216 327.538 389.832 327.538 391.752C327.538 393.608 328.178 395.192 329.458 396.504C330.738 397.816 332.306 398.472 334.162 398.472C336.082 398.472 337.666 397.816 338.914 396.504C340.194 395.192 340.834 393.576 340.834 391.656ZM368.822 385.464C366.774 385.528 365.206 385.896 364.118 386.568C363.062 387.208 362.534 388.472 362.534 390.36V405H354.566V378.36H362.054V381.192H362.15C363.43 378.696 365.654 377.448 368.822 377.448V385.464ZM399.421 405H391.837V402.12H391.741C390.269 404.616 387.613 405.864 383.773 405.864C379.773 405.864 376.541 404.504 374.077 401.784C371.645 399.032 370.429 395.64 370.429 391.608C370.429 387.64 371.645 384.296 374.077 381.576C376.541 378.824 379.725 377.448 383.629 377.448C386.765 377.448 389.373 378.504 391.453 380.616V369.48H399.421V405ZM391.885 391.56C391.885 389.64 391.245 388.056 389.965 386.808C388.685 385.528 387.085 384.888 385.165 384.888C383.245 384.888 381.629 385.528 380.317 386.808C379.037 388.056 378.397 389.64 378.397 391.56C378.397 393.544 379.005 395.192 380.221 396.504C381.469 397.784 383.085 398.424 385.069 398.424C387.053 398.424 388.685 397.784 389.965 396.504C391.245 395.192 391.885 393.544 391.885 391.56ZM455.573 391.704C454.549 395.896 452.373 399.272 449.045 401.832C445.749 404.392 441.941 405.672 437.621 405.672C432.437 405.672 428.021 403.896 424.373 400.344C420.725 396.76 418.901 392.376 418.901 387.192C418.901 382.008 420.709 377.656 424.325 374.136C427.941 370.584 432.341 368.808 437.525 368.808C440.757 368.808 443.733 369.528 446.453 370.968C449.173 372.408 451.413 374.472 453.173 377.16C454.453 379.08 455.253 381.016 455.573 382.968H446.069C445.365 381.112 444.245 379.624 442.709 378.504C441.173 377.352 439.429 376.776 437.477 376.776C434.693 376.776 432.405 377.8 430.613 379.848C428.853 381.864 427.973 384.296 427.973 387.144C427.973 389.992 428.853 392.472 430.613 394.584C432.405 396.664 434.709 397.704 437.525 397.704C439.445 397.704 441.141 397.16 442.613 396.072C444.085 394.984 445.237 393.528 446.069 391.704H455.573ZM487.927 405H479.959V402.12H479.863C479.191 403.4 478.119 404.36 476.647 405C475.207 405.608 473.687 405.912 472.087 405.912C468.087 405.912 464.855 404.552 462.391 401.832C459.927 399.112 458.695 395.72 458.695 391.656C458.695 387.688 459.943 384.328 462.439 381.576C464.935 378.824 468.151 377.448 472.087 377.448C473.687 377.448 475.191 377.768 476.599 378.408C478.039 379.016 479.127 379.944 479.863 381.192H479.959V378.36H487.927V405ZM479.959 391.656C479.959 389.704 479.319 388.088 478.039 386.808C476.791 385.528 475.191 384.888 473.239 384.888C471.319 384.888 469.735 385.56 468.487 386.904C467.271 388.216 466.663 389.832 466.663 391.752C466.663 393.608 467.303 395.192 468.583 396.504C469.863 397.816 471.431 398.472 473.287 398.472C475.207 398.472 476.791 397.816 478.039 396.504C479.319 395.192 479.959 393.576 479.959 391.656ZM523.621 391.944C523.621 395.784 522.405 399.08 519.973 401.832C517.541 404.552 514.437 405.912 510.661 405.912C507.333 405.912 504.661 404.808 502.645 402.6V413.88H494.677V378.36H502.165V381.288H502.213H502.309C504.357 378.728 507.125 377.448 510.613 377.448C514.581 377.448 517.733 378.856 520.069 381.672C522.437 384.488 523.621 387.912 523.621 391.944ZM515.653 391.704C515.653 389.784 515.013 388.168 513.733 386.856C512.485 385.544 510.901 384.888 508.981 384.888C507.061 384.888 505.461 385.544 504.181 386.856C502.933 388.168 502.309 389.784 502.309 391.704C502.309 393.592 502.949 395.192 504.229 396.504C505.509 397.816 507.093 398.472 508.981 398.472C510.869 398.472 512.453 397.816 513.733 396.504C515.013 395.192 515.653 393.592 515.653 391.704ZM540.835 384.408H536.995V405H529.027V384.408H525.091V378.36H529.027V369.48H536.995V378.36H540.835V384.408ZM552.239 375.528H544.271V369.48H552.239V375.528ZM552.239 405H544.271V378.36H552.239V405ZM581.333 381.528C584.085 384.216 585.461 387.592 585.461 391.656C585.461 395.72 584.085 399.096 581.333 401.784C578.613 404.472 575.205 405.816 571.109 405.816C567.013 405.816 563.589 404.472 560.837 401.784C558.117 399.096 556.757 395.72 556.757 391.656C556.757 387.592 558.117 384.216 560.837 381.528C563.589 378.84 567.013 377.496 571.109 377.496C575.205 377.496 578.613 378.84 581.333 381.528ZM575.669 396.408C576.885 395.064 577.493 393.48 577.493 391.656C577.493 389.832 576.885 388.264 575.669 386.952C574.453 385.608 572.933 384.936 571.109 384.936C569.285 384.936 567.765 385.608 566.549 386.952C565.333 388.264 564.725 389.832 564.725 391.656C564.725 393.48 565.333 395.064 566.549 396.408C567.765 397.72 569.285 398.376 571.109 398.376C572.933 398.376 574.453 397.72 575.669 396.408ZM614.646 405H606.678V390.456C606.678 388.696 606.39 387.336 605.814 386.376C605.238 385.416 604.134 384.936 602.502 384.936C600.774 384.936 599.574 385.432 598.902 386.424C598.262 387.384 597.942 388.744 597.942 390.504V405H589.974V378.36H597.414V381.192H597.51C599.046 378.696 601.462 377.448 604.758 377.448C605.91 377.448 607.126 377.656 608.406 378.072C609.686 378.488 610.742 379.048 611.574 379.752C613.622 381.448 614.646 384.312 614.646 388.344V405Z" fill="black"/>
<g opacity="0.5">
<rect x="39" y="38" width="818" height="297" stroke="#646464" stroke-width="4"/>
<path d="M40 38.5L855.667 331.114" stroke="#646464" stroke-width="4"/>
<path d="M854 40L40.1242 333.643" stroke="#646464" stroke-width="4"/>
</g>
<circle cx="664" cy="393" r="10" fill="#0083FB"/>
<path d="M661.25 396.963V396.051C661.794 395.619 662.314 395.183 662.81 394.743C663.306 394.303 663.746 393.871 664.13 393.447C664.522 393.015 664.83 392.595 665.054 392.187C665.278 391.771 665.39 391.371 665.39 390.987C665.39 390.731 665.346 390.491 665.258 390.267C665.17 390.035 665.026 389.851 664.826 389.715C664.626 389.571 664.358 389.499 664.022 389.499C663.518 389.499 663.138 389.659 662.882 389.979C662.634 390.299 662.514 390.683 662.522 391.131H661.286C661.294 390.539 661.418 390.043 661.658 389.643C661.906 389.243 662.234 388.939 662.642 388.731C663.058 388.523 663.526 388.419 664.046 388.419C664.838 388.419 665.47 388.643 665.942 389.091C666.422 389.531 666.662 390.147 666.662 390.939C666.662 391.411 666.546 391.879 666.314 392.343C666.09 392.807 665.794 393.255 665.426 393.687C665.066 394.111 664.678 394.511 664.262 394.887C663.846 395.263 663.45 395.603 663.074 395.907H666.914V396.963H661.25Z" fill="#F4F4F4"/>
<g opacity="0.5">
<line x1="621" y1="394.5" x2="654" y2="394.5" stroke="#0083FB"/>
<circle cx="621" cy="394" r="3" fill="#0083FB"/>
</g>
<g opacity="0.5">
<path d="M759 337L759 351.5" stroke="#0083FB"/>
<circle cx="759" cy="340" r="3" transform="rotate(90 759 340)" fill="#0083FB"/>
</g>
<circle cx="810" cy="351" r="10" fill="#0083FB"/>
<path d="M809.77 354.963V348.003L808.414 348.315V347.379L810.274 346.563H811.09V354.963H809.77Z" fill="#F4F4F4"/>
<line x1="759" y1="351.5" x2="800" y2="351.5" stroke="#0083FB" stroke-opacity="0.5"/>
</g>
</g>
<defs>
<filter id="filter0_d" x="0" y="0" width="896" height="455" filterUnits="userSpaceOnUse" color-interpolation-filters="sRGB">
<feFlood flood-opacity="0" result="BackgroundImageFix"/>
<feColorMatrix in="SourceAlpha" type="matrix" values="0 0 0 0 0 0 0 0 0 0 0 0 0 0 0 0 0 0 127 0"/>
<feOffset dy="1"/>
<feGaussianBlur stdDeviation="2.5"/>
<feColorMatrix type="matrix" values="0 0 0 0 0 0 0 0 0 0 0 0 0 0 0 0 0 0 0.2 0"/>
<feBlend mode="normal" in2="BackgroundImageFix" result="effect1_dropShadow"/>
<feBlend mode="normal" in="SourceGraphic" in2="effect1_dropShadow" result="shape"/>
</filter>
<clipPath id="clip0">
<rect x="5" y="4" width="886" height="445" rx="10" fill="white"/>
</clipPath>
</defs>
</svg>
