<svg width="23" height="23" viewBox="0 0 23 23" fill="none" xmlns="http://www.w3.org/2000/svg">
<g clip-path="url(#clip0)">
<mask id="mask0" mask-type="alpha" maskUnits="userSpaceOnUse" x="0" y="0" width="24" height="23">
<path fill-rule="evenodd" clip-rule="evenodd" d="M3.61272 22.0695C3.39205 22.0727 3.17179 22.0495 2.95661 22.0002C2.6112 21.9073 2.28922 21.7419 2.01181 21.515C1.63899 21.2212 1.3382 20.8452 1.13262 20.416C0.971382 20.0582 0.899314 19.6662 0.92266 19.2741C0.931076 19.1423 0.953065 19.0118 0.988271 18.8846C0.996773 18.8514 0.996396 18.8165 0.987179 18.7835C0.977961 18.7505 0.960231 18.7205 0.935782 18.6965C0.606857 18.2431 0.303476 17.7716 0.0270676 17.284C0.00948887 17.2601 0 17.2312 0 17.2015C0 17.1718 0.00948887 17.1428 0.0270676 17.119C0.177141 16.8756 0.343753 16.6429 0.525713 16.4226C0.684586 16.2261 0.853202 16.0377 1.03092 15.8582L1.08669 15.8021C1.1523 15.7361 1.19823 15.713 1.26712 15.8021C1.64438 16.3401 2.01837 16.8318 2.41531 17.3269C2.74337 17.7229 3.07143 18.1058 3.41917 18.482C3.7669 18.8582 4.07528 19.1916 4.43286 19.5282C4.88793 19.9738 5.36533 20.3957 5.86318 20.7922C6.26669 21.1223 6.67348 21.4259 7.09995 21.7097C7.15244 21.7427 7.13604 21.7592 7.09995 21.7955C6.69139 22.2396 6.23349 22.6349 5.73524 22.9738C5.72179 22.9847 5.705 22.9907 5.68767 22.9907C5.67035 22.9907 5.65355 22.9847 5.6401 22.9738C5.17888 22.7146 4.73406 22.4269 4.3082 22.1124C4.26134 22.0645 4.20208 22.0307 4.13714 22.015C4.0722 21.9992 4.00418 22.0021 3.94077 22.0233C3.87184 22.0396 3.80156 22.0496 3.73082 22.053C3.69145 22.0695 3.6488 22.0497 3.61272 22.0695Z" fill="white"/>
<path fill-rule="evenodd" clip-rule="evenodd" d="M22.8074 8.33351C22.4273 6.17144 21.3437 4.19779 19.7269 2.72295C17.8795 0.960528 15.4263 -0.0150743 12.8804 0.000176136C12.3627 -0.00263114 11.8458 0.0393275 11.3352 0.125589C10.242 0.298954 9.18458 0.652427 8.20559 1.17179C7.66226 1.45973 7.14807 1.80017 6.67029 2.18829C6.38293 2.41746 6.10806 2.66204 5.84686 2.92097C5.65003 3.12889 5.44008 3.32361 5.25308 3.54143C5.06609 3.75925 4.94471 3.89787 4.80037 4.08268C4.51728 4.45129 4.25865 4.83827 4.02615 5.2411C3.71349 5.77879 3.45102 6.34446 3.2421 6.93087C3.11144 7.29042 3.0019 7.65739 2.91405 8.02988C2.82547 8.42592 2.7533 8.82856 2.69753 9.2312C2.66144 9.47542 2.65816 9.72625 2.63848 9.97377C2.63848 10.02 2.63848 10.0728 2.63848 10.119V10.8913C2.66144 10.9441 2.63848 11.0035 2.65488 11.0596C2.66089 11.3648 2.68829 11.6692 2.7369 11.9705C2.77708 12.293 2.83734 12.6126 2.91733 12.9276C2.93373 12.9903 2.96653 13.053 2.91733 13.119C2.78282 13.2807 2.64504 13.449 2.51382 13.6008C2.316 13.8539 2.13307 14.1184 1.96596 14.3929C1.95183 14.4101 1.94409 14.4317 1.94409 14.454C1.94409 14.4763 1.95183 14.4979 1.96596 14.515C2.11359 14.7593 2.25793 15.0101 2.41212 15.251C2.83989 15.9322 3.31109 16.5849 3.82276 17.2048C4.12785 17.5711 4.43951 17.921 4.75772 18.2708C4.90863 18.4358 5.08578 18.6008 5.23996 18.7494C5.39415 18.8979 5.61066 19.1058 5.80422 19.2774C6.06666 19.515 6.33567 19.7395 6.60795 19.9606C6.95569 20.2444 7.31656 20.5183 7.69054 20.7758C8.06452 21.0332 8.43195 21.2741 8.81905 21.4985C8.8506 21.5243 8.88998 21.5383 8.93059 21.5383C8.9712 21.5383 9.01058 21.5243 9.04213 21.4985C9.4487 21.2351 9.82691 20.9298 10.1706 20.5876C10.2002 20.5612 10.2264 20.5282 10.2658 20.548C10.3051 20.5678 10.4101 20.5777 10.479 20.5975C10.8363 20.6878 11.199 20.755 11.5649 20.7989C11.8339 20.8319 12.1095 20.8352 12.3817 20.855C12.467 20.855 12.5556 20.855 12.6376 20.855C12.7139 20.8467 12.7909 20.8467 12.8673 20.855C12.9526 20.8319 13.0379 20.855 13.1231 20.855C13.3528 20.855 13.5791 20.8286 13.8088 20.8055C14.3632 20.7381 14.9116 20.6277 15.4491 20.4754C16.3085 20.2317 17.1316 19.8731 17.8964 19.4094C18.7829 18.8752 19.5828 18.2074 20.2682 17.4292C21.3873 16.2273 22.2032 14.7727 22.6474 13.1876C23.0915 11.6025 23.1509 9.93328 22.8205 8.32031L22.8074 8.33351ZM18.8707 16.5843C17.7719 17.73 16.3633 18.5264 14.8192 18.8748C14.0975 19.0543 13.3543 19.131 12.6114 19.1025C10.536 19.0426 8.55709 18.2073 7.06067 16.7593C5.72475 15.5188 4.82558 13.8752 4.49856 12.0761C4.22334 10.7692 4.25342 9.41597 4.58645 8.12282C4.91947 6.82966 5.54633 5.63194 6.41768 4.62394C7.6074 3.22119 9.23651 2.26787 11.0367 1.92097C11.6892 1.77717 12.3573 1.71839 13.0247 1.74605C14.8758 1.79863 16.6568 2.46979 18.0866 3.65364C19.5718 4.85938 20.6163 6.52779 21.0555 8.39622C21.2254 9.08492 21.3091 9.79225 21.3049 10.5018C21.3244 12.7769 20.4522 14.9681 18.8772 16.6008L18.8707 16.5843Z" fill="white"/>
<path fill-rule="evenodd" clip-rule="evenodd" d="M12.6999 3.44569C14.3125 3.44439 15.8772 3.9973 17.1349 5.01284C18.3925 6.02838 19.2676 7.44562 19.6153 9.02984C20.0286 10.778 19.7794 12.6183 18.9165 14.1916C18.8278 14.3818 18.7177 14.5611 18.5885 14.7262C18.4045 14.9384 18.1683 15.0981 17.9035 15.1893C17.6388 15.2805 17.3548 15.2999 17.0802 15.2458C16.8056 15.1916 16.55 15.0656 16.3391 14.8806C16.1282 14.6955 15.9694 14.4579 15.8787 14.1916C15.6644 13.5728 15.2199 13.0617 14.6387 12.7658C14.2233 12.5415 13.7551 12.435 13.2841 12.4577C12.8132 12.4804 12.3573 12.6314 11.965 12.8945C11.4426 13.2038 10.8569 13.3889 10.2526 13.4357C9.64829 13.4826 9.04132 13.3899 8.47801 13.1648C7.9147 12.9397 7.40995 12.5882 7.00227 12.1369C6.59458 11.6857 6.29475 11.1468 6.12564 10.5612C5.96232 10.0286 5.9072 9.4683 5.96356 8.91379C6.01992 8.35928 6.18661 7.82184 6.45369 7.33348C6.93928 6.3632 7.6405 5.51849 8.50298 4.86488C9.36546 4.21126 10.366 3.76629 11.427 3.5645C11.5779 3.5348 11.7288 3.51169 11.883 3.49189C12.1539 3.45758 12.4269 3.44214 12.6999 3.44569ZM15.59 17.0496C15.8227 16.9983 16.037 16.8842 16.2101 16.7196C16.3029 16.62 16.369 16.4982 16.4022 16.3658C16.4354 16.2334 16.4346 16.0946 16.3998 15.9626C16.3651 15.8306 16.2975 15.7096 16.2035 15.6111C16.1094 15.5126 15.992 15.4398 15.8623 15.3995C15.6752 15.3515 15.5056 15.2507 15.3735 15.1091C15.2256 14.9465 15.1137 14.7541 15.0455 14.5447C14.9344 14.269 14.734 14.0391 14.4767 13.8923C14.2195 13.7456 13.9205 13.6905 13.6283 13.7361C13.4286 13.7719 13.2396 13.8531 13.0758 13.9734C12.9119 14.0936 12.7774 14.2499 12.6825 14.4303C12.5877 14.6107 12.5349 14.8104 12.5282 15.0144C12.5216 15.2183 12.5612 15.4212 12.6441 15.6074C12.8291 16.0656 13.1472 16.457 13.557 16.7302C13.9667 17.0034 14.449 17.1458 14.9405 17.1388C15.1604 17.1449 15.3798 17.1148 15.59 17.0496Z" fill="white"/>
</mask>
<g mask="url(#mask0)">
<rect x="-2" y="-4" width="29" height="30" fill="url(#paint0_linear)"/>
</g>
</g>
<defs>
<linearGradient id="paint0_linear" x1="-2" y1="11" x2="25.5" y2="11" gradientUnits="userSpaceOnUse">
<stop stop-color="#EC006A"/>
<stop offset="1" stop-color="#992F8B"/>
</linearGradient>
<clipPath id="clip0">
<rect width="23" height="23" fill="white"/>
</clipPath>
</defs>
</svg>
