<svg width="150" height="29" viewBox="0 0 150 29" fill="none" xmlns="http://www.w3.org/2000/svg">
<mask id="mask0" mask-type="alpha" maskUnits="userSpaceOnUse" x="0" y="0" width="151" height="29">
<path fill-rule="evenodd" clip-rule="evenodd" d="M67.9352 23.8625C66.8451 23.8625 65.7505 23.8625 64.6559 23.8625C64.3765 23.8625 64.3032 23.7846 64.3032 23.4961C64.3032 17.2887 64.3032 11.0812 64.3032 4.87382C64.3032 4.59444 64.3582 4.49826 64.6513 4.50284C66.0253 4.50284 67.3718 4.50284 68.7321 4.50284C68.984 4.50284 69.0802 4.56238 69.1489 4.84634C70.2343 9.34389 71.3427 13.8323 72.4419 18.3298C72.4623 18.4523 72.5109 18.5683 72.5839 18.6688C72.7868 18.0937 72.94 17.5022 73.0419 16.9009C73.738 14.2216 74.3426 11.5148 75.0479 8.83094C75.4005 7.49816 75.6891 6.15622 76.0372 4.8326C76.0967 4.59902 76.1837 4.52116 76.3944 4.52116C77.7959 4.52116 79.2065 4.52116 80.6126 4.52116C81.0248 4.52116 80.9378 4.7868 80.9378 5.02038C80.9378 10.1622 80.9378 15.3025 80.9378 20.4412C80.9378 21.4626 80.9378 22.4839 80.9378 23.5098C80.9378 23.7984 80.8645 23.8808 80.5805 23.8762C79.4905 23.8762 78.3959 23.8762 77.3012 23.8762C77.2488 23.7295 77.2346 23.5719 77.26 23.4182C77.26 19.7542 77.26 16.0902 77.26 12.4583C77.26 12.3301 77.3699 12.1423 77.1593 12.0598C76.7562 13.4796 76.344 14.8948 75.9456 16.3192C75.2616 18.7619 74.5823 21.2168 73.9075 23.6839C73.8571 23.8487 73.7976 23.8945 73.6464 23.8945C72.964 23.8945 72.2724 23.8945 71.6037 23.8945C71.2236 23.8945 71.2602 23.5419 71.2007 23.3404C70.7931 21.9664 70.4175 20.5557 70.0328 19.1588C69.671 17.8444 69.3229 16.5253 68.9611 15.2154C68.6817 14.1941 68.384 13.1728 68.0955 12.1514C67.8573 12.243 67.9855 12.4446 67.9855 12.6094C67.9855 16.2185 67.9855 19.8275 67.9855 23.4411C68.0032 23.5836 67.9859 23.7282 67.9352 23.8625Z" fill="#141414"/>
<path fill-rule="evenodd" clip-rule="evenodd" d="M131.904 9.98967C131.904 8.82635 131.624 7.76379 130.479 7.24167C129 6.59131 127.273 7.34243 127.273 9.19733C127.216 9.35729 127.216 9.53201 127.273 9.69197C127.232 10.4935 127.731 10.9789 128.304 11.4003C129.244 12.0174 130.256 12.5172 131.318 12.8888C132.692 13.4659 133.979 14.1895 134.84 15.4948C135.311 16.2456 135.588 17.1018 135.646 17.9863C135.677 18.3291 135.677 18.674 135.646 19.0168C135.394 21.7923 133.498 23.3037 131.089 23.6976C130.754 23.7526 130.415 23.7754 130.076 23.8121C129.798 23.8406 129.517 23.8406 129.238 23.8121C127.919 23.7789 126.634 23.3793 125.528 22.6579C124.966 22.2959 124.484 21.822 124.112 21.2658C123.74 20.7095 123.486 20.0828 123.367 19.4245C123.303 19.0855 123.293 18.7466 123.252 18.4077C123.213 18.1527 123.213 17.8932 123.252 17.6383C123.695 17.5582 124.146 17.5382 124.594 17.5787C125.19 17.5787 125.785 17.5787 126.385 17.5787C126.747 17.5787 126.843 17.652 126.843 18.0367C126.823 18.4504 126.886 18.8639 127.027 19.2531C127.169 19.6423 127.386 19.9994 127.667 20.3038C128.386 21.032 130.479 21.3252 131.395 20.226C131.679 19.8695 131.868 19.4465 131.943 18.997C132.019 18.5475 131.978 18.0862 131.826 17.6566C131.588 16.7635 130.873 16.3101 130.141 15.8933C129.298 15.4353 128.359 15.1834 127.498 14.762C126.599 14.3521 125.758 13.8254 124.997 13.1957C124.274 12.5629 123.789 11.7014 123.623 10.7545C123.416 9.73051 123.468 8.67107 123.774 7.67219C124.1 6.68181 124.744 5.82686 125.606 5.24021C127.676 3.72882 131.29 3.77004 133.31 5.24021C133.956 5.68221 134.49 6.26872 134.87 6.95323C135.25 7.63773 135.466 8.40139 135.499 9.18359C135.499 9.42633 135.549 9.64159 135.572 9.90723C135.536 10.0492 135.426 10.0629 135.307 10.0629H132.055C132.025 10.072 131.993 10.0695 131.965 10.0559C131.937 10.0423 131.915 10.0187 131.904 9.98967Z" fill="#141414"/>
<path fill-rule="evenodd" clip-rule="evenodd" d="M110.689 4.50293C111.294 4.50293 111.903 4.50293 112.521 4.50293C115.315 4.50293 118.109 4.50293 120.907 4.50293C121.274 4.50293 121.365 4.59453 121.365 4.96093C121.342 5.67083 121.365 6.39447 121.365 7.10895C121.365 7.39749 121.287 7.47077 121.008 7.46619C118.947 7.46619 116.886 7.46619 114.834 7.46619C114.477 7.46619 114.376 7.54863 114.376 7.92419C114.376 9.29818 114.376 10.6722 114.376 12.0462C114.376 12.3301 114.454 12.4126 114.738 12.4126C116.433 12.4126 118.127 12.4126 119.822 12.4126C120.147 12.4126 120.239 12.495 120.229 12.8248C120.202 13.5209 120.202 14.2263 120.229 14.927C120.229 15.2842 120.161 15.385 119.771 15.385C118.114 15.3621 116.437 15.385 114.779 15.385C114.463 15.385 114.362 15.4491 114.362 15.788C114.362 17.3956 114.362 18.994 114.362 20.6108C114.362 20.7757 114.303 20.9634 114.596 20.9634C116.825 20.9634 119.055 20.9543 121.287 20.9359C121.315 20.9359 121.356 20.9634 121.356 20.9817C121.395 21.9572 121.385 22.934 121.324 23.9084H110.648C110.594 23.7717 110.579 23.6224 110.607 23.4778C110.607 17.3132 110.607 11.1454 110.607 4.97467C110.611 4.79605 110.515 4.60369 110.689 4.50293Z" fill="#141414"/>
<path fill-rule="evenodd" clip-rule="evenodd" d="M43.0933 17.5842C44.1284 17.5842 45.1635 17.6071 46.194 17.5842C46.5375 17.5842 46.652 17.6804 46.6245 18.0422C46.5604 19.3429 46.368 20.607 45.5894 21.7062C44.7284 22.8832 43.5101 23.4328 42.1361 23.7168C41.7644 23.775 41.3898 23.8132 41.014 23.8313C40.7097 23.8669 40.4023 23.8669 40.098 23.8313C39.2072 23.8065 38.3279 23.6235 37.5011 23.2909C36.738 22.9677 36.0557 22.4799 35.503 21.8623C34.9504 21.2448 34.541 20.5127 34.3043 19.7185C34.0693 18.9948 33.9307 18.2433 33.8921 17.4834C33.8921 15.1385 33.8921 12.8073 33.9241 10.4669C33.9388 9.126 34.3274 7.81582 35.0462 6.6838C35.5077 5.9824 36.1236 5.39602 36.8469 4.96969C37.5702 4.54335 38.3815 4.28838 39.2186 4.22435C40.7021 4.01555 42.2145 4.2036 43.6017 4.76936C44.3367 5.06853 44.9837 5.54949 45.482 6.16714C45.9803 6.78478 46.3135 7.51887 46.4504 8.30054C46.5711 8.87741 46.6309 9.46533 46.6291 10.0547C46.6291 10.3203 46.5604 10.3936 46.2993 10.389C45.3833 10.389 44.5131 10.389 43.6154 10.389C43.02 10.389 42.9742 10.3157 42.9696 9.6837C43.0041 9.31637 42.9543 8.94602 42.8242 8.6008C42.694 8.25558 42.4869 7.94457 42.2185 7.6914C41.9026 7.43343 41.5331 7.24903 41.137 7.15159C40.7409 7.05415 40.3281 7.04612 39.9285 7.12806C38.4721 7.38912 37.8584 8.15856 37.6385 9.65622C37.5433 10.6715 37.5157 11.6921 37.5561 12.7111C37.5561 14.369 37.5561 16.0316 37.5927 17.6895C37.5916 18.436 37.8046 19.1672 38.2064 19.7963C38.42 20.1546 38.7298 20.4458 39.1006 20.6369C39.4714 20.8279 39.8883 20.9112 40.3041 20.8772C40.4619 20.9283 40.6318 20.9283 40.7896 20.8772C41.311 20.91 41.8245 20.7362 42.2187 20.3934C42.613 20.0505 42.8565 19.5662 42.8964 19.0452C42.933 18.8025 43.0796 18.5597 42.9834 18.2987C43.0841 18.0742 42.9055 17.7949 43.0933 17.5842Z" fill="#141414"/>
<path fill-rule="evenodd" clip-rule="evenodd" d="M107.259 15.7926C105.267 15.7926 103.275 15.7513 101.282 15.8155C101.226 15.9612 101.211 16.12 101.241 16.2735C101.241 18.6428 101.241 21.0122 101.241 23.3816C101.266 23.5353 101.252 23.6929 101.2 23.8396C100.073 23.8396 98.9419 23.8396 97.8152 23.8396C97.545 23.8396 97.4717 23.7755 97.4717 23.4961C97.4717 17.2734 97.4717 11.0523 97.4717 4.83264C97.4717 4.57158 97.5266 4.47998 97.806 4.47998C101.235 4.47998 104.664 4.47998 108.093 4.47998C108.367 4.47998 108.482 4.54868 108.473 4.84638C108.473 5.58834 108.473 6.33488 108.473 7.08142C108.473 7.3837 108.372 7.43866 108.097 7.43866C105.986 7.43866 103.875 7.43866 101.754 7.43866C101.603 7.43866 101.438 7.43866 101.296 7.43866C101.257 7.50163 101.241 7.57595 101.25 7.64934V12.5912C101.24 12.6646 101.256 12.7391 101.296 12.8018L104.841 12.8293C105.647 12.8293 106.462 12.8293 107.273 12.8293C107.355 13.2996 107.372 13.7788 107.323 14.2537C107.364 14.7674 107.343 15.2841 107.259 15.7926Z" fill="#141414"/>
<path fill-rule="evenodd" clip-rule="evenodd" d="M141.847 7.48895C140.556 7.48895 139.264 7.46605 137.977 7.48895C137.688 7.48895 137.583 7.42483 137.597 7.10881C137.597 6.36227 137.597 5.62031 137.597 4.86919C137.597 4.59897 137.688 4.53027 137.936 4.53027C141.841 4.53027 145.745 4.53027 149.647 4.53027C149.935 4.53027 150.009 4.63103 150 4.91041C150 5.65695 150 6.39891 150 7.14545C150 7.41567 149.931 7.49353 149.665 7.49353C148.474 7.49353 147.279 7.49353 146.093 7.49353C145.635 7.49353 145.575 7.64009 145.575 8.05229C145.575 13.1636 145.575 18.2748 145.575 23.3907C145.575 23.812 145.474 23.922 145.067 23.9128C144.018 23.8762 142.969 23.9128 141.916 23.9128C141.863 23.7661 141.849 23.6085 141.875 23.4548C141.875 18.3115 141.875 13.1727 141.875 8.02939C141.923 7.8509 141.913 7.6616 141.847 7.48895Z" fill="#141414"/>
<path fill-rule="evenodd" clip-rule="evenodd" d="M62.1141 10.2919C62.0043 8.77688 61.3471 7.35354 60.265 6.28748C59.1829 5.22141 57.7499 4.58544 56.2334 4.49823C53.7098 4.28755 51.4473 4.77761 49.8214 6.94852C49.0256 8.00801 48.5776 9.28802 48.539 10.6125C48.4566 12.8018 48.539 14.6658 48.5161 16.8642C48.5161 19.1542 49.3726 21.4442 51.3786 22.7541C53.8472 24.3571 58.0059 24.1693 60.2592 21.9709C60.8811 21.3476 61.3724 20.6065 61.7043 19.791C62.0361 18.9754 62.202 18.1019 62.192 17.2215C62.3055 14.9092 62.2811 12.5921 62.1187 10.2828L62.1141 10.2919ZM57.6028 18.1329C55.9449 19.0489 54.3007 16.6627 55.7159 16.0169C55.9179 15.9196 56.15 15.9054 56.3624 15.9773C56.5747 16.0492 56.7504 16.2016 56.8517 16.4016C57.0065 16.753 57.2853 17.0351 57.6349 17.194C57.7201 17.2409 57.7907 17.3106 57.8387 17.3952C57.8868 17.4798 57.9104 17.576 57.9071 17.6733C57.9038 17.7705 57.8736 17.8649 57.8199 17.9461C57.7662 18.0272 57.6911 18.0918 57.6028 18.1329ZM59.6226 16.3558C59.529 16.5544 59.3788 16.7209 59.1908 16.8344C59.0028 16.9478 58.7855 17.0031 58.5662 16.9933C58.3469 16.9835 58.1353 16.9091 57.9582 16.7793C57.7811 16.6496 57.6463 16.4704 57.5708 16.2642C57.0349 15.0551 55.9036 14.9956 54.7632 15.6185C52.1297 17.0612 49.4917 14.3361 50.8657 11.6842C53.206 7.17294 60.1218 8.50114 60.3371 14.0842C60.3155 14.8932 60.0681 15.6801 59.6226 16.3558Z" fill="#141414"/>
<path fill-rule="evenodd" clip-rule="evenodd" d="M95.6395 10.1912C95.6074 9.92093 95.5753 9.64155 95.5341 9.37133C95.352 8.15434 94.7799 7.02933 93.9036 6.16534C93.3464 5.62879 92.6883 5.20803 91.9674 4.92738C91.2465 4.64673 90.4772 4.51176 89.7038 4.53028C87.6107 4.5028 85.5131 4.53028 83.42 4.53028C83.1223 4.53028 83.0674 4.63104 83.0674 4.90126C83.0674 11.1056 83.0674 17.3115 83.0674 23.5189C83.0674 23.8075 83.1452 23.8899 83.4292 23.8853C84.533 23.8853 85.6459 23.8853 86.7451 23.8853C86.8012 23.7395 86.817 23.5813 86.7909 23.4273V17.3955C86.7909 16.8963 86.7909 16.9008 87.2489 16.8917C88.1374 16.8917 89.026 16.8917 89.9145 16.8917C90.7704 16.8604 91.6113 16.6579 92.3877 16.2963C94.4578 15.2795 95.4334 13.5254 95.6257 11.2583C95.6638 10.9113 95.6638 10.5611 95.6257 10.2141L95.6395 10.1912ZM91.6824 12.3071C91.5418 12.7908 91.2407 13.2123 90.8286 13.502C90.4165 13.7917 89.918 13.9324 89.4153 13.9009C88.6733 13.9009 87.9268 13.878 87.1802 13.9009C86.823 13.9009 86.7497 13.7819 86.7589 13.4429C86.7818 12.5269 86.7589 11.5697 86.7589 10.64C86.7589 9.71025 86.7589 8.73929 86.7589 7.79124C86.7589 7.5256 86.8184 7.434 87.0932 7.44316C87.7527 7.44316 88.4122 7.44316 89.0718 7.44316C90.7251 7.44316 91.5266 8.09351 91.8564 9.73315C92.0524 10.5911 91.9919 11.4878 91.6824 12.3117V12.3071Z" fill="#141414"/>
<path fill-rule="evenodd" clip-rule="evenodd" d="M4.42893 26.9216C4.15794 26.9256 3.88741 26.898 3.62285 26.8392C3.19944 26.7233 2.80481 26.5205 2.46411 26.2438C2.00476 25.885 1.63348 25.426 1.37865 24.9018C1.18361 24.4712 1.09562 23.9998 1.12217 23.5278C1.12828 23.3734 1.14976 23.22 1.18629 23.0698C1.19615 23.0294 1.19543 22.987 1.1842 22.9469C1.17297 22.9068 1.15161 22.8703 1.12217 22.8408C0.725696 22.271 0.361768 21.6793 0.0321338 21.0684C0.0112299 21.0389 0 21.0037 0 20.9676C0 20.9315 0.0112299 20.8963 0.0321338 20.8668C0.217558 20.5696 0.422585 20.285 0.645853 20.015C0.842793 19.7768 1.04889 19.557 1.26415 19.328L1.33285 19.2593C1.41529 19.1814 1.47025 19.1539 1.55727 19.2593C1.98779 19.9005 2.47327 20.505 2.93127 21.0913C3.32515 21.5722 3.74193 22.0393 4.16329 22.5019C4.58465 22.9645 4.97853 23.3675 5.40447 23.7751C5.96781 24.3202 6.54947 24.8423 7.16319 25.3278C7.65782 25.7216 8.15704 26.0972 8.67916 26.4453C8.74328 26.4865 8.72496 26.5094 8.67916 26.5506C8.17914 27.0945 7.61646 27.5772 7.00289 27.9887C6.98561 28.0014 6.96476 28.0082 6.94335 28.0082C6.92193 28.0082 6.90108 28.0014 6.88381 27.9887C6.31527 27.6673 5.76624 27.3125 5.23959 26.9262C5.18084 26.8673 5.10717 26.8255 5.02648 26.8054C4.94579 26.7852 4.86113 26.7874 4.78159 26.8117C4.69751 26.8323 4.6116 26.8446 4.52511 26.8483C4.52969 26.9216 4.47473 26.8987 4.42893 26.9216Z" fill="#141414"/>
<path fill-rule="evenodd" clip-rule="evenodd" d="M27.9886 10.1632C27.5208 7.52721 26.1919 5.12076 24.2101 3.32073C21.9423 1.17054 18.9309 -0.0192796 15.8058 0.000236338C15.1722 -0.00336965 14.5394 0.0471943 13.9143 0.151376C12.5745 0.361869 11.279 0.793698 10.0808 1.42919C9.41432 1.78039 8.78384 2.19611 8.19846 2.67037C7.8436 2.95583 7.50564 3.26168 7.18629 3.58637C6.94355 3.83827 6.68707 4.07643 6.45807 4.34207C6.22907 4.60771 6.08251 4.77717 5.90389 5.00159C5.55305 5.44944 5.23323 5.92076 4.94667 6.41223C4.55869 7.07184 4.23361 7.76648 3.97571 8.48697C3.81722 8.9247 3.68417 9.37123 3.57725 9.82432C3.46733 10.3098 3.38031 10.7999 3.31161 11.2899C3.26581 11.5876 3.26123 11.8945 3.24291 12.2059C3.23656 12.2601 3.22584 12.3137 3.21085 12.3662V13.2822C3.23833 13.3463 3.21085 13.4196 3.21085 13.4883C3.21684 13.8611 3.24898 14.233 3.30703 14.6013C3.3571 14.9946 3.43051 15.3846 3.52687 15.7692C3.52687 15.847 3.59099 15.9203 3.52687 16.0027C3.36199 16.1997 3.19253 16.3875 3.03223 16.589C2.78813 16.898 2.56182 17.2206 2.35439 17.5554C2.33768 17.577 2.32861 17.6036 2.32861 17.6309C2.32861 17.6583 2.33768 17.6848 2.35439 17.7065C2.53759 18.0042 2.71163 18.3111 2.89941 18.6225C3.42731 19.4521 4.00707 20.2476 4.63523 21.0041C5.00621 21.4621 5.39093 21.8743 5.78023 22.3048C5.96801 22.5063 6.16953 22.6987 6.37105 22.8865C6.57257 23.0742 6.82905 23.3216 7.06262 23.5322C7.38322 23.8208 7.71298 24.091 8.04732 24.3658C8.47784 24.7139 8.91752 25.0436 9.37552 25.3551C9.83352 25.6665 10.2915 25.9642 10.7495 26.239C10.7878 26.2699 10.8355 26.2867 10.8846 26.2867C10.9338 26.2867 10.9815 26.2699 11.0197 26.239C11.5141 25.9171 11.9745 25.5457 12.3937 25.1307C12.4304 25.0986 12.4624 25.0574 12.5128 25.0803C12.5984 25.1059 12.6856 25.1258 12.7739 25.1398C13.2125 25.2492 13.6576 25.3303 14.1067 25.3826C14.4364 25.4238 14.7753 25.4284 15.1143 25.4513C15.2196 25.4513 15.3249 25.4513 15.4257 25.4513C15.5185 25.4409 15.6122 25.4409 15.7051 25.4513C15.8104 25.4238 15.9158 25.4513 16.0165 25.4513C16.3005 25.4513 16.5799 25.4238 16.8592 25.3917C17.5401 25.3148 18.2139 25.1847 18.8744 25.0024C19.9282 24.7074 20.9373 24.2714 21.8743 23.7063C22.9628 23.0533 23.9451 22.2378 24.7872 21.288C26.1744 19.8267 27.1895 18.053 27.7468 16.1167C28.304 14.1804 28.3869 12.1384 27.9886 10.1632ZM23.1659 20.2392C21.8162 21.6361 20.0872 22.6073 18.192 23.033C17.3072 23.2514 16.3959 23.344 15.4852 23.3078C12.9377 23.2378 10.5077 22.2205 8.6702 20.4545C7.03253 18.9408 5.93006 16.9368 5.52833 14.7432C5.19229 13.1504 5.22997 11.5014 5.63842 9.92561C6.04687 8.34982 6.81498 6.89012 7.88244 5.66111C9.33706 3.9438 11.334 2.77408 13.5433 2.34519C14.343 2.17003 15.1618 2.0977 15.9799 2.12993C18.2511 2.1934 20.4365 3.01209 22.1903 4.45657C24.0209 5.92175 25.3103 7.95579 25.8543 10.2365C26.0582 11.0836 26.1552 11.953 26.1429 12.8242C26.1623 15.5935 25.0932 18.2597 23.1659 20.2484V20.2392Z" fill="#141414"/>
<path fill-rule="evenodd" clip-rule="evenodd" d="M15.5767 4.2002C17.5569 4.19998 19.478 4.87516 21.0227 6.11422C22.5673 7.35328 23.6432 9.08212 24.0726 11.0152C24.5808 13.1483 24.2737 15.3943 23.2115 17.3127C23.1035 17.5437 22.9698 17.7619 22.8131 17.9631C22.5877 18.2221 22.2982 18.4174 21.9737 18.5294C21.6491 18.6413 21.3008 18.6661 20.9636 18.6012C20.6265 18.5363 20.3123 18.3839 20.0525 18.1594C19.7928 17.9349 19.5965 17.6461 19.4834 17.3219C19.2248 16.5623 18.679 15.9343 17.9629 15.5723C17.4534 15.2996 16.8797 15.1697 16.3024 15.1963C15.7252 15.2229 15.1658 15.4051 14.6836 15.7235C14.0427 16.1012 13.3239 16.3274 12.5822 16.3847C11.8404 16.4419 11.0954 16.3288 10.4042 16.0539C9.71289 15.7789 9.09366 15.3495 8.59384 14.7985C8.09403 14.2475 7.72688 13.5894 7.52049 12.8747C7.3202 12.225 7.25346 11.5416 7.3243 10.8654C7.39514 10.1893 7.60209 9.53452 7.93269 8.94049C8.52872 7.76101 9.38812 6.73447 10.4444 5.94028C11.5007 5.1461 12.7255 4.60556 14.0241 4.3605C14.2073 4.31928 14.3951 4.29638 14.5828 4.27348C14.912 4.22589 15.2441 4.2014 15.5767 4.2002ZM19.1262 20.7935C19.4117 20.7339 19.6749 20.5959 19.8865 20.3951C19.9993 20.2737 20.0795 20.1258 20.1196 19.9651C20.1597 19.8044 20.1584 19.6361 20.1159 19.476C20.0734 19.3159 19.9909 19.1692 19.8763 19.0496C19.7617 18.93 19.6187 18.8414 19.4605 18.7921C19.2315 18.733 19.0236 18.6108 18.8606 18.4394C18.6792 18.2414 18.5418 18.0073 18.4575 17.7524C18.3206 17.4163 18.0743 17.1363 17.7584 16.9576C17.4426 16.7789 17.0757 16.712 16.7171 16.7677C16.4719 16.8123 16.2401 16.9122 16.0392 17.0599C15.8384 17.2076 15.6739 17.3991 15.5582 17.6198C15.4426 17.8406 15.3787 18.0849 15.3716 18.334C15.3645 18.5832 15.4143 18.8307 15.5172 19.0577C15.7467 19.6184 16.1401 20.0967 16.6459 20.4301C17.1517 20.7635 17.7464 20.9365 18.3522 20.9263C18.6168 20.9246 18.8795 20.8813 19.1308 20.7981L19.1262 20.7935Z" fill="#141414"/>
</mask>
<g mask="url(#mask0)">
<rect x="-9.57227" y="-8.1543" width="171.594" height="45.0256" fill="url(#paint0_linear)"/>
</g>
<defs>
<linearGradient id="paint0_linear" x1="7.44529" y1="4.60886" x2="134.013" y2="19.1447" gradientUnits="userSpaceOnUse">
<stop stop-color="#EC006A"/>
<stop offset="1" stop-color="#992F8B"/>
</linearGradient>
</defs>
</svg>
