<svg height="30" viewBox="0 0 156 31" fill="none" xmlns="http://www.w3.org/2000/svg">
  <mask id="mask0" mask-type="alpha" maskUnits="userSpaceOnUse" x="0" y="0" width="156" height="31">
    <path fill-rule="evenodd" clip-rule="evenodd" d="M70.6522 25.6966C69.5186 25.6966 68.3802 25.6966 67.2418 25.6966C66.9512 25.6966 66.875 25.6157 66.875 25.3156C66.875 18.8599 66.875 12.4042 66.875 5.94844C66.875 5.65789 66.9322 5.55786 67.237 5.56262C68.666 5.56262 70.0663 5.56262 71.481 5.56262C71.743 5.56262 71.843 5.62454 71.9145 5.91986C73.0433 10.5973 74.196 15.2652 75.3392 19.9427C75.3604 20.07 75.411 20.1907 75.4868 20.2952C75.6979 19.6971 75.8573 19.0819 75.9632 18.4566C76.6872 15.6701 77.3159 12.8551 78.0494 10.0638C78.4162 8.67775 78.7163 7.28213 79.0783 5.90557C79.1402 5.66265 79.2307 5.58168 79.4498 5.58168C80.9074 5.58168 82.3744 5.58168 83.8367 5.58168C84.2654 5.58168 84.1749 5.85794 84.1749 6.10086C84.1749 11.4483 84.1749 16.7942 84.1749 22.1385C84.1749 23.2007 84.1749 24.2629 84.1749 25.3299C84.1749 25.6299 84.0987 25.7157 83.8034 25.7109C82.6697 25.7109 81.5313 25.7109 80.3929 25.7109C80.3384 25.5584 80.3236 25.3944 80.3501 25.2346C80.3501 21.424 80.3501 17.6135 80.3501 13.8363C80.3501 13.7029 80.4644 13.5076 80.2453 13.4219C79.8261 14.8985 79.3974 16.3703 78.983 17.8517C78.2717 20.392 77.5652 22.9451 76.8634 25.5109C76.811 25.6823 76.7491 25.73 76.5919 25.73C75.8822 25.73 75.1629 25.73 74.4675 25.73C74.0722 25.73 74.1103 25.3632 74.0484 25.1536C73.6244 23.7247 73.2339 22.2576 72.8338 20.8048C72.4575 19.4378 72.0955 18.066 71.7192 16.7037C71.4286 15.6415 71.119 14.5793 70.8189 13.5171C70.5712 13.6124 70.7046 13.822 70.7046 13.9935C70.7046 17.7469 70.7046 21.5003 70.7046 25.2584C70.723 25.4066 70.705 25.557 70.6522 25.6966Z" fill="#141414"/>
    <path fill-rule="evenodd" clip-rule="evenodd" d="M137.18 11.2689C137.18 10.0591 136.889 8.95401 135.698 8.41101C134.16 7.73464 132.364 8.5158 132.364 10.4449C132.305 10.6113 132.305 10.793 132.364 10.9593C132.321 11.7929 132.841 12.2978 133.436 12.736C134.414 13.3777 135.466 13.8976 136.57 14.284C137.999 14.8842 139.337 15.6368 140.233 16.9943C140.723 17.775 141.011 18.6655 141.071 19.5855C141.103 19.942 141.103 20.3007 141.071 20.6572C140.809 23.5437 138.837 25.1155 136.332 25.5251C135.984 25.5823 135.632 25.6061 135.279 25.6442C134.989 25.6738 134.697 25.6738 134.408 25.6442C133.035 25.6097 131.699 25.1941 130.549 24.4439C129.964 24.0674 129.463 23.5745 129.076 22.996C128.689 22.4176 128.425 21.7658 128.301 21.0811C128.234 20.7286 128.225 20.3761 128.182 20.0237C128.141 19.7585 128.141 19.4886 128.182 19.2234C128.642 19.1402 129.112 19.1194 129.578 19.1615C130.197 19.1615 130.816 19.1615 131.44 19.1615C131.816 19.1615 131.916 19.2377 131.916 19.6378C131.896 20.0681 131.961 20.4981 132.108 20.9028C132.256 21.3076 132.482 21.6791 132.774 21.9956C133.522 22.753 135.698 23.0578 136.651 21.9147C136.946 21.5439 137.143 21.1041 137.221 20.6365C137.299 20.169 137.257 19.6893 137.099 19.2425C136.851 18.3137 136.108 17.8421 135.346 17.4087C134.47 16.9324 133.493 16.6704 132.598 16.2322C131.663 15.8058 130.788 15.2581 129.997 14.6032C129.244 13.9451 128.74 13.0491 128.568 12.0644C128.353 10.9994 128.407 9.89758 128.725 8.85875C129.064 7.82875 129.734 6.9396 130.63 6.3295C132.783 4.75764 136.542 4.80051 138.642 6.3295C139.314 6.78917 139.87 7.39914 140.265 8.11103C140.66 8.82291 140.884 9.61711 140.919 10.4306C140.919 10.6831 140.971 10.9069 140.995 11.1832C140.957 11.3308 140.843 11.3451 140.719 11.3451H137.337C137.306 11.3546 137.273 11.3519 137.243 11.3378C137.214 11.3237 137.192 11.2991 137.18 11.2689Z" fill="#141414"/>
    <path fill-rule="evenodd" clip-rule="evenodd" d="M115.117 5.56271C115.746 5.56271 116.379 5.56271 117.022 5.56271C119.928 5.56271 122.833 5.56271 125.744 5.56271C126.125 5.56271 126.22 5.65798 126.22 6.03903C126.196 6.77733 126.22 7.52991 126.22 8.27297C126.22 8.57305 126.139 8.64926 125.848 8.6445C123.705 8.6445 121.561 8.6445 119.428 8.6445C119.056 8.6445 118.951 8.73024 118.951 9.12082C118.951 10.5498 118.951 11.9787 118.951 13.4077C118.951 13.703 119.032 13.7887 119.328 13.7887C121.09 13.7887 122.852 13.7887 124.615 13.7887C124.953 13.7887 125.048 13.8745 125.039 14.2174C125.01 14.9414 125.01 15.675 125.039 16.4037C125.039 16.7753 124.967 16.8801 124.562 16.8801C122.838 16.8562 121.095 16.8801 119.37 16.8801C119.042 16.8801 118.937 16.9467 118.937 17.2992C118.937 18.9711 118.937 20.6334 118.937 22.3149C118.937 22.4863 118.875 22.6816 119.18 22.6816C121.498 22.6816 123.818 22.6721 126.139 22.653C126.167 22.653 126.21 22.6816 126.21 22.7007C126.251 23.7151 126.24 24.731 126.177 25.7444H115.074C115.017 25.6022 115.003 25.4469 115.031 25.2966C115.031 18.8854 115.031 12.4709 115.031 6.05332C115.036 5.86756 114.936 5.6675 115.117 5.56271Z" fill="#141414"/>
    <path fill-rule="evenodd" clip-rule="evenodd" d="M44.8168 19.1665C45.8933 19.1665 46.9698 19.1903 48.0415 19.1665C48.3987 19.1665 48.5178 19.2666 48.4892 19.6428C48.4225 20.9956 48.2225 22.3102 47.4127 23.4534C46.5173 24.6775 45.2503 25.2491 43.8213 25.5444C43.4347 25.6049 43.0452 25.6447 42.6543 25.6635C42.3379 25.7005 42.0181 25.7005 41.7017 25.6635C40.7752 25.6378 39.8608 25.4474 39.001 25.1015C38.2073 24.7654 37.4977 24.2581 36.9229 23.6158C36.3482 22.9735 35.9225 22.2122 35.6762 21.3862C35.4319 20.6336 35.2877 19.852 35.2476 19.0617C35.2476 16.623 35.2476 14.1985 35.2809 11.7645C35.2962 10.37 35.7003 9.00744 36.4479 7.83014C36.9278 7.10067 37.5684 6.49085 38.3206 6.04746C39.0728 5.60407 39.9165 5.3389 40.7871 5.2723C42.33 5.05515 43.9028 5.25073 45.3455 5.83912C46.11 6.15026 46.7828 6.65045 47.301 7.2928C47.8192 7.93515 48.1658 8.6986 48.3082 9.51154C48.4337 10.1115 48.496 10.7229 48.494 11.3358C48.494 11.6121 48.4225 11.6883 48.151 11.6836C47.1984 11.6836 46.2934 11.6836 45.3598 11.6836C44.7406 11.6836 44.693 11.6073 44.6882 10.95C44.724 10.568 44.6723 10.1828 44.5369 9.82381C44.4016 9.46478 44.1861 9.14133 43.907 8.87804C43.5784 8.60975 43.1942 8.41797 42.7823 8.31664C42.3703 8.2153 41.941 8.20694 41.5254 8.29217C40.0107 8.56367 39.3725 9.36388 39.1438 10.9214C39.0448 11.9774 39.0161 13.0387 39.0581 14.0985C39.0581 15.8228 39.0581 17.5518 39.0962 19.2761C39.095 20.0525 39.3165 20.8129 39.7345 21.4671C39.9566 21.8398 40.2788 22.1426 40.6644 22.3413C41.05 22.54 41.4837 22.6266 41.916 22.5913C42.0801 22.6444 42.2568 22.6444 42.4209 22.5913C42.9633 22.6254 43.4972 22.4446 43.9073 22.0881C44.3173 21.7315 44.5705 21.2278 44.612 20.686C44.6501 20.4335 44.8025 20.1811 44.7025 19.9096C44.8073 19.6762 44.6215 19.3856 44.8168 19.1665Z" fill="#141414"/>
    <path fill-rule="evenodd" clip-rule="evenodd" d="M111.549 17.3039C109.477 17.3039 107.405 17.2611 105.333 17.3277C105.274 17.4793 105.259 17.6444 105.29 17.8041C105.29 20.2682 105.29 22.7324 105.29 25.1965C105.317 25.3564 105.302 25.5203 105.247 25.6729C104.076 25.6729 102.899 25.6729 101.727 25.6729C101.446 25.6729 101.37 25.6062 101.37 25.3156C101.37 18.844 101.37 12.374 101.37 5.90561C101.37 5.63411 101.427 5.53885 101.718 5.53885C105.284 5.53885 108.85 5.53885 112.416 5.53885C112.702 5.53885 112.821 5.6103 112.811 5.9199C112.811 6.69154 112.811 7.46794 112.811 8.24434C112.811 8.55871 112.707 8.61587 112.421 8.61587C110.225 8.61587 108.029 8.61587 105.824 8.61587C105.667 8.61587 105.495 8.61587 105.347 8.61587C105.307 8.68136 105.29 8.75865 105.3 8.83498V13.9745C105.289 14.0508 105.306 14.1284 105.347 14.1936L109.034 14.2221C109.872 14.2221 110.72 14.2221 111.563 14.2221C111.649 14.7112 111.666 15.2096 111.616 15.7035C111.658 16.2377 111.636 16.7751 111.549 17.3039Z" fill="#141414"/>
    <path fill-rule="evenodd" clip-rule="evenodd" d="M147.521 8.66818C146.177 8.66818 144.834 8.64436 143.496 8.66818C143.196 8.66818 143.086 8.60149 143.1 8.27283C143.1 7.49643 143.1 6.7248 143.1 5.94363C143.1 5.6626 143.196 5.59116 143.453 5.59116C147.514 5.59116 151.574 5.59116 155.632 5.59116C155.932 5.59116 156.009 5.69595 155.999 5.9865C155.999 6.7629 155.999 7.53454 155.999 8.31094C155.999 8.59197 155.928 8.67294 155.651 8.67294C154.413 8.67294 153.17 8.67294 151.936 8.67294C151.46 8.67294 151.398 8.82536 151.398 9.25405C151.398 14.5698 151.398 19.8855 151.398 25.206C151.398 25.6442 151.293 25.7585 150.869 25.749C149.778 25.7109 148.688 25.749 147.592 25.749C147.537 25.5964 147.523 25.4325 147.549 25.2727C147.549 19.9236 147.549 14.5793 147.549 9.23023C147.6 9.0446 147.59 8.84773 147.521 8.66818Z" fill="#141414"/>
    <path fill-rule="evenodd" clip-rule="evenodd" d="M64.5986 11.5833C64.4844 10.0076 63.8008 8.52735 62.6754 7.41864C61.5501 6.30993 60.0598 5.64853 58.4826 5.55783C55.8581 5.33872 53.5051 5.84838 51.8142 8.10613C50.9865 9.208 50.5206 10.5392 50.4805 11.9167C50.3947 14.1935 50.4805 16.1321 50.4566 18.4184C50.4566 20.8 51.3474 23.1816 53.4336 24.5439C56.001 26.211 60.326 26.0157 62.6695 23.7294C63.3162 23.0812 63.8272 22.3104 64.1723 21.4623C64.5175 20.6141 64.6899 19.7056 64.6795 18.79C64.7976 16.3852 64.7722 13.9755 64.6033 11.5737L64.5986 11.5833ZM59.9068 19.7378C58.1825 20.6905 56.4726 18.2089 57.9444 17.5372C58.1545 17.436 58.3959 17.4212 58.6167 17.4961C58.8376 17.5709 59.0203 17.7293 59.1257 17.9374C59.2866 18.3028 59.5766 18.5962 59.9402 18.7614C60.0288 18.8102 60.1022 18.8826 60.1521 18.9706C60.2021 19.0586 60.2267 19.1587 60.2233 19.2599C60.2198 19.361 60.1884 19.4592 60.1326 19.5436C60.0767 19.6279 59.9986 19.6952 59.9068 19.7378ZM62.0074 17.8897C61.9101 18.0963 61.7538 18.2694 61.5583 18.3874C61.3628 18.5054 61.1368 18.5629 60.9087 18.5527C60.6806 18.5425 60.4606 18.4651 60.2764 18.3302C60.0922 18.1953 59.952 18.0089 59.8735 17.7945C59.3162 16.537 58.1397 16.4751 56.9536 17.1229C54.2148 18.6233 51.4712 15.7892 52.9002 13.0313C55.3342 8.33953 62.5266 9.72085 62.7504 15.5272C62.728 16.3686 62.4706 17.187 62.0074 17.8897Z" fill="#141414"/>
    <path fill-rule="evenodd" clip-rule="evenodd" d="M99.4651 11.4785C99.4318 11.1974 99.3984 10.9069 99.3555 10.6259C99.1661 9.36019 98.5711 8.19017 97.6598 7.29162C97.0803 6.73361 96.3959 6.29602 95.6461 6.00414C94.8964 5.71227 94.0963 5.5719 93.292 5.59116C91.1152 5.56258 88.9337 5.59116 86.7569 5.59116C86.4473 5.59116 86.3901 5.69595 86.3901 5.97698C86.3901 12.4295 86.3901 18.8836 86.3901 25.3393C86.3901 25.6394 86.4711 25.7252 86.7664 25.7204C87.9144 25.7204 89.0718 25.7204 90.215 25.7204C90.2733 25.5688 90.2898 25.4043 90.2626 25.2441V18.971C90.2626 18.4518 90.2626 18.4565 90.7389 18.447C91.663 18.447 92.587 18.447 93.5111 18.447C94.4012 18.4145 95.2758 18.2039 96.0832 17.8278C98.2362 16.7704 99.2507 14.9461 99.4508 12.5883C99.4904 12.2274 99.4904 11.8632 99.4508 11.5023L99.4651 11.4785ZM95.3497 13.6791C95.2035 14.1821 94.8903 14.6204 94.4618 14.9217C94.0332 15.223 93.5148 15.3694 92.9919 15.3366C92.2203 15.3366 91.4439 15.3128 90.6675 15.3366C90.296 15.3366 90.2197 15.2128 90.2293 14.8603C90.2531 13.9077 90.2293 12.9122 90.2293 11.9453C90.2293 10.9783 90.2293 9.96853 90.2293 8.98255C90.2293 8.70629 90.2912 8.61102 90.577 8.62055C91.2629 8.62055 91.9488 8.62055 92.6347 8.62055C94.3542 8.62055 95.1877 9.29692 95.5307 11.0021C95.7346 11.8945 95.6716 12.827 95.3497 13.6838V13.6791Z" fill="#141414"/>
    <path fill-rule="evenodd" clip-rule="evenodd" d="M4.60608 28.8782C4.32425 28.8824 4.0429 28.8536 3.76776 28.7925C3.32742 28.672 2.917 28.4611 2.56267 28.1732C2.08495 27.8001 1.69882 27.3228 1.4338 26.7776C1.23096 26.3298 1.13944 25.8395 1.16706 25.3487C1.17341 25.1881 1.19575 25.0285 1.23374 24.8724C1.24399 24.8303 1.24324 24.7863 1.23156 24.7446C1.21988 24.7028 1.19767 24.6648 1.16706 24.6342C0.754723 24.0416 0.376239 23.4262 0.0334192 22.7908C0.0116791 22.7602 0 22.7236 0 22.6861C0 22.6485 0.0116791 22.6119 0.0334192 22.5813C0.22626 22.2721 0.439488 21.9761 0.671687 21.6953C0.876504 21.4476 1.09085 21.219 1.31472 20.9808L1.38617 20.9094C1.4719 20.8284 1.52906 20.7998 1.61956 20.9094C2.0673 21.5762 2.5722 22.205 3.04852 22.8147C3.45815 23.3148 3.8916 23.8006 4.32982 24.2817C4.76803 24.7628 5.17766 25.182 5.62064 25.6059C6.20651 26.1727 6.81144 26.7157 7.44971 27.2206C7.96413 27.6302 8.48332 28.0208 9.02632 28.3828C9.09301 28.4257 9.07395 28.4495 9.02632 28.4924C8.5063 29.058 7.92111 29.5601 7.28299 29.988C7.26503 30.0012 7.24334 30.0083 7.22107 30.0083C7.1988 30.0083 7.17712 30.0012 7.15915 29.988C6.56788 29.6537 5.99688 29.2847 5.44917 28.883C5.38807 28.8217 5.31145 28.7783 5.22753 28.7573C5.14362 28.7363 5.05557 28.7386 4.97285 28.7639C4.88541 28.7853 4.79606 28.7981 4.70611 28.802C4.71087 28.8782 4.65371 28.8544 4.60608 28.8782Z" fill="#141414"/>
    <path fill-rule="evenodd" clip-rule="evenodd" d="M29.1078 11.4495C28.6212 8.70806 27.2392 6.20536 25.1781 4.33333C22.8196 2.09713 19.6877 0.859718 16.4377 0.880014C15.7787 0.876264 15.1205 0.92885 14.4705 1.0372C13.0771 1.25611 11.7298 1.70521 10.4837 2.36613C9.79051 2.73137 9.13482 3.16372 8.52603 3.65695C8.15697 3.95383 7.80549 4.27191 7.47336 4.60959C7.22091 4.87157 6.95417 5.11925 6.71601 5.39552C6.47785 5.67178 6.32543 5.84802 6.13967 6.08142C5.77479 6.54719 5.44218 7.03735 5.14416 7.54848C4.74067 8.23448 4.40258 8.9569 4.13436 9.70621C3.96953 10.1614 3.83117 10.6258 3.71997 11.0971C3.60565 11.602 3.51515 12.1116 3.4437 12.6213C3.39607 12.9309 3.39131 13.25 3.37225 13.5739C3.36565 13.6303 3.3545 13.686 3.33891 13.7406V14.6933C3.36749 14.7599 3.33891 14.8362 3.33891 14.9076C3.34514 15.2953 3.37856 15.6821 3.43894 16.0651C3.49101 16.4741 3.56736 16.8797 3.66757 17.2797C3.66757 17.3606 3.73426 17.4369 3.66757 17.5226C3.4961 17.7274 3.31986 17.9227 3.15315 18.1323C2.89929 18.4537 2.66392 18.7892 2.4482 19.1373C2.43081 19.1598 2.42139 19.1875 2.42139 19.2159C2.42139 19.2444 2.43081 19.272 2.4482 19.2945C2.63872 19.6041 2.81972 19.9232 3.01502 20.2471C3.56403 21.1099 4.16698 21.9372 4.82026 22.724C5.20608 23.2003 5.60619 23.629 6.01106 24.0767C6.20635 24.2863 6.41593 24.4864 6.62551 24.6817C6.83509 24.877 7.10183 25.1342 7.34475 25.3533C7.67818 25.6534 8.02113 25.9344 8.36884 26.2202C8.81658 26.5822 9.27385 26.9251 9.75016 27.249C10.2265 27.5729 10.7028 27.8825 11.1791 28.1683C11.2189 28.2004 11.2685 28.2179 11.3196 28.2179C11.3708 28.2179 11.4203 28.2004 11.4601 28.1683C11.9743 27.8335 12.4531 27.4473 12.8891 27.0156C12.9272 26.9823 12.9606 26.9394 13.0129 26.9632C13.102 26.9899 13.1927 27.0106 13.2845 27.0252C13.7406 27.139 14.2036 27.2233 14.6705 27.2776C15.0135 27.3205 15.366 27.3252 15.7184 27.3491C15.828 27.3491 15.9375 27.3491 16.0423 27.3491C16.1389 27.3382 16.2363 27.3382 16.3329 27.3491C16.4424 27.3205 16.552 27.3491 16.6568 27.3491C16.9521 27.3491 17.2427 27.3205 17.5332 27.2871C18.2413 27.2072 18.9421 27.0718 19.629 26.8823C20.7249 26.5755 21.7744 26.122 22.7489 25.5343C23.8809 24.8551 24.9025 24.007 25.7783 23.0193C27.221 21.4996 28.2767 19.6549 28.8562 17.6411C29.4357 15.6273 29.522 13.5037 29.1078 11.4495ZM24.0921 21.9285C22.6885 23.3813 20.8903 24.3914 18.9193 24.8341C17.9991 25.0613 17.0514 25.1575 16.1043 25.1199C13.4548 25.0471 10.9276 23.989 9.01663 22.1524C7.31346 20.5782 6.16689 18.494 5.74909 16.2127C5.3996 14.5562 5.43879 12.8412 5.86358 11.2024C6.28837 9.56357 7.0872 8.04549 8.19737 6.76732C9.71017 4.98132 11.787 3.76481 14.0847 3.31877C14.9164 3.1366 15.7679 3.06137 16.6187 3.0949C18.9808 3.16091 21.2535 4.01234 23.0776 5.5146C24.9814 7.03838 26.3223 9.15378 26.8881 11.5257C27.1002 12.4068 27.201 13.3109 27.1882 14.2169C27.2084 17.097 26.0965 19.8698 24.0921 21.9381V21.9285Z" fill="#141414"/>
    <path fill-rule="evenodd" clip-rule="evenodd" d="M16.1999 5.24796C18.2593 5.24774 20.2572 5.94992 21.8637 7.23855C23.4701 8.52717 24.589 10.3252 25.0356 12.3356C25.5641 14.554 25.2448 16.8899 24.1401 18.885C24.0277 19.1252 23.8887 19.3521 23.7257 19.5613C23.4913 19.8307 23.1903 20.0338 22.8527 20.1503C22.5152 20.2667 22.1529 20.2925 21.8023 20.225C21.4516 20.1575 21.1249 19.999 20.8547 19.7655C20.5846 19.532 20.3805 19.2317 20.2629 18.8945C19.9939 18.1046 19.4262 17.4514 18.6815 17.075C18.1516 16.7914 17.555 16.6563 16.9546 16.6839C16.3543 16.7116 15.7726 16.901 15.2711 17.2321C14.6045 17.625 13.857 17.8602 13.0856 17.9198C12.3142 17.9794 11.5394 17.8617 10.8204 17.5758C10.1015 17.2899 9.45752 16.8433 8.93771 16.2702C8.41791 15.6971 8.03607 15.0128 7.82142 14.2694C7.61312 13.5938 7.54372 12.883 7.61739 12.1798C7.69106 11.4766 7.90629 10.7957 8.25011 10.1779C8.86999 8.95121 9.76376 7.8836 10.8623 7.05765C11.9608 6.2317 13.2346 5.66954 14.5852 5.41467C14.7757 5.37181 14.971 5.34799 15.1663 5.32417C15.5086 5.27468 15.854 5.24922 16.1999 5.24796ZM19.8913 22.505C20.1883 22.4429 20.4621 22.2995 20.682 22.0906C20.7993 21.9644 20.8827 21.8106 20.9245 21.6434C20.9662 21.4763 20.9649 21.3013 20.9206 21.1348C20.8764 20.9683 20.7907 20.8157 20.6715 20.6913C20.5523 20.5669 20.4035 20.4748 20.2391 20.4235C20.0008 20.362 19.7847 20.2349 19.6151 20.0567C19.4265 19.8508 19.2836 19.6073 19.1959 19.3422C19.0535 18.9927 18.7973 18.7015 18.4689 18.5157C18.1404 18.3298 17.7588 18.2602 17.3859 18.3182C17.1309 18.3646 16.8898 18.4685 16.6809 18.622C16.4721 18.7756 16.301 18.9748 16.1807 19.2044C16.0604 19.434 15.994 19.688 15.9866 19.9471C15.9792 20.2062 16.0309 20.4636 16.138 20.6998C16.3767 21.2828 16.7858 21.7803 17.3119 22.127C17.8379 22.4738 18.4564 22.6537 19.0864 22.6431C19.3616 22.6413 19.6348 22.5963 19.8961 22.5098L19.8913 22.505Z" fill="#141414"/>
  </mask>
  <g mask="url(#mask0)">
    <rect x="-9.95508" y="-7.60076" width="178.457" height="46.8266" fill="url(#paint0_linear)"/>
  </g>
  <defs>
    <linearGradient id="paint0_linear" x1="7.74316" y1="5.67291" x2="139.374" y2="20.7902" gradientUnits="userSpaceOnUse">
      <stop stop-color="#0083FB"/>
      <stop offset="0.989583" stop-color="#00E3F0"/>
    </linearGradient>
  </defs>
</svg>
