<svg width="30" height="23" fill="none" xmlns="http://www.w3.org/2000/svg"><g clip-path="url(#clip0)"><path fill-rule="evenodd" clip-rule="evenodd" d="M3.613 22.07c-.221.003-.441-.02-.656-.07a2.53 2.53 0 01-.945-.485 3.109 3.109 0 01-.88-1.099 2.429 2.429 0 01-.21-1.142c.01-.132.031-.262.066-.39a.196.196 0 00-.052-.188 15.016 15.016 0 01-.909-1.412.14.14 0 010-.165 7.54 7.54 0 011.004-1.26l.056-.057c.065-.066.111-.089.18 0 .377.538.751 1.03 1.148 1.525.328.396.656.779 1.004 1.155s.656.71 1.014 1.046c.455.446.932.868 1.43 1.264.404.33.81.634 1.237.918.052.033.036.05 0 .085-.409.445-.867.84-1.365 1.179a.076.076 0 01-.095 0 12.79 12.79 0 01-1.332-.862.357.357 0 00-.367-.089c-.07.017-.14.027-.21.03-.04.017-.082-.003-.118.017zM22.807 8.334a9.917 9.917 0 00-3.08-5.611A9.833 9.833 0 0012.88 0a8.983 8.983 0 00-1.545.126 10.03 10.03 0 00-3.13 1.046A9.462 9.462 0 006.67 2.188c-.287.23-.562.474-.823.733-.197.208-.407.403-.594.62-.187.218-.308.357-.453.542A10.607 10.607 0 003.242 6.93c-.13.36-.24.726-.328 1.099-.089.396-.16.799-.216 1.201-.037.244-.04.495-.06.743v.917c.023.053 0 .113.017.169.006.305.033.61.082.91.04.323.1.643.18.958.017.062.05.125 0 .191-.134.162-.272.33-.403.482-.198.253-.38.517-.548.792a.096.096 0 000 .122c.148.244.292.495.446.736a18.65 18.65 0 001.41 1.954c.306.366.618.716.936 1.066.15.165.328.33.482.478a19.806 19.806 0 002.45 2.027c.375.257.742.498 1.13.723a.176.176 0 00.222 0 6.973 6.973 0 001.129-.911c.03-.027.055-.06.095-.04.04.02.144.03.213.05.357.09.72.157 1.086.2.269.034.545.037.817.057h.256c.076-.008.153-.008.23 0 .085-.023.17 0 .255 0 .23 0 .456-.026.686-.05a10.796 10.796 0 001.64-.33 10.124 10.124 0 004.82-3.046 10.304 10.304 0 002.378-4.241c.445-1.586.504-3.255.174-4.868l-.014.014zm-3.936 8.25a8.078 8.078 0 01-4.052 2.29 7.893 7.893 0 01-2.208.229 8.328 8.328 0 01-5.55-2.344 8.453 8.453 0 01-2.562-4.683 8.68 8.68 0 01.087-3.953 8.648 8.648 0 011.832-3.5 8.057 8.057 0 014.619-2.702 7.746 7.746 0 011.988-.175 8.306 8.306 0 015.062 1.908 8.66 8.66 0 012.968 4.742 8.58 8.58 0 01.25 2.106 8.678 8.678 0 01-2.428 6.099l-.006-.017z" fill="#fff"/><path fill-rule="evenodd" clip-rule="evenodd" d="M12.7 3.446a7.05 7.05 0 014.435 1.567 7.125 7.125 0 012.48 4.017 7.263 7.263 0 01-.698 5.162c-.09.19-.2.37-.329.534a1.594 1.594 0 01-1.508.52 1.59 1.59 0 01-1.201-1.054 2.527 2.527 0 00-1.24-1.426 2.588 2.588 0 00-2.674.129 3.962 3.962 0 01-4.963-.758 4.01 4.01 0 01-.876-1.576 4.179 4.179 0 01.328-3.227 7.063 7.063 0 012.049-2.469 7.01 7.01 0 013.38-1.373c.27-.034.544-.05.817-.046zm2.89 13.604a1.31 1.31 0 00.62-.33.807.807 0 00-.348-1.32 1.013 1.013 0 01-.489-.29 1.554 1.554 0 01-.327-.565 1.317 1.317 0 00-.57-.652 1.305 1.305 0 00-.848-.157 1.331 1.331 0 00-.946.694 1.351 1.351 0 00-.038 1.178c.185.458.503.85.913 1.122.41.274.892.416 1.383.409.22.006.44-.024.65-.09z" fill="#fff"/><g clip-path="url(#clip1)"><mask id="a" maskUnits="userSpaceOnUse" x="0" y="0" width="24" height="23"><path fill-rule="evenodd" clip-rule="evenodd" d="M3.613 22.07c-.221.003-.441-.02-.656-.07a2.53 2.53 0 01-.945-.485 3.109 3.109 0 01-.88-1.099 2.429 2.429 0 01-.21-1.142c.01-.132.031-.262.066-.39a.196.196 0 00-.052-.188 15.016 15.016 0 01-.909-1.412.14.14 0 010-.165 7.54 7.54 0 011.004-1.26l.056-.057c.065-.066.111-.089.18 0 .377.538.751 1.03 1.148 1.525.328.396.656.779 1.004 1.155s.656.71 1.014 1.046c.455.446.932.868 1.43 1.264.404.33.81.634 1.237.918.052.033.036.05 0 .085-.409.445-.867.84-1.365 1.179a.076.076 0 01-.095 0 12.79 12.79 0 01-1.332-.862.357.357 0 00-.367-.089c-.07.017-.14.027-.21.03-.04.017-.082-.003-.118.017zM22.807 8.334a9.917 9.917 0 00-3.08-5.611A9.833 9.833 0 0012.88 0a8.983 8.983 0 00-1.545.126 10.03 10.03 0 00-3.13 1.046A9.462 9.462 0 006.67 2.188c-.287.23-.562.474-.823.733-.197.208-.407.403-.594.62-.187.218-.308.357-.453.542A10.607 10.607 0 003.242 6.93c-.13.36-.24.726-.328 1.099-.089.396-.16.799-.216 1.201-.037.244-.04.495-.06.743v.917c.023.053 0 .113.017.169.006.305.033.61.082.91.04.323.1.643.18.958.017.062.05.125 0 .191-.134.162-.272.33-.403.482-.198.253-.38.517-.548.792a.096.096 0 000 .122c.148.244.292.495.446.736a18.65 18.65 0 001.41 1.954c.306.366.618.716.936 1.066.15.165.328.33.482.478a19.806 19.806 0 002.45 2.027c.375.257.742.498 1.13.723a.176.176 0 00.222 0 6.973 6.973 0 001.129-.911c.03-.027.055-.06.095-.04.04.02.144.03.213.05.357.09.72.157 1.086.2.269.034.545.037.817.057h.256c.076-.008.153-.008.23 0 .085-.023.17 0 .255 0 .23 0 .456-.026.686-.05a10.796 10.796 0 001.64-.33 10.124 10.124 0 004.82-3.046 10.304 10.304 0 002.378-4.241c.445-1.586.504-3.255.174-4.868l-.014.014zm-3.936 8.25a8.078 8.078 0 01-4.052 2.29 7.893 7.893 0 01-2.208.229 8.328 8.328 0 01-5.55-2.344 8.453 8.453 0 01-2.562-4.683 8.68 8.68 0 01.087-3.953 8.648 8.648 0 011.832-3.5 8.057 8.057 0 014.619-2.702 7.746 7.746 0 011.988-.175 8.306 8.306 0 015.062 1.908 8.66 8.66 0 012.968 4.742 8.58 8.58 0 01.25 2.106 8.678 8.678 0 01-2.428 6.099l-.006-.017z" fill="#fff"/><path fill-rule="evenodd" clip-rule="evenodd" d="M12.7 3.446a7.05 7.05 0 014.435 1.567 7.125 7.125 0 012.48 4.017 7.263 7.263 0 01-.698 5.162c-.09.19-.2.37-.329.534a1.594 1.594 0 01-1.508.52 1.59 1.59 0 01-1.201-1.054 2.527 2.527 0 00-1.24-1.426 2.588 2.588 0 00-2.674.129 3.962 3.962 0 01-4.963-.758 4.01 4.01 0 01-.876-1.576 4.179 4.179 0 01.328-3.227 7.063 7.063 0 012.049-2.469 7.01 7.01 0 013.38-1.373c.27-.034.544-.05.817-.046zm2.89 13.604a1.31 1.31 0 00.62-.33.807.807 0 00-.348-1.32 1.013 1.013 0 01-.489-.29 1.554 1.554 0 01-.327-.565 1.317 1.317 0 00-.57-.652 1.305 1.305 0 00-.848-.157 1.331 1.331 0 00-.946.694 1.351 1.351 0 00-.038 1.178c.185.458.503.85.913 1.122.41.274.892.416 1.383.409.22.006.44-.024.65-.09z" fill="#fff"/></mask><g mask="url(#a)"><path fill="url(#paint0_linear)" d="M-2-4h29v30H-2z"/></g></g></g><defs><clipPath id="clip0"><path fill="#fff" d="M0 0h23v23H0z"/></clipPath><clipPath id="clip1"><path fill="#fff" d="M0 0h23v23H0z"/></clipPath><linearGradient id="paint0_linear" x1="-2" y1="11" x2="25.5" y2="11" gradientUnits="userSpaceOnUse"><stop stop-color="#0083FB"/><stop offset="1" stop-color="#00E3F0"/></linearGradient></defs></svg>
