<svg width="162" height="31" viewBox="0 0 162 31" fill="none" xmlns="http://www.w3.org/2000/svg">
<path fill-rule="evenodd" clip-rule="evenodd" d="M4.72272 28.7963C4.43326 28.8012 4.14424 28.7716 3.86169 28.7083C3.41117 28.5844 2.99066 28.3693 2.62596 28.0764C2.13995 27.6911 1.74741 27.2002 1.47793 26.6406C1.26351 26.1714 1.16898 25.6559 1.20288 25.1408C1.21055 24.9696 1.23458 24.7995 1.27463 24.6329C1.28273 24.5907 1.28042 24.5471 1.26792 24.506C1.25541 24.4649 1.23309 24.4274 1.20288 24.3969C0.781209 23.805 0.391333 23.1908 0.0349096 22.5572C0.0122184 22.5258 0 22.488 0 22.4492C0 22.4104 0.0122184 22.3726 0.0349096 22.3412C0.230507 22.0227 0.4476 21.718 0.684666 21.4293C0.895936 21.1733 1.11518 20.9294 1.34638 20.6934L1.41813 20.6214C1.50583 20.5374 1.56562 20.5054 1.65731 20.6214C2.11572 21.3053 2.62596 21.9532 3.14417 22.5932C3.59462 23.1171 4.02114 23.597 4.47557 24.109C4.93 24.6209 5.34457 25.0328 5.799 25.4688C6.39506 26.0535 7.02038 26.6075 7.67253 27.1286C8.19872 27.5285 8.72889 27.9524 9.28696 28.3284C9.35472 28.3724 9.33479 28.3964 9.28696 28.4404C8.75823 29.0267 8.16288 29.5488 7.51308 29.9962C7.49498 30.0089 7.47341 30.0157 7.4513 30.0157C7.42919 30.0157 7.40762 30.0089 7.38951 29.9962C6.78347 29.6519 6.19784 29.2726 5.63557 28.8603C5.57471 28.7953 5.4966 28.7491 5.41044 28.7271C5.32428 28.7052 5.23366 28.7084 5.14925 28.7363C5.06059 28.7594 4.96971 28.7728 4.87818 28.7763C4.82636 28.7963 4.79049 28.7603 4.72272 28.7963Z" fill="white"/>
<path fill-rule="evenodd" clip-rule="evenodd" d="M29.8321 10.8708C29.3326 8.05101 27.9153 5.47702 25.802 3.55175C23.3847 1.25313 20.1755 -0.0193342 16.845 0.000222122C16.1692 -0.00315343 15.4944 0.0517075 14.8279 0.1642C13.4001 0.388829 12.0194 0.849699 10.7421 1.52802C10.0356 1.90356 9.36802 2.34833 8.74894 2.85584C8.3696 3.15187 8.00883 3.4711 7.66867 3.81171C7.40957 4.07968 7.1385 4.33164 6.87143 4.61161C6.60435 4.89157 6.4728 5.07555 6.28146 5.31951C5.90997 5.79828 5.57168 6.30206 5.26896 6.82731C4.8548 7.53293 4.50779 8.27611 4.23254 9.04702C4.06345 9.51543 3.92235 9.99355 3.81 10.4788C3.69041 10.9948 3.59873 11.5187 3.52299 12.0426C3.47914 12.3626 3.47117 12.6905 3.45124 13.0145C3.45124 13.0745 3.45124 13.1425 3.43131 13.2065V14.2063C3.4632 14.2743 3.43131 14.3503 3.45522 14.4223C3.46131 14.8242 3.49595 15.2252 3.55887 15.6221C3.61301 16.0423 3.69154 16.459 3.79405 16.87C3.81399 16.954 3.86182 17.034 3.79405 17.1179C3.61866 17.3299 3.43529 17.5179 3.26389 17.7459C3.00619 18.0825 2.76796 18.4337 2.55035 18.7977C2.53289 18.8207 2.52344 18.8488 2.52344 18.8777C2.52344 18.9066 2.53289 18.9347 2.55035 18.9577C2.74567 19.2777 2.94897 19.6016 3.13234 19.9176C3.69412 20.8055 4.31192 21.6564 4.98195 22.4652C5.38057 22.9412 5.7792 23.4011 6.20174 23.857C6.40105 24.073 6.60036 24.257 6.83156 24.477C7.06277 24.6969 7.31788 24.9449 7.56902 25.1689C7.91183 25.4768 8.26661 25.7688 8.62138 26.0607C9.08113 26.4314 9.55283 26.7846 10.0365 27.1206C10.5228 27.4486 11.0091 27.7725 11.5154 28.0645C11.5569 28.0972 11.6081 28.1151 11.6609 28.1151C11.7137 28.1151 11.7649 28.0972 11.8064 28.0645C12.3389 27.718 12.8333 27.3158 13.2813 26.8646C13.3172 26.8326 13.353 26.7887 13.4088 26.8126C13.499 26.8401 13.5909 26.8615 13.6839 26.8766C14.1509 26.9946 14.6249 27.0828 15.103 27.1406C15.4578 27.1846 15.8165 27.1886 16.1753 27.2126C16.2869 27.2366 16.3985 27.2126 16.5062 27.2126C16.6069 27.2026 16.7084 27.2026 16.8091 27.2126C16.9207 27.1846 17.0323 27.2126 17.1439 27.2126C17.4429 27.2126 17.7419 27.1806 18.0409 27.1486C18.7666 27.0731 19.4851 26.9394 20.1894 26.7487C21.3094 26.4327 22.382 25.9673 23.3784 25.3648C24.5379 24.6663 25.5849 23.7951 26.4837 22.7812C27.9462 21.2125 29.0128 19.3149 29.594 17.2475C30.1752 15.1801 30.2541 13.0031 29.8242 10.8988L29.8321 10.8708ZM24.6899 21.6693C23.2536 23.1642 21.4116 24.203 19.3922 24.6569C18.4488 24.8909 17.4772 24.9905 16.5062 24.9529C13.7908 24.8756 11.2015 23.7863 9.24323 21.8973C7.49736 20.2791 6.32232 18.1359 5.8948 15.7901C5.53486 14.086 5.57397 12.3213 6.00905 10.6348C6.44413 8.94843 7.26331 7.38632 8.40214 6.07141C9.95005 4.22791 12.0795 2.97058 14.4373 2.50789C15.2901 2.3189 16.1636 2.24094 17.0363 2.27592C19.4566 2.34619 21.7847 3.22283 23.6535 4.76759C25.5967 6.33836 26.9628 8.514 27.5361 10.9508C27.7598 11.8493 27.8709 12.7723 27.8669 13.6984C27.8898 16.6657 26.7486 19.5229 24.6899 21.6533V21.6693Z" fill="white"/>
<path fill-rule="evenodd" clip-rule="evenodd" d="M16.6099 4.49157C18.7195 4.49023 20.7662 5.21195 22.4111 6.53719C24.056 7.86243 25.2004 9.71166 25.6547 11.7786C26.1922 14.0605 25.8595 16.4615 24.7219 18.5097C24.6145 18.7529 24.4808 18.9836 24.3233 19.1976C24.0835 19.4756 23.775 19.6852 23.4288 19.8055C23.0826 19.9257 22.7109 19.9523 22.3512 19.8826C21.9915 19.8128 21.6564 19.6492 21.3798 19.4082C21.1032 19.1672 20.8948 18.8573 20.7755 18.5097C20.4912 17.7038 19.9049 17.0409 19.1412 16.662C18.5984 16.3688 17.9863 16.2291 17.3706 16.258C16.7548 16.2869 16.1584 16.4832 15.6452 16.8259C14.9628 17.2331 14.1963 17.4775 13.4049 17.5403C12.6134 17.6031 11.8181 17.4826 11.0804 17.1881C10.3428 16.8936 9.68239 16.433 9.15029 15.8418C8.61819 15.2505 8.2286 14.5446 8.01159 13.7783C7.7989 13.0831 7.72881 12.3519 7.80554 11.6288C7.88228 10.9056 8.10424 10.2056 8.45805 9.5709C9.08963 8.30526 10.0038 7.20292 11.1294 6.34968C12.255 5.49644 13.5616 4.91532 14.9476 4.65155C15.1478 4.60911 15.3501 4.57707 15.5535 4.55556C15.9038 4.51018 16.2567 4.4888 16.6099 4.49157ZM20.3888 22.2372C20.688 22.1712 20.9637 22.0246 21.1861 21.8133C21.3057 21.6834 21.3908 21.5253 21.4335 21.3537C21.4761 21.1821 21.4749 21.0024 21.43 20.8314C21.3851 20.6604 21.2979 20.5035 21.1766 20.3752C21.0552 20.2469 20.9036 20.1514 20.7357 20.0975C20.4907 20.0354 20.2682 19.9051 20.0939 19.7215C19.9004 19.5094 19.7537 19.2586 19.6634 18.9856C19.5178 18.6252 19.2551 18.3248 18.9179 18.1331C18.5806 17.9414 18.1887 17.8697 17.8058 17.9298C17.5457 17.978 17.3 18.0849 17.0872 18.2423C16.8743 18.3997 16.6999 18.6036 16.577 18.8386C16.4542 19.0735 16.3861 19.3334 16.378 19.5986C16.3699 19.8638 16.4219 20.1274 16.5302 20.3695C16.7725 20.9708 17.1912 21.484 17.7308 21.8411C18.2704 22.1983 18.9054 22.3824 19.5517 22.3692C19.8359 22.3693 20.1184 22.3248 20.3888 22.2372Z" fill="white"/>
<path fill-rule="evenodd" clip-rule="evenodd" d="M73.5449 26.1967C72.381 26.1967 71.217 26.1967 70.049 26.1967C69.7501 26.1967 69.6743 26.1167 69.6743 25.7968C69.6743 19.163 69.6743 12.5266 69.6743 5.88744C69.6743 5.58748 69.7341 5.48749 70.041 5.48749C71.492 5.48749 72.943 5.48749 74.394 5.48749C74.6651 5.48749 74.7647 5.55149 74.8405 5.85545C75.9965 10.6548 77.1804 15.4542 78.3484 20.2535C78.3704 20.3856 78.4237 20.5104 78.5038 20.6175C78.7276 20.0041 78.8983 19.3725 79.0141 18.7297C79.7236 15.8461 80.3734 12.9505 81.1268 10.0789C81.5015 8.65107 81.8084 7.21926 82.1831 5.80345C82.2429 5.55149 82.3346 5.4715 82.5618 5.4715C84.0606 5.4715 85.5595 5.4715 87.0583 5.4715C87.4968 5.4715 87.4011 5.75546 87.4011 6.00743C87.4011 11.508 87.4011 17.0033 87.4011 22.4932C87.4011 23.5891 87.4011 24.6809 87.4011 25.7768C87.4011 26.0847 87.3214 26.1767 87.0025 26.1767C85.8385 26.1767 84.6745 26.1767 83.5065 26.1767C83.4484 26.0155 83.4333 25.8417 83.4627 25.6728C83.4627 21.7653 83.4627 17.8618 83.4627 13.9544C83.4627 13.8144 83.5783 13.6144 83.3511 13.5264C82.9246 15.0462 82.4861 16.558 82.0595 18.0818C81.3473 20.7188 80.6311 23.3571 79.911 25.9968C79.8591 26.1767 79.7914 26.2207 79.6359 26.2207C78.9104 26.2207 78.1849 26.2207 77.4554 26.2207C77.0568 26.2207 77.0927 25.8448 77.0249 25.6288C76.5904 24.149 76.1878 22.6532 75.7812 21.1574C75.3826 19.7536 75.0238 18.3578 74.6412 16.942C74.3422 15.8461 74.0273 14.7543 73.7164 13.6624C73.4652 13.7584 73.6047 13.9784 73.6047 14.1343C73.6047 17.9898 73.6047 21.8493 73.6047 25.7128C73.6274 25.8766 73.6068 26.0435 73.5449 26.1967Z" fill="white"/>
<path fill-rule="evenodd" clip-rule="evenodd" d="M141.746 11.3627C141.746 10.1189 141.447 8.98304 140.227 8.45111C138.632 7.7552 136.831 8.55509 136.831 10.5388C136.771 10.7097 136.771 10.8959 136.831 11.0668C136.787 11.9266 137.325 12.4466 137.927 12.8945C138.899 13.6224 140.036 14.0184 141.144 14.4943C142.603 15.1102 143.978 15.8861 144.895 17.2939C145.397 18.0962 145.692 19.0119 145.752 19.9576C145.786 20.3247 145.786 20.6943 145.752 21.0614C145.505 23.997 143.472 25.6248 140.905 26.0488C140.546 26.1087 140.187 26.1327 139.824 26.1727C139.526 26.2007 139.226 26.2007 138.927 26.1727C137.522 26.1362 136.155 25.7098 134.977 24.9409C134.376 24.5545 133.862 24.0478 133.465 23.4525C133.069 22.8572 132.799 22.1861 132.673 21.4814C132.605 21.1214 132.597 20.7575 132.553 20.3935C132.51 20.1206 132.51 19.8425 132.553 19.5696C133.025 19.4837 133.507 19.4635 133.984 19.5096C134.622 19.5096 135.252 19.5096 135.89 19.5096C136.289 19.4856 136.392 19.5856 136.396 20.0056C136.376 20.4479 136.444 20.8898 136.595 21.3057C136.746 21.7217 136.978 22.1035 137.277 22.4292C138.042 23.2051 140.275 23.5171 141.263 22.3453C141.941 21.5454 141.985 20.5815 141.718 19.6016C141.451 18.6217 140.705 18.1618 139.92 17.7179C139.023 17.2099 138.023 16.954 137.102 16.518C136.143 16.0797 135.246 15.5163 134.435 14.8423C133.673 14.1609 133.164 13.24 132.992 12.2306C132.773 11.1355 132.829 10.0029 133.155 8.93504C133.496 7.87911 134.174 6.96535 135.085 6.33539C137.293 4.7356 141.144 4.7596 143.296 6.33539C143.969 6.8125 144.523 7.43819 144.916 8.16421C145.309 8.89024 145.531 9.69719 145.564 10.5228C145.564 10.7828 145.616 11.0388 145.644 11.2987C145.608 11.4507 145.489 11.4627 145.361 11.4627C144.205 11.4627 143.049 11.4627 141.897 11.4627C141.881 11.4662 141.864 11.4664 141.847 11.4633C141.83 11.4601 141.815 11.4537 141.801 11.4444C141.787 11.4351 141.774 11.4231 141.765 11.4091C141.756 11.3951 141.749 11.3793 141.746 11.3627Z" fill="white"/>
<path fill-rule="evenodd" clip-rule="evenodd" d="M119.112 5.49548C119.758 5.49548 120.407 5.51948 121.053 5.51948C124.031 5.51948 127.008 5.51948 129.99 5.51948C130.389 5.51948 130.488 5.61947 130.469 6.01141C130.441 6.77131 130.469 7.54321 130.469 8.30711C130.469 8.61507 130.385 8.70705 130.07 8.70705C127.874 8.70705 125.685 8.70705 123.493 8.70705C123.094 8.70705 123.006 8.79504 123.01 9.19099C123.034 10.6588 123.03 12.1266 123.01 13.5904C123.01 13.8944 123.094 13.9903 123.409 13.9903C125.219 13.9903 127.024 13.9903 128.83 13.9903C129.177 13.9903 129.273 14.0783 129.261 14.4303C129.233 15.1782 129.233 15.9301 129.261 16.678C129.281 17.0779 129.193 17.1779 128.786 17.1779C127.02 17.1499 125.235 17.1779 123.465 17.1539C123.13 17.1539 123.018 17.2219 123.022 17.5859C123.046 19.3056 123.022 21.0254 123.022 22.7452C123.022 22.9212 122.958 23.1211 123.273 23.1211C125.665 23.1211 128.025 23.1211 130.401 23.0931C130.433 23.0931 130.473 23.1211 130.473 23.1411C130.516 24.1848 130.505 25.2301 130.441 26.2727H119.068C119.01 26.1254 118.995 25.9645 119.024 25.8088C119.024 19.2177 119.024 12.6239 119.024 6.02741C119.028 5.80744 118.924 5.62347 119.112 5.49548Z" fill="white"/>
<path fill-rule="evenodd" clip-rule="evenodd" d="M47.0684 19.4817C48.1686 19.4817 49.2728 19.5097 50.373 19.4817C50.7357 19.4817 50.8513 19.5857 50.8314 19.9536C50.7636 21.3455 50.5564 22.6973 49.7272 23.8611C48.8144 25.1329 47.5069 25.7169 46.04 26.0248C45.6442 26.0901 45.2448 26.1315 44.8441 26.1488C44.5143 26.1868 44.1813 26.1868 43.8515 26.1488C42.9123 26.1265 41.9841 25.9397 41.109 25.5969C40.2974 25.2529 39.5712 24.7338 38.9822 24.0764C38.3931 23.419 37.9556 22.6396 37.7008 21.7934C37.4636 21.0145 37.3296 20.2077 37.3021 19.3937C37.2742 16.894 37.2583 14.3944 37.3021 11.8947C37.317 10.4588 37.7312 9.05568 38.498 7.84325C39.5583 6.21947 41.0891 5.44357 42.9427 5.2156C44.524 4.99074 46.1365 5.19228 47.6145 5.79952C48.3975 6.11894 49.0869 6.63251 49.6182 7.29213C50.1494 7.95176 50.5051 8.73586 50.652 9.57102C50.7797 10.188 50.8438 10.8166 50.8434 11.4468C50.8434 11.7307 50.7716 11.8067 50.4926 11.8067C49.5399 11.8067 48.5872 11.8067 47.6344 11.8067C47.0006 11.8067 46.9488 11.7267 46.9448 11.0548C46.9448 10.2549 46.7894 9.45504 46.1476 8.92311C45.8128 8.65126 45.4225 8.45661 45.0043 8.35294C44.5862 8.24927 44.1504 8.23911 43.7279 8.32319C42.1773 8.59915 41.5236 9.42304 41.3003 11.0268C41.1894 12.1149 41.1521 13.2093 41.1887 14.3024C41.1887 16.0742 41.1887 17.8499 41.2286 19.6257C41.2258 20.4122 41.4456 21.1833 41.8624 21.8494C42.0868 22.2292 42.4124 22.5386 42.8025 22.7428C43.1927 22.947 43.6319 23.0379 44.0708 23.0052C44.239 23.0614 44.4208 23.0614 44.589 23.0052C45.1448 23.0405 45.692 22.8545 46.1121 22.4877C46.5322 22.1209 46.7913 21.6027 46.8332 21.0455C46.8691 20.7855 47.0285 20.5296 46.9289 20.2456C47.0445 19.9976 46.8731 19.7097 47.0684 19.4817Z" fill="white"/>
<path fill-rule="evenodd" clip-rule="evenodd" d="M115.456 17.5699C113.335 17.5699 111.211 17.5299 109.078 17.5979C109.018 17.7559 109.003 17.9276 109.034 18.0938C109.034 20.6295 109.034 23.1625 109.034 25.6928C109.062 25.8608 109.046 26.0332 108.986 26.1927C107.791 26.1927 106.595 26.1927 105.399 26.1927C105.116 26.1927 105.036 26.1207 105.036 25.8248C105.036 19.159 105.036 12.5079 105.036 5.87143C105.036 5.59147 105.092 5.49548 105.391 5.49548C109.048 5.49548 112.702 5.49548 116.353 5.49548C116.648 5.49548 116.752 5.56747 116.752 5.89543C116.752 6.69532 116.752 7.49522 116.752 8.29511C116.752 8.61907 116.644 8.69506 116.353 8.69506C114.101 8.69506 111.849 8.69506 109.576 8.69506C109.417 8.69506 109.242 8.69506 109.074 8.71905C109.035 8.7866 109.018 8.86515 109.026 8.94302V14.1463C109.018 14.2229 109.035 14.3002 109.074 14.3663L112.857 14.3983C113.718 14.3983 114.583 14.3983 115.444 14.3983C115.532 14.8999 115.551 15.4113 115.5 15.9181C115.553 16.4684 115.538 17.0231 115.456 17.5699Z" fill="white"/>
<path fill-rule="evenodd" clip-rule="evenodd" d="M152.321 8.69104C150.946 8.69104 149.566 8.66705 148.191 8.69104C147.884 8.69104 147.792 8.62305 147.792 8.2911C147.792 7.4912 147.792 6.69131 147.792 5.89142C147.792 5.60346 147.884 5.52747 148.155 5.52747C152.317 5.52747 156.476 5.52747 160.632 5.52747C160.943 5.52747 161.031 5.63945 161.011 5.92741C160.995 6.72731 160.995 7.5272 161.011 8.32709C161.011 8.61505 160.939 8.70304 160.656 8.69904C159.388 8.69904 158.113 8.69904 156.845 8.67505C156.359 8.67505 156.295 8.83102 156.295 9.27097C156.295 14.7382 156.295 20.2055 156.315 25.6688C156.315 26.1207 156.211 26.2407 155.777 26.2287C154.661 26.1887 153.537 26.2287 152.421 26.2287C152.36 26.0679 152.345 25.8936 152.377 25.7248C152.377 20.2255 152.377 14.7302 152.377 9.23097C152.411 9.04939 152.392 8.86165 152.321 8.69104Z" fill="white"/>
<path fill-rule="evenodd" clip-rule="evenodd" d="M67.3424 11.6867C67.2243 10.0672 66.5236 8.54603 65.3708 7.40633C64.218 6.26663 62.6917 5.58612 61.076 5.49151C58.3853 5.26754 55.9776 5.79147 54.2356 8.11516C53.3875 9.25173 52.9099 10.6234 52.8683 12.0426C52.7767 14.3823 52.8444 16.3781 52.8444 18.7297C52.8444 21.1974 53.7573 23.6331 55.8939 25.0249C58.5248 26.7367 62.9615 26.5407 65.3612 24.185C66.0238 23.5184 66.5471 22.7257 66.9003 21.8535C67.2535 20.9813 67.4295 20.0471 67.4181 19.1057C67.4739 16.518 67.5815 14.2743 67.3424 11.6867ZM62.535 20.0856C60.7691 21.0414 59.0191 18.5138 60.5418 17.8219C60.7543 17.7225 60.9967 17.7085 61.2192 17.7829C61.4416 17.8573 61.6272 18.0144 61.7377 18.2218C61.9012 18.5959 62.1964 18.8963 62.5669 19.0657C62.6586 19.1155 62.7347 19.19 62.7866 19.2807C62.8386 19.3715 62.8644 19.4749 62.861 19.5795C62.8577 19.6841 62.8255 19.7857 62.7679 19.873C62.7103 19.9602 62.6297 20.0297 62.535 20.0736V20.0856ZM64.6875 18.1858C64.5847 18.3949 64.4233 18.5694 64.2232 18.688C64.0231 18.8065 63.7929 18.864 63.5607 18.8534C63.3286 18.8428 63.1045 18.7646 62.916 18.6283C62.7274 18.4919 62.5826 18.3034 62.4991 18.0858C61.9291 16.794 60.7212 16.73 59.5094 17.3979C56.6991 18.9417 53.8888 16.0301 55.3558 13.1905C57.8472 8.39112 65.2177 9.79094 65.4529 15.7581C65.4265 16.6179 65.1615 17.4531 64.6875 18.1698V18.1858Z" fill="white"/>
<path fill-rule="evenodd" clip-rule="evenodd" d="M103.075 11.5986C103.039 11.3107 103.003 11.0147 102.959 10.7228C102.77 9.41868 102.161 8.21239 101.225 7.28722C100.63 6.71469 99.9275 6.26589 99.1586 5.96664C98.3897 5.66738 97.5693 5.52356 96.7448 5.54345C94.5165 5.51545 92.2803 5.54345 90.052 5.54345C89.7331 5.54345 89.6772 5.65143 89.6772 5.9434C89.6772 12.5798 89.6772 19.2163 89.6772 25.8527C89.6772 26.1607 89.761 26.2527 90.0759 26.2527C91.2717 26.2527 92.4397 26.2527 93.6117 26.2527C93.673 26.0922 93.6896 25.918 93.6595 25.7488V19.3496C93.6595 18.8137 93.6595 18.8177 94.1658 18.8137C95.1145 18.8137 96.0632 18.8377 97.0079 18.8137C97.9198 18.7807 98.8158 18.5644 99.6428 18.1778C101.847 17.0899 102.884 15.2142 103.091 12.7865C103.131 12.4143 103.131 12.0388 103.091 11.6666L103.075 11.5986ZM98.8655 13.8463C98.7154 14.3633 98.3945 14.8136 97.9555 15.1232C97.5164 15.4329 96.9855 15.5834 96.4499 15.5501C95.6526 15.5501 94.8554 15.5261 94.0581 15.5501C93.6794 15.5501 93.6037 15.4261 93.6117 15.0782C93.6356 14.0743 93.6117 13.0784 93.6117 12.0786C93.6117 11.0787 93.6117 10.0468 93.6117 9.03098C93.6117 8.74702 93.6754 8.65103 93.9664 8.65903C94.668 8.68303 95.3696 8.65903 96.0752 8.65903C97.8371 8.65903 98.6901 9.35094 99.0409 11.1187C99.2472 12.0258 99.1862 12.9734 98.8655 13.8463Z" fill="white"/>
</svg>
