<svg width="25" height="26" viewBox="0 0 25 26" fill="none" xmlns="http://www.w3.org/2000/svg">
<path d="M21.6655 0.000244141H3.10515C2.28343 0.000244141 1.49536 0.33348 0.914312 0.926644C0.333265 1.51981 0.00683594 2.32431 0.00683594 3.16317L0.00683594 22.1106C0.0107368 22.9469 0.338887 23.7475 0.919512 24.3374C1.50014 24.9273 2.28598 25.2585 3.10515 25.2585H12.3854V16.568H9.28703V12.6369H12.3854V9.47397C12.3834 8.85234 12.5019 8.23647 12.734 7.66178C12.9662 7.08709 13.3073 6.56494 13.7379 6.12539C14.1685 5.68583 14.68 5.33755 15.2429 5.10058C15.8059 4.86362 16.4091 4.74265 17.0181 4.74464H20.1164V8.69076H18.5672C17.7115 8.69076 17.0181 8.6004 17.0181 9.47397V12.6369H20.8836L19.3344 16.568H17.0181V25.2434H21.6655C22.4822 25.2395 23.2642 24.9065 23.8417 24.3171C24.4191 23.7276 24.7452 22.9292 24.7491 22.0956V3.16317C24.7491 2.32691 24.4247 1.52469 23.8469 0.931952C23.269 0.33922 22.4847 0.00422632 21.6655 0.000244141V0.000244141Z" fill="white"/>
</svg>
