<svg width="24" height="24" viewBox="0 0 24 24" fill="none" xmlns="http://www.w3.org/2000/svg">
<path d="M16.1193 0.242565H7.55536C6.61742 0.240875 5.68838 0.427575 4.82151 0.791958C3.95465 1.15634 3.16702 1.69124 2.50379 2.36597C1.84057 3.04071 1.3148 3.84201 0.956628 4.72391C0.59846 5.60582 0.414945 6.55099 0.416607 7.5052V16.2178C0.416607 18.144 1.16872 19.9913 2.5075 21.3533C3.84627 22.7153 5.66204 23.4804 7.55536 23.4804H16.1193C18.0116 23.4771 19.8255 22.7108 21.1635 21.3495C22.5016 19.9882 23.2548 18.1429 23.2581 16.2178V7.5052C23.2581 5.57903 22.506 3.73175 21.1672 2.36974C19.8284 1.00773 18.0127 0.242565 16.1193 0.242565ZM21.1644 16.2178C21.1644 17.5791 20.6329 18.8846 19.6867 19.8471C18.7406 20.8097 17.4574 21.3504 16.1193 21.3504H7.55536C6.21733 21.3504 4.9341 20.8097 3.98797 19.8471C3.04184 18.8846 2.5103 17.5791 2.5103 16.2178V7.5052C2.5103 6.14395 3.04184 4.83845 3.98797 3.8759C4.9341 2.91335 6.21733 2.3726 7.55536 2.3726H16.1193C17.4574 2.3726 18.7406 2.91335 19.6867 3.8759C20.6329 4.83845 21.1644 6.14395 21.1644 7.5052V16.2178Z" fill="white"/>
<path d="M11.8311 6.05537C10.7005 6.05538 9.59535 6.39661 8.6555 7.03589C7.71564 7.67516 6.98333 8.58374 6.55126 9.64662C6.11919 10.7095 6.00678 11.8789 6.22827 13.0068C6.44975 14.1347 6.99516 15.1704 7.79548 15.9828C8.59579 16.7952 9.61502 17.3478 10.7242 17.5706C11.8333 17.7935 12.9825 17.6765 14.0263 17.2346C15.0701 16.7927 15.9615 16.0457 16.5878 15.0881C17.2141 14.1305 17.5471 13.0054 17.5446 11.8552C17.5446 11.0925 17.3967 10.3373 17.1094 9.63275C16.8221 8.92824 16.4011 8.2883 15.8704 7.74957C15.3397 7.21083 14.7097 6.78389 14.0166 6.49317C13.3235 6.20246 12.5808 6.05369 11.8311 6.05537ZM11.8311 15.4866C11.1251 15.4866 10.435 15.2736 9.84803 14.8746C9.26105 14.4756 8.80355 13.9084 8.53339 13.2449C8.26324 12.5813 8.19255 11.8512 8.33028 11.1468C8.468 10.4424 8.80795 9.79535 9.30714 9.2875C9.80632 8.77964 10.4423 8.43379 11.1347 8.29368C11.8271 8.15356 12.5448 8.22548 13.197 8.50032C13.8492 8.77517 14.4067 9.24061 14.7989 9.83777C15.1911 10.4349 15.4004 11.137 15.4004 11.8552C15.4004 12.3321 15.3081 12.8043 15.1287 13.2449C14.9494 13.6855 14.6864 14.0858 14.355 14.423C14.0236 14.7602 13.6301 15.0276 13.197 15.2101C12.764 15.3926 12.2998 15.4866 11.8311 15.4866Z" fill="white"/>
<path d="M17.9735 6.38832C18.3914 6.38832 18.7302 6.04362 18.7302 5.61841C18.7302 5.19321 18.3914 4.84851 17.9735 4.84851C17.5555 4.84851 17.2167 5.19321 17.2167 5.61841C17.2167 6.04362 17.5555 6.38832 17.9735 6.38832Z" fill="white"/>
</svg>
