<svg width="25" height="24" viewBox="0 0 25 24" fill="none" xmlns="http://www.w3.org/2000/svg">
<path d="M24.211 9.1871V8.95508V8.79267C23.8983 7.0812 23.1064 5.49804 21.9304 4.2335C20.6638 2.87237 19.1018 1.83149 17.3692 1.19405C15.8293 0.589519 14.1962 0.267445 12.5457 0.242775C10.3702 0.230136 8.22469 0.759883 6.29687 1.7857C4.60883 2.58914 3.19189 3.88228 2.22412 5.50258C1.25635 7.12289 0.78093 8.99806 0.857619 10.8924C1.02921 12.7654 1.74806 14.5432 2.92157 15.9969C4.09445 17.4344 5.59875 18.5543 7.30033 19.2567C8.35392 19.6691 9.44693 19.9685 10.5616 20.15H10.687C11.0063 20.15 11.0861 20.2892 11.1089 20.324C11.1318 20.4075 11.1318 20.4957 11.1089 20.5792C11.1089 20.6488 11.1089 20.7068 11.1089 20.7648C10.9443 21.2769 10.8936 21.8198 10.9607 22.3542C10.9917 22.6392 11.1254 22.9025 11.336 23.0932C11.5466 23.2838 11.8191 23.3884 12.101 23.3867C12.7618 23.3041 13.3924 23.0571 13.9369 22.6674H13.9939C15.1342 21.9945 16.2061 21.2173 17.0157 20.6256C18.9696 19.3233 20.745 17.7629 22.2953 15.9853C23.7908 14.0652 24.4794 11.6216 24.211 9.1871ZM8.14416 12.8182H6.12582C6.05352 12.8198 5.98165 12.8065 5.91454 12.779C5.84743 12.7516 5.78647 12.7107 5.73533 12.6586C5.68419 12.6066 5.64393 12.5446 5.61697 12.4763C5.59001 12.408 5.57692 12.3349 5.57848 12.2614V7.9458C5.57692 7.87224 5.59001 7.79912 5.61697 7.73085C5.64393 7.66257 5.68419 7.60056 5.73533 7.54853C5.78647 7.4965 5.84743 7.45554 5.91454 7.42812C5.98165 7.4007 6.05352 7.38737 6.12582 7.38896C6.19865 7.38741 6.27106 7.40068 6.33879 7.42797C6.40651 7.45526 6.46821 7.49603 6.52025 7.54789C6.57229 7.59976 6.61363 7.66167 6.64184 7.72999C6.67006 7.79832 6.68459 7.87169 6.68457 7.9458V11.6929H8.14416C8.29235 11.6929 8.43447 11.7528 8.53925 11.8594C8.64404 11.966 8.70291 12.1106 8.70291 12.2614C8.70292 12.3355 8.6884 12.4088 8.66018 12.4772C8.63196 12.5455 8.59062 12.6074 8.53858 12.6593C8.48654 12.7111 8.42485 12.7519 8.35712 12.7792C8.28939 12.8065 8.21699 12.8197 8.14416 12.8182ZM10.2537 12.2498C10.2537 12.4036 10.1937 12.5511 10.0867 12.6599C9.9798 12.7687 9.83478 12.8298 9.68357 12.8298C9.53236 12.8298 9.38734 12.7687 9.28041 12.6599C9.17349 12.5511 9.11342 12.4036 9.11342 12.2498V7.9342C9.11342 7.78036 9.17349 7.63283 9.28041 7.52405C9.38734 7.41527 9.53236 7.35415 9.68357 7.35415C9.83478 7.35415 9.9798 7.41527 10.0867 7.52405C10.1937 7.63283 10.2537 7.78036 10.2537 7.9342V12.2498ZM15.2483 12.2498C15.2467 12.3688 15.2084 12.4844 15.1389 12.5801C15.0693 12.6759 14.972 12.747 14.8605 12.7834H14.6895C14.6024 12.7844 14.5164 12.7638 14.4389 12.7234C14.3614 12.6829 14.2948 12.6239 14.2448 12.5514L12.2607 9.79035V12.2498C12.2577 12.3985 12.1975 12.5401 12.093 12.6442C11.9886 12.7483 11.8481 12.8066 11.7019 12.8066C11.6272 12.8114 11.5523 12.8005 11.4819 12.7746C11.4115 12.7488 11.3471 12.7085 11.2926 12.6563C11.2381 12.6041 11.1947 12.5411 11.165 12.4712C11.1354 12.4013 11.1202 12.3259 11.1204 12.2498V8.06181C11.1204 7.9426 11.1566 7.82631 11.2239 7.72875C11.2912 7.63118 11.3865 7.5571 11.4967 7.51657C11.6079 7.48181 11.727 7.48325 11.8374 7.52068C11.9478 7.55812 12.0439 7.62968 12.1124 7.72538L14.1079 10.5096V7.9342C14.1079 7.78036 14.168 7.63283 14.2749 7.52405C14.3819 7.41527 14.5269 7.35415 14.6781 7.35415C14.8293 7.35415 14.9743 7.41527 15.0813 7.52405C15.1882 7.63283 15.2483 7.78036 15.2483 7.9342V12.2498ZM19.2735 12.7138H16.5368C16.4645 12.7154 16.3926 12.7021 16.3255 12.6746C16.2584 12.6472 16.1974 12.6062 16.1463 12.5542C16.0952 12.5022 16.0549 12.4402 16.0279 12.3719C16.001 12.3036 15.9879 12.2305 15.9894 12.1569V7.84139C15.9894 7.69371 16.0471 7.55207 16.1498 7.44764C16.2524 7.34322 16.3916 7.28455 16.5368 7.28455H19.1823C19.3335 7.28455 19.4785 7.34566 19.5855 7.45444C19.6924 7.56322 19.7525 7.71076 19.7525 7.8646C19.7525 8.01843 19.6924 8.16597 19.5855 8.27475C19.4785 8.38353 19.3335 8.44464 19.1823 8.44464H17.0841V9.47713H18.7946C18.9398 9.47713 19.079 9.53579 19.1816 9.64022C19.2843 9.74465 19.3419 9.88629 19.3419 10.034C19.342 10.1827 19.2847 10.3256 19.1823 10.4319C19.08 10.5382 18.9408 10.5994 18.7946 10.6024H17.0841V11.6349H19.2735C19.4247 11.6349 19.5698 11.696 19.6767 11.8048C19.7836 11.9136 19.8437 12.0611 19.8437 12.2149C19.8437 12.3688 19.7836 12.5163 19.6767 12.6251C19.5698 12.7339 19.4247 12.795 19.2735 12.795V12.7138Z" fill="white"/>
</svg>
