<svg width="24" height="24" viewBox="0 0 24 24" fill="none" xmlns="http://www.w3.org/2000/svg">
<path d="M23.6961 14.4799V23.136H18.6779V15.0596C18.6779 13.0307 17.952 11.6461 16.1356 11.6461C14.749 11.6461 13.9238 12.5793 13.5608 13.4819C13.4284 13.8046 13.3943 14.2537 13.3943 14.7054V23.136H8.37437C8.37437 23.136 8.44198 9.45726 8.37437 8.04004H13.3938V10.1798C13.3836 10.1958 13.3704 10.2131 13.3608 10.2286H13.3938V10.1798C14.0607 9.15269 15.2517 7.6854 17.9175 7.6854C21.2202 7.68534 23.6961 9.84298 23.6961 14.4799ZM3.1233 0.763062C1.40598 0.763062 0.282715 1.88949 0.282715 3.37077C0.282715 4.81978 1.37348 5.98038 3.05667 5.98038H3.0902C4.84078 5.98038 5.92948 4.81999 5.92948 3.37077C5.89649 1.88949 4.84078 0.763062 3.1233 0.763062ZM0.580855 23.136H5.59889V8.04004H0.580855V23.136Z" fill="white"/>
</svg>
