<svg width="31" height="25" viewBox="0 0 31 25" fill="none" xmlns="http://www.w3.org/2000/svg">
<path d="M30.6073 3.23552C29.486 3.73857 28.2976 4.06852 27.0812 4.21453C28.363 3.45011 29.3202 2.22593 29.7664 0.780459C28.5688 1.4983 27.2624 2.00733 25.9008 2.28663C24.9782 1.29278 23.7615 0.635706 22.4375 0.416362C21.1136 0.197018 19.7557 0.427546 18.5725 1.07252C17.3894 1.7175 16.4464 2.74124 15.8886 3.98643C15.3307 5.23162 15.1888 6.62937 15.4846 7.9649C13.056 7.84058 10.6802 7.1956 8.51187 6.07196C6.34356 4.94831 4.4313 3.37117 2.89953 1.44317C2.36208 2.40187 2.07741 3.48649 2.07331 4.59108C2.07258 5.61619 2.32002 6.62561 2.79364 7.52954C3.26725 8.43347 3.95236 9.20391 4.78803 9.77231C3.82059 9.75105 2.87311 9.48725 2.02905 9.00416V9.07947C2.02767 10.5173 2.51305 11.9114 3.40299 13.0257C4.29294 14.1401 5.53278 14.9063 6.91259 15.1945C6.37222 15.3303 5.81641 15.391 5.26015 15.3753C4.89209 15.41 4.52167 15.41 4.15361 15.3753C4.5496 16.612 5.31121 17.6931 6.33367 18.4699C7.35613 19.2467 8.58923 19.681 9.86337 19.7131C7.69521 21.4037 5.03761 22.3099 2.30937 22.2886C1.81653 22.2946 1.32379 22.2694 0.833984 22.2133C3.62727 24.0474 6.88157 25.0153 10.2027 24.9997C12.4875 25.0157 14.7527 24.5681 16.8666 23.6829C18.9806 22.7977 20.9012 21.4925 22.5168 19.8431C24.1325 18.1938 25.411 16.2331 26.2781 14.0751C27.1453 11.917 27.5837 9.60456 27.568 7.27207C27.568 7.00095 27.568 6.72984 27.568 6.47379C28.7632 5.58923 29.7927 4.49233 30.6073 3.23552Z" fill="white"/>
</svg>
