<svg width="33" height="23" viewBox="0 0 33 23" fill="none" xmlns="http://www.w3.org/2000/svg">
<path d="M31.1082 2.42649C30.1787 0.829958 29.2197 0.543787 27.2869 0.438355C25.3542 0.332924 20.4854 0.242554 16.3543 0.242554C12.2232 0.242554 7.19211 0.242554 5.25935 0.423293C3.32659 0.604033 2.38235 0.829958 1.49711 2.42649C0.611878 4.02303 0.125 6.74919 0.125 11.5689C0.125 16.3736 0.582371 19.0997 1.49711 20.6963C2.41185 22.2928 3.32659 22.579 5.25935 22.7145C7.19211 22.8501 12.0609 22.8953 16.2805 22.8953C20.5001 22.8953 25.3542 22.8953 27.2869 22.7145C29.2197 22.5338 30.2377 22.2928 31.0492 20.6963C31.8606 19.0997 32.4213 16.3736 32.4213 11.5689C32.4213 6.74919 31.9639 4.02303 31.1082 2.42649ZM12.2379 17.7593V5.39364L22.3296 11.584L12.2379 17.7593Z" fill="white"/>
</svg>
